<svg version="1.1" id="Layer_1" xmlns="http://www.w3.org/2000/svg" x="0" y="0" width="32" height="32" viewBox="0 0 32 32" xml:space="preserve">
  <style>
    .st0{fill:#fff}
  </style>
  <path class="st0" d="m10.7 10.2-.8-.2c.2-.8.8-1.2 1.7-1.2.5 0 .9.1 1.1.3.3.2.4.5.4.9 0 .5-.3.9-.8 1.1.7.2 1 .5 1 1.2 0 .4-.2.8-.5 1-.3.3-.7.4-1.2.4s-.8-.1-1.2-.3c-.3-.2-.5-.5-.6-1l.8-.2c.1.5.5.8 1 .8.2 0 .4-.1.6-.2s.3-.4.3-.6-.1-.4-.2-.6c-.2-.1-.4-.2-.8-.2h-.3v-.6h.3c.2 0 .4 0 .5-.1.1 0 .2-.1.3-.2s.1-.3.1-.5-.1-.4-.2-.5-.3-.2-.5-.2c-.6.2-.9.4-1 .9m6.8-.2-.7.2c-.1-.5-.4-.8-.8-.8-.3 0-.6.2-.7.5-.2.3-.2.8-.3 1.4.2-.5.6-.7 1.1-.7.4 0 .8.1 1 .4.3.3.4.7.4 1.1 0 .5-.2.9-.5 1.2s-.7.4-1.2.4-1-.2-1.3-.6-.5-1-.5-1.8.2-1.5.5-2c.5-.3.9-.5 1.5-.5.4 0 .7.1 1 .3.2.2.5.5.5.9m-.8 2.2c0-.3-.1-.6-.2-.7-.1-.2-.3-.2-.6-.2q-.45 0-.6.3c-.1.2-.2.4-.2.7s.1.5.2.7q.3.3.6.3c.6-.1.8-.4.8-1.1m5-.9c0 .9-.1 1.5-.4 2-.3.4-.7.6-1.3.6-1.2 0-1.7-.8-1.7-2.5 0-.9.1-1.5.4-2 .3-.4.7-.6 1.3-.6 1.1.1 1.7.9 1.7 2.5m-1 0c0-.7-.1-1.2-.2-1.5s-.3-.4-.6-.4-.5.1-.6.4c-.2.3-.2.8-.2 1.5 0 .8.1 1.3.2 1.5.2.3.4.4.6.4.3 0 .5-.1.6-.4.2-.2.2-.7.2-1.5m3.6-1.3c0 .3-.1.6-.3.8s-.5.3-.8.3-.6-.1-.8-.3-.3-.5-.3-.8.1-.6.3-.8.5-.3.8-.3.6.1.8.3.3.5.3.8m-.5 0c0-.2-.1-.3-.2-.5-.1-.1-.2-.2-.4-.2s-.3.1-.4.2-.1.2-.1.4.1.3.2.5c.1.1.2.2.4.2.1 0 .3-.1.4-.2s.1-.2.1-.4m-11.7 5.6h.6l.5 1.8.5-1.8h.5l-.8 2.6h-.5zm3.1-.4h-.6v-.6h.6zm-.6.4h.6v2.6h-.6zM18 17h-1.7c0 .3.1.6.2.7s.2.2.4.2c.3 0 .4-.2.5-.5l.5.1c-.1.5-.5.8-1.1.8-.3 0-.6-.1-.8-.3s-.3-.5-.3-1 .1-.8.3-1c.2-.3.5-.4.8-.4.2 0 .4.1.6.2s.3.3.4.5c.1.1.2.3.2.7m-.6-.4c0-.5-.2-.7-.5-.7s-.5.2-.5.7zm.7-1h.6l.4 1.8.4-1.8h.5l.4 1.8.5-1.8h.5l-.7 2.6h-.5l-.4-1.8-.4 1.8h-.5z"/>
  <path class="st0" d="M8.7 14.1v1.5s-4.4 1.7 1.5 3.8c0 0 3.2.9 6.4.9V19l4.4 2-4.4 2.3v-1.5s-11.3 0-11.3-4.4c-.1.1-.1-2.2 3.4-3.3M21.5 19c.3 0 3.5-.9 3.5-2.3S23.8 15 23.8 15v-.9s2.9.6 2.9 3.2c0 0 0 2.2-3.2 3.2z"/>
</svg>
