<svg xmlns:mydata="http://www.w3.org/2000/svg" xmlns="http://www.w3.org/2000/svg" mydata:contrastcolor="3087" mydata:template="InvertedHex1" mydata:presentation="2.5" mydata:layouttype="undefined" mydata:specialfontid="undefined" mydata:id1="642" mydata:id2="217" mydata:companyname="Total" mydata:companytagline="Yoga Studio" style="height:383px" viewBox="65 186.86 420 96.29">
  <g data-paper-data="{&quot;isGlobalGroup&quot;:true,&quot;bounds&quot;:{&quot;x&quot;:65.00000000000003,&quot;y&quot;:186.85667186732064,&quot;width&quot;:419.9999999999999,&quot;height&quot;:96.28665626535872}}" fill="#fff" fill-rule="none" stroke-miterlimit="10" font-family="none" font-weight="none" font-size="none" text-anchor="none" style="mix-blend-mode:normal">
    <g data-paper-data="{&quot;isSecondaryText&quot;:true}" fill-rule="nonzero" fill="#3bc3a9">
      <path d="M250.78 275.25h1.862v-7.63l5.047-8.652h-2.093l-3.885 6.861-3.814-6.861h-2.163l5.047 8.652z" data-paper-data="{&quot;glyphName&quot;:&quot;Y&quot;,&quot;glyphIndex&quot;:0,&quot;firstGlyphOfWord&quot;:true,&quot;word&quot;:1}"/>
      <path d="M266.024 269.202c0-2.652 1.814-4.675 4.42-4.675 2.604 0 4.465 2 4.465 4.675 0 2.698-1.86 4.675-4.466 4.675-2.582 0-4.42-1.954-4.42-4.675m-1.884 0c0 3.675 2.675 6.35 6.303 6.35s6.327-2.722 6.327-6.35c0-3.629-2.652-6.35-6.304-6.35-3.605 0-6.326 2.698-6.326 6.35" data-paper-data="{&quot;glyphName&quot;:&quot;o&quot;,&quot;glyphIndex&quot;:1,&quot;word&quot;:1}"/>
      <path d="M286.87 278.506c1.047.65 2.745 1.21 4.327 1.21 3.489 0 6.07-1.56 6.07-6.141v-10.42H295.5v1.953c-.396-.651-1.768-2.256-4.28-2.256-3.42 0-5.815 2.652-5.815 6.373 0 3.698 2.373 6.327 5.838 6.327 2.652 0 3.908-1.768 4.187-2.21v1.07c0 2.698-1.954 3.652-4.256 3.652-1.745 0-3.187-.721-3.652-1zm8.63-9.28c0 2.604-1.605 4.651-4.094 4.651-2.326 0-4.14-1.837-4.14-4.652 0-2.768 1.744-4.698 4.094-4.698 2.302 0 4.14 1.767 4.14 4.698" data-paper-data="{&quot;glyphName&quot;:&quot;g&quot;,&quot;glyphIndex&quot;:2,&quot;word&quot;:1}"/>
      <path d="M306.559 271.528c0 2.349 1.953 4.024 4.605 4.024 1.628 0 2.652-.605 3.28-1.326l.209 1.023h1.582v-7.978c0-2.582-1.303-4.419-4.606-4.419-2.047 0-3.651.814-4.466 1.326l.745 1.349c.86-.512 2.07-1.047 3.558-1.047 1.791 0 2.931.977 2.931 2.675v1.489c-.488-.512-1.651-1.094-3.186-1.094-2.722 0-4.652 1.675-4.652 3.978m1.86-.023c0-1.42 1.187-2.49 3.024-2.49 1.814 0 3.024.978 3.024 2.49 0 1.465-1.233 2.512-3 2.512-1.861 0-3.048-1.117-3.048-2.512" data-paper-data="{&quot;glyphName&quot;:&quot;a&quot;,&quot;glyphIndex&quot;:3,&quot;lastGlyphOfWord&quot;:true,&quot;word&quot;:1}"/>
      <path d="M337.366 271.97c.511 1.558 1.93 3.582 5.093 3.582 3.047 0 4.931-2 4.931-4.56 0-5.21-7.652-4.442-7.652-8.163 0-1.35.954-2.443 2.745-2.443 1.79 0 2.675 1.233 3.047 2.047l1.581-.651c-.395-1.093-1.698-3.117-4.605-3.117-2.884 0-4.652 1.838-4.652 4.164 0 5.256 7.63 4.21 7.63 8.28 0 1.698-1.234 2.698-2.955 2.698-2.14 0-3.117-1.28-3.559-2.535z" data-paper-data="{&quot;glyphName&quot;:&quot;S&quot;,&quot;glyphIndex&quot;:4,&quot;firstGlyphOfWord&quot;:true,&quot;word&quot;:2}"/>
      <path d="M356.62 263.154h-1.42v1.559h1.42v6.396c0 2.721 1.046 4.303 3.465 4.303.628 0 1.117-.07 1.117-.07v-1.628s-.28.023-.512.023c-1.582 0-2.233-.535-2.233-2.79v-6.234h2.652v-1.559h-2.652v-2.535h-1.838z" data-paper-data="{&quot;glyphName&quot;:&quot;t&quot;,&quot;glyphIndex&quot;:5,&quot;word&quot;:2}"/>
      <path d="M374.132 275.552c1.652 0 3.024-.954 3.582-2.047v1.744h1.838v-12.095h-1.861v7.35c0 2-1.28 3.373-3.14 3.373-1.628 0-2.86-1.163-2.86-3.094v-7.629h-1.838v7.56c0 2.744 1.465 4.838 4.28 4.838" data-paper-data="{&quot;glyphName&quot;:&quot;u&quot;,&quot;glyphIndex&quot;:6,&quot;word&quot;:2}"/>
      <path d="M400.68 258.433h-1.862v6.675c-.348-.628-1.744-2.256-4.256-2.256-3.442 0-5.768 2.652-5.768 6.373 0 3.698 2.442 6.327 5.908 6.327 2.628 0 3.884-1.768 4.186-2.21v1.907h1.791zm-1.792 10.815c0 2.536-1.558 4.652-4.093 4.652-2.326 0-4.117-1.837-4.117-4.652 0-2.768 1.72-4.721 4.093-4.721 2.256 0 4.117 1.72 4.117 4.721" data-paper-data="{&quot;glyphName&quot;:&quot;d&quot;,&quot;glyphIndex&quot;:7,&quot;word&quot;:2}"/>
      <path d="M410.488 275.25h1.838v-12.096h-1.838zm-.349-15.212c0 .72.559 1.279 1.256 1.279.721 0 1.28-.558 1.28-1.28 0-.697-.559-1.255-1.28-1.255a1.25 1.25 0 0 0-1.256 1.256" data-paper-data="{&quot;glyphName&quot;:&quot;i&quot;,&quot;glyphIndex&quot;:8,&quot;word&quot;:2}"/>
      <path d="M423.151 269.202c0-2.652 1.814-4.675 4.42-4.675s4.465 2 4.465 4.675c0 2.698-1.86 4.675-4.466 4.675-2.581 0-4.419-1.954-4.419-4.675m-1.884 0c0 3.675 2.675 6.35 6.303 6.35s6.327-2.722 6.327-6.35c0-3.629-2.652-6.35-6.303-6.35-3.606 0-6.327 2.698-6.327 6.35" data-paper-data="{&quot;glyphName&quot;:&quot;o&quot;,&quot;glyphIndex&quot;:9,&quot;lastGlyphOfWord&quot;:true,&quot;word&quot;:2}"/>
    </g>
    <g data-paper-data="{&quot;isPrimaryText&quot;:true}" fill-rule="nonzero" fill="#3bc3a9">
      <path d="M278.607 191.276h-50.772v14.364h17.75l.165 43.095h15.273l-.165-43.095h17.75z" data-paper-data="{&quot;glyphName&quot;:&quot;t&quot;,&quot;glyphIndex&quot;:0,&quot;firstGlyphOfWord&quot;:true,&quot;word&quot;:1}"/>
      <path d="M312.126 206.136c7.842 0 14.282 6.357 14.282 14.282 0 7.843-6.44 14.2-14.282 14.2-.66 0-1.404-.083-2.147-.165 4.706 6.027 11.558 9.824 19.236 10.732 7.925-5.448 13.044-14.447 13.044-24.767 0-11.228-6.027-20.97-15.108-26.088-7.513 1.404-14.365 5.78-18.41 12.219 1.073-.248 2.229-.413 3.385-.413m0-15.851c-16.594 0-30.134 13.457-30.134 30.133 0 16.594 13.54 30.05 30.134 30.05 2.063 0 4.127-.164 6.109-.577-12.714-5.366-20.722-17.42-20.722-30.298 0-12.054 7.182-23.612 18.162-29.06a25 25 0 0 0-3.55-.248" data-paper-data="{&quot;glyphName&quot;:&quot;o&quot;,&quot;glyphIndex&quot;:1,&quot;word&quot;:1}"/>
      <path d="M396.334 191.276H345.56v14.364h17.75l.165 43.095h15.273l-.165-43.095h17.75z" data-paper-data="{&quot;glyphName&quot;:&quot;t&quot;,&quot;glyphIndex&quot;:2,&quot;word&quot;:1}"/>
      <path d="M428.2 191.77h-13.704l12.384 35.253h-23.034l-7.76 21.795h15.934l3.054-8.586h14.448l3.054 8.586h16.264z" data-paper-data="{&quot;glyphName&quot;:&quot;a&quot;,&quot;glyphIndex&quot;:3,&quot;word&quot;:1}"/>
      <path d="M468.323 233.38v-42.187H453.05v57.46H485V233.38z" data-paper-data="{&quot;glyphName&quot;:&quot;l&quot;,&quot;glyphIndex&quot;:4,&quot;lastGlyphOfWord&quot;:true,&quot;word&quot;:1}"/>
    </g>
    <g data-paper-data="{&quot;fillRule&quot;:&quot;evenodd&quot;,&quot;fillRuleOriginal&quot;:&quot;evenodd&quot;,&quot;isIcon&quot;:true,&quot;iconStyle&quot;:&quot;standalone&quot;,&quot;selectedEffects&quot;:{&quot;container&quot;:&quot;&quot;,&quot;transformation&quot;:&quot;&quot;,&quot;pattern&quot;:&quot;&quot;},&quot;bounds&quot;:{&quot;x&quot;:65.00000000000003,&quot;y&quot;:186.85667186732064,&quot;width&quot;:145.1346203068223,&quot;height&quot;:96.28665626535872},&quot;iconType&quot;:&quot;icon&quot;,&quot;rawIconId&quot;:&quot;f50b50ea-07af-4c7c-9ea1-ef3e331d009a&quot;,&quot;isSvgStockIcon&quot;:true,&quot;combineTerms&quot;:&quot;lotus,yoga&quot;,&quot;combineTermsExtended&quot;:{&quot;icon&quot;:[&quot;lotus&quot;,&quot;yoga&quot;]},&quot;isDetailed&quot;:false,&quot;suitableAsStandaloneIcon&quot;:true}" fill-rule="evenodd">
      <path d="M98.955 283.143h6.554c.446-.19.93-.18 1.407-.169l.227.005c.522.013 1.04-.05 1.557-.112.356-.043.712-.086 1.07-.105 6.624-.788 13.28-2.27 19.224-5.39 2.29-1.272 4.53-2.728 6.298-4.683.862-1.09 1.8-2.183 2.21-3.539.525 1.168 1.17 2.283 2.036 3.231.799 1.085 1.905 1.874 2.93 2.726 3.767 2.795 8.205 4.512 12.69 5.77 4.049 1.088 8.203 1.742 12.375 2.098.183.008.368.004.554 0 .481-.01.965-.022 1.418.168h6.718c.38-.152.78-.165 1.182-.178.24-.008.48-.016.715-.053 3.393-.486 6.754-1.278 9.948-2.536 5.253-1.973 10.163-4.792 14.677-8.116 2.606-1.929 5.117-4 7.39-6.314v-.182c-.985-.637-1.644-1.642-2.588-2.33-4.986-4.38-10.574-8.102-16.637-10.82-2.6-1.144-5.286-2.116-8.051-2.778 1.632-2.474 2.92-5.165 4.03-7.908 2.322-5.814 3.662-11.999 4.22-18.225.2-1.809.277-3.624.22-5.444l-.078-.002c-.766-.018-1.535-.036-2.294.082-.952.155-1.922.001-2.874.158-5.028.45-10.021 1.41-14.83 2.96-5.599 1.83-10.986 4.482-15.542 8.25-.408.369-.829.723-1.273 1.044.115-.49.12-.989.123-1.488.004-.431.007-.862.082-1.287.11-.658.098-1.324.085-1.99-.013-.671-.027-1.344.088-2.008a2.7 2.7 0 0 0-.002-.969c-.175-.935 0-1.893-.175-2.828-.366-4.652-1.7-9.187-3.494-13.48-2.607-5.954-6.16-11.478-10.364-16.43-.98-1.228-2.11-2.321-3.231-3.414-.348.131-.56.494-.837.735-1.142 1.085-2.125 2.318-3.155 3.506-4.887 5.981-8.963 12.722-11.327 20.104-1.057 3.252-1.671 6.634-1.947 10.037q.002 1.2 0 2.402c-.001 1.201-.003 2.402.008 3.603.14 1.17.178 2.348.346 3.514-1.725-1.346-3.384-2.799-5.27-3.925-3.613-2.38-7.623-4.082-11.723-5.426-5.018-1.592-10.224-2.556-15.466-2.987-.708.033-1.412-.028-2.116-.089-.791-.069-1.582-.137-2.38-.072.007.354.001.71-.005 1.065-.014.778-.028 1.556.095 2.326.415 6.482 1.65 12.943 3.9 19.05 1.202 3.18 2.65 6.276 4.495 9.138-5.128 1.25-9.987 3.457-14.51 6.15a72 72 0 0 0-9.289 6.676c-1.146 1.039-2.384 1.994-3.369 3.193.108.466.614.747.913 1.112 4.044 3.762 8.518 7.076 13.333 9.788 5.527 3.135 11.612 5.371 17.93 6.188.188.019.38.022.57.025.411.006.822.012 1.209.173m36.791-78.22c.493-.609 1.009-1.205 1.603-1.72.29-.106.486.117.674.33.078.09.155.177.237.239a54 54 0 0 1 7.642 10.467c1.167 2.238 2.317 4.502 3.05 6.927.994 2.752 1.536 5.65 1.712 8.562v1.73q0 1.386-.006 2.77c.04.535-.318.958-.647 1.346l-.117.139c-2.985 3.313-5.592 6.958-7.85 10.8-1.88 3.281-3.456 6.767-4.38 10.443l-.306.011c-.256-1.539-.873-2.983-1.404-4.439-2.594-6.274-6.464-11.952-10.95-17.023-.631-.561-.638-1.435-.643-2.235q0-.192-.006-.376c.018-.497.009-.996-.001-1.495-.017-.897-.034-1.794.108-2.681.454-5.587 2.574-10.917 5.384-15.722 1.739-2.847 3.667-5.589 5.9-8.073M95.23 231.239c.007-.485.014-.97-.015-1.451.477.015.955.015 1.433.015.503 0 1.006 0 1.509.017 1.098.15 2.205.23 3.308.347 4.921.706 9.808 1.939 14.3 4.11 2.097 1.018 4.119 2.221 5.937 3.684.373.659.386 1.476.588 2.204 1.186 4.621 2.775 9.222 5.47 13.195.134.188.109.43.149.649-.413-.092-.786-.288-1.158-.474-6.232-2.759-13.022-4.04-19.776-4.58-.501.051-.995-.012-1.488-.075-.445-.057-.89-.114-1.342-.087h-1.563a209 209 0 0 0-3.553.015c-1-2.23-1.75-4.568-2.31-6.945-.722-2.71-1.153-5.496-1.372-8.288-.14-.771-.128-1.553-.117-2.336m66.58 1.957c4.745-1.85 9.79-2.944 14.865-3.28.647-.13 1.305-.123 1.964-.114.387.004.774.01 1.16-.014-.027.475-.02.952-.013 1.43.012.79.024 1.58-.116 2.359-.313 4.138-1.171 8.232-2.476 12.17-.406 1.019-.72 2.077-1.208 3.06a226 226 0 0 0-6.456.004c-.657.12-1.322.18-1.991.148-4.747.45-9.5 1.178-14.062 2.614-1.838.609-3.697 1.198-5.434 2.067-.238.131-.51.156-.773.193q.014-.278.096-.538c2.86-4.31 4.524-9.288 5.685-14.294.107-.365.064-.817.36-1.093 2.549-1.979 5.43-3.475 8.4-4.712m-35.16 13.841c-.527-1.802-1.044-3.614-1.332-5.47.188.051.418.05.544.23.374.455.727.93 1.165 1.334 2.23 2.532 4.208 5.282 5.947 8.172.497.985 1.134 1.9 1.539 2.932.662 1.54 1.442 3.075 1.717 4.744-.89-.007-1.784-.373-2.381-1.042-.939-1.015-2.321-1.54-3.107-2.707-1.877-2.44-3.11-5.294-4.093-8.193m21.217-3.718c.452-.591 1.066-1.044 1.45-1.69l.378-.04c-.138 1.43-.564 2.811-.925 4.197-1.005 3.39-2.337 6.759-4.55 9.556-.79 1.056-2.039 1.599-2.964 2.517-.639.672-1.522 1.198-2.48 1.108.385-1.71 1.096-3.34 1.863-4.912 1.862-3.911 4.403-7.465 7.228-10.736m-45.956 10.344c1.51-.311 3.023-.657 4.567-.749 1.124-.187 2.262-.167 3.4-.147a37 37 0 0 0 1.758.002c.398-.03.79.027 1.18.083.384.054.767.11 1.158.084 5.131.414 10.268 1.477 14.99 3.585 2.362 1.138 4.697 2.51 6.434 4.51.684.85 1.35 1.771 1.599 2.853.095.955-.122 1.918-.391 2.83-.52 1.865-1.942 3.438-3.714 4.203-1.729.642-3.632.857-5.456.546-1.878-.143-3.674-.767-5.439-1.383-3.281-1.261-6.311-3.081-9.181-5.095-1.61-1.203-3.232-2.404-4.68-3.8-2.392-1.99-4.467-4.35-6.207-6.927-.064-.126-.048-.265-.032-.402.007-.065.015-.13.014-.193m47.745 1.479c3.359-1.111 6.86-1.779 10.38-2.1.836-.18 1.7-.043 2.534-.248 1.28-.037 2.562-.03 3.844-.024l1.135.004c1.865.202 3.734.435 5.557.89a1 1 0 0 0 .013.2c.016.136.033.272-.036.391-.699 1.158-1.566 2.196-2.411 3.248-2.983 3.25-6.366 6.118-10.02 8.587-2.777 1.799-5.704 3.42-8.868 4.425-2.055.67-4.207 1.16-6.38 1.074-1.747-.07-3.517-.574-4.895-1.683-1.434-1.2-2.261-3.032-2.41-4.877-.373-1.602.717-2.941 1.675-4.118l.246-.303c2.647-2.65 6.108-4.32 9.636-5.466m26.034 3.038c.812-.795 1.61-1.607 2.411-2.412.24-.318.649-.16.964-.037l.083.032a52.2 52.2 0 0 1 14.439 9.825c.364.246.09.644-.168.838-3.92 3.64-8.326 6.794-13.153 9.122-3.296 1.535-6.77 2.753-10.388 3.236-.725.136-1.469.125-2.193.268-.887.037-1.776.03-2.665.024-.549-.003-1.098-.007-1.646 0-.284.011-.562-.035-.84-.08-.214-.036-.428-.072-.646-.08-1.227.016-2.444-.154-3.659-.324l-.718-.1c-3.19-.404-6.321-1.207-9.345-2.299-2.575-1.003-5.116-2.24-7.194-4.096-.534-.414-1.155-.864-1.223-1.597.258.048.55.054.755.25 1.67 1.315 3.829 1.778 5.902 1.98 3.048.096 6.071-.593 8.948-1.568 7.05-2.52 13.34-6.807 18.925-11.732.431-.461.935-.837 1.411-1.25m-92.503 5.829c3.729-3.226 7.855-6.028 12.35-8.077.107-.037.214-.086.322-.136.281-.13.568-.26.875-.186.847.765 1.581 1.653 2.46 2.387.762.56 1.337 1.33 2.104 1.885 4.556 4.009 9.62 7.484 15.162 9.987 3.763 1.684 7.828 2.928 11.981 2.867 1.825-.143 3.692-.484 5.291-1.424.573-.315 1.033-.84 1.687-.992-.06.256-.015.577-.244.76-1.737 1.84-3.945 3.163-6.213 4.245-4.413 1.961-9.185 3.038-13.982 3.477-.444.105-.898.107-1.351.109-.223 0-.447.001-.669.014-1.044.187-2.104.17-3.163.152a31 31 0 0 0-1.658.001c-4.525-.203-8.964-1.462-13.052-3.389-4.286-2.001-8.221-4.707-11.815-7.773-.506-.496-1.007-1-1.582-1.42a3 3 0 0 0-.12-.108c-.193-.165-.418-.36-.286-.62.539-.684 1.306-1.134 1.903-1.76" data-paper-data="{&quot;isPathIcon&quot;:true}" fill="#3bc3a9"/>
    </g>
  </g>
  <path data-element-id="element-id-51453" fill="transparent" class="invisible-element-box grouping-element" data-element-name="isPrimaryText" d="M228 190h257v60H228z"/>
  <path data-element-id="element-id-44536" fill="transparent" class="invisible-element-box grouping-element" data-element-name="isIcon" d="M65 187h145v96H65z"/>
  <path data-element-id="element-id-89478" fill="transparent" class="invisible-element-box individual-element" d="M65 187h145v96H65z"/>
  <path data-element-id="element-id-14234" fill="transparent" class="invisible-element-box grouping-element" data-element-name="isSecondaryText" d="M246 258h188v21H246z"/>
  <path data-element-id="element-id-45058" fill="transparent" class="invisible-element-box individual-element" d="M282 190h60v60h-60z"/>
  <path data-element-id="element-id-89013" fill="transparent" class="invisible-element-box individual-element" d="M396 192h53v57h-53z"/>
  <path data-element-id="element-id-57184" fill="transparent" class="invisible-element-box individual-element" d="M228 191h51v57h-51z"/>
  <path data-element-id="element-id-5405" fill="transparent" class="invisible-element-box individual-element" d="M346 191h51v57h-51z"/>
  <path data-element-id="element-id-17322" fill="transparent" class="invisible-element-box individual-element" d="M453 191h32v57h-32z"/>
  <path data-element-id="element-id-30122" fill="transparent" class="invisible-element-box individual-element" d="M285 263h12v17h-12z"/>
  <path data-element-id="element-id-2343" fill="transparent" class="invisible-element-box individual-element" d="M389 258h12v17h-12z"/>
  <path data-element-id="element-id-84974" fill="transparent" class="invisible-element-box individual-element" d="M246 259h12v16h-12z"/>
  <path data-element-id="element-id-79374" fill="transparent" class="invisible-element-box individual-element" d="M337 259h10v17h-10z"/>
  <path data-element-id="element-id-40852" fill="transparent" class="invisible-element-box individual-element" d="M264 263h13v13h-13z"/>
  <path data-element-id="element-id-55027" fill="transparent" class="invisible-element-box individual-element" d="M421 263h13v13h-13z"/>
  <path data-element-id="element-id-75941" fill="transparent" class="invisible-element-box individual-element" d="M307 263h10v13h-10z"/>
  <path data-element-id="element-id-61280" fill="transparent" class="invisible-element-box individual-element" d="M370 263h10v12h-10z"/>
  <path data-element-id="element-id-1416" fill="transparent" class="invisible-element-box individual-element" d="M355 261h6v15h-6z"/>
  <path data-element-id="element-id-7047" fill="transparent" class="invisible-element-box individual-element" d="M410 259h3v16h-3z"/>
</svg>