<svg xmlns="http://www.w3.org/2000/svg" xml:space="preserve" viewBox="0 0 680.17 680.17">  <defs>    <clipPath id="a" clipPathUnits="userSpaceOnUse">      <path d="M0 512h512V0H0Z" data-original="#000000"></path>    </clipPath>  </defs>  <g clip-path="url(#a)" transform="matrix(1.33333 0 0 -1.33333 0 682.667)" fill="none" stroke="#000" stroke-width="15" stroke-linecap="round" stroke-linejoin="round" stroke-miterlimit="10">    <path d="M0 0c-18.138 16.791-39.014 32.845-61.548 44.298a15 15 0 0 0-8.221 13.365v78.995c0 2.259 2.509 3.614 4.399 2.377l13.329-8.727c6.442-4.218 15.034-2.847 19.843 3.165l22.703 28.379c5.171 6.462 4.099 15.898-2.388 21.037l-33.97 26.906a85.1 85.1 0 0 1-52.842 18.393h-93.65a85.1 85.1 0 0 1-52.842-18.392l-33.97-26.907c-6.488-5.139-7.559-14.575-2.388-21.037l22.703-28.379c4.809-6.012 13.402-7.383 19.843-3.165l13.329 8.727c1.89 1.237 4.398-.118 4.398-2.377V57.663a15 15 0 0 0-8.22-13.365C-252.026 32.845-272.902 16.791-291.04 0c-31.002-28.7-10.763-80.515 31.485-80.515h228.07C10.763-80.515 31.003-28.7 0 0" style="stroke-width:15;stroke-linecap:round;stroke-linejoin:round;stroke-miterlimit:10;stroke-dasharray:none;stroke-opacity:1" transform="translate(401.52 142.015)" data-original="#000000"></path>    <path d="M0 0h-93.65c-.264 0-.525-.014-.788-.017 7.354-19.147 25.958-32.836 47.613-32.836S-6.566-19.164.788-.017C.525-.014.263 0 0 0" style="stroke-width:15;stroke-linecap:round;stroke-linejoin:round;stroke-miterlimit:10;stroke-dasharray:none;stroke-opacity:1" transform="translate(302.825 370.202)" data-original="#000000"></path>    <path d="M0 0c-10.806-1.438-22.05-3.033-32.879-4.731-18.662-2.928-32.838-12.662-42.986-22.924-10.634-10.753-2.926-29.014 12.196-29.014H8.598Z" style="stroke-width:15;stroke-linecap:round;stroke-linejoin:round;stroke-miterlimit:10;stroke-dasharray:none;stroke-opacity:1" transform="translate(264.037 118.169)" data-original="#000000"></path>    <path d="M0 0c-36.451 5.025-70.377 8.476-70.377 8.476" style="stroke-width:15;stroke-linecap:round;stroke-linejoin:round;stroke-miterlimit:10;stroke-dasharray:none;stroke-opacity:1" transform="translate(256 117.08)" data-original="#000000"></path>    <path d="M0 0s-33.926-3.45-70.377-8.476" style="stroke-width:15;stroke-linecap:round;stroke-linejoin:round;stroke-miterlimit:10;stroke-dasharray:none;stroke-opacity:1" transform="translate(326.377 125.556)" data-original="#000000"></path>    <path d="M0 0c-18.153 16.82-39.055 32.91-61.622 44.388a15.14 15.14 0 0 0-7.148 7.736 192.46 192.46 0 0 0-153.903-.371 15.16 15.16 0 0 0-6.998-7.365C-252.238 32.91-273.14 16.82-291.292 0c-30.929-28.657-10.553-80.397 31.611-80.397h228.069C10.552-80.397 30.928-28.657 0 0" style="stroke-width:15;stroke-linecap:round;stroke-linejoin:round;stroke-miterlimit:10;stroke-dasharray:none;stroke-opacity:1" transform="translate(401.647 141.897)" data-original="#000000"></path>    <path d="m0 0-82.524 11.928-3.656 2.863a14.85 14.85 0 0 0-3.125-7.344l-22.703-28.379a14.9 14.9 0 0 0-9.325-5.42l11.149-8.73a27.04 27.04 0 0 1 12.798-5.47L-7.735-53.51a27 27 0 0 1 3.902-.282c13.216 0 24.774 9.705 26.721 23.169C25.023-15.846 14.776-2.136 0 0" style="stroke-width:15;stroke-linecap:round;stroke-linejoin:round;stroke-miterlimit:10;stroke-dasharray:none;stroke-opacity:1" transform="translate(481.331 296.419)" data-original="#000000"></path>    <path d="m0 0 11.15 8.73a14.9 14.9 0 0 0-9.325 5.42l-22.703 28.379a14.85 14.85 0 0 0-3.125 7.344l-3.657-2.863-82.524-11.928c-14.775-2.136-25.023-15.846-22.887-30.623 1.946-13.465 13.503-23.169 26.721-23.169 1.287 0 2.591.093 3.902.282L-12.797-5.47A27.03 27.03 0 0 1 0 0" style="stroke-width:15;stroke-linecap:round;stroke-linejoin:round;stroke-miterlimit:10;stroke-dasharray:none;stroke-opacity:1" transform="translate(140.852 261.337)" data-original="#000000"></path>    <path d="M0 0h222.93c5.59 0 9.483 5.549 7.583 10.805l-33.882 93.697a16.76 16.76 0 0 1-15.758 11.059h-40.278C150.305 87.5 130.433 54 96.535 54h-228.069c-33.927 0-53.763 33.523-44.061 61.561h-40.277a16.76 16.76 0 0 1-15.759-11.059l-33.882-93.697C-267.413 5.549-263.52 0-257.93 0H-35" style="stroke-width:15;stroke-linecap:round;stroke-linejoin:round;stroke-miterlimit:10;stroke-dasharray:none;stroke-opacity:1" transform="translate(273.5 7.5)" data-original="#000000"></path>    <path d="M0 0c-7.179 19.487-25.969 33.482-47.869 33.482-28.041 0-50.983-22.942-50.983-50.982 0-28.041 22.942-50.982 50.983-50.982C-25.969-68.482-7.179-54.488 0-35" style="stroke-width:15;stroke-linecap:round;stroke-linejoin:round;stroke-miterlimit:10;stroke-dasharray:none;stroke-opacity:1" transform="translate(303.87 471.018)" data-original="#000000"></path>  </g></svg>