<svg xmlns="http://www.w3.org/2000/svg" xml:space="preserve" viewBox="6.69 6.01 498.62 499.99">  <path d="M57.353 250.869a6.477 6.477 0 0 0-6.477 6.477V457.99c-13.232.006-23.994 10.77-23.994 24.003s10.767 24.001 24.004 24.001h410.228c13.231 0 23.999-10.767 23.999-24.001 0-13.236-10.767-24.004-23.999-24.004h-.04V257.295c0-3.577-2.899-6.477-6.477-6.477s-6.477 2.899-6.477 6.477v200.694H63.829V257.346a6.476 6.476 0 0 0-6.476-6.477m414.806 231.124c0 6.092-4.954 11.048-11.046 11.048H50.886c-6.092 0-11.051-4.956-11.051-11.048 0-6.095 4.959-11.051 11.051-11.051h410.228c6.092.001 11.045 4.957 11.045 11.051m16.232-303.883-27.318-15.561V27.664c0-11.944-9.715-21.658-21.656-21.658h-43.575c-11.971 0-21.712 9.715-21.712 21.658v85.361l-90.049-51.293c-17.315-9.862-38.844-9.864-56.169.003L23.609 178.11c-16.055 9.148-21.681 29.661-12.533 45.72 9.173 16.099 29.616 21.703 45.72 12.536L256 122.895l199.204 113.471c16.25 9.256 36.634 3.412 45.72-12.536 9.148-16.06 3.522-36.572-12.533-45.72M387.084 27.664c0-4.799 3.931-8.705 8.758-8.705h43.575c4.797 0 8.703 3.906 8.703 8.705V155.17l-61.036-34.767zm102.587 189.755c-5.63 9.874-18.173 13.324-28.051 7.693L259.208 109.815a6.48 6.48 0 0 0-6.416 0L50.38 225.113c-9.875 5.628-22.418 2.186-28.051-7.693-5.611-9.854-2.161-22.44 7.696-28.057L234.324 72.99c13.378-7.62 29.989-7.612 43.347-.003l204.304 116.375c9.857 5.617 13.308 18.203 7.696 28.057" data-original="#000000"></path>  <path d="M255.954 406.774h.233c4.701 0 60.935-.772 96.728-36.514 25.84-25.896 33.385-62.906 35.586-82.695.577-5.434-1.295-10.762-5.146-14.613-3.856-3.853-9.153-5.735-14.658-5.151-15.61 1.739-43.536 7.056-67.37 23.142-5.449-28.041-21.189-51.352-31.331-64.015a17.85 17.85 0 0 0-13.99-6.732h-.005c-5.47 0-10.57 2.451-14 6.732-10.142 12.662-25.881 35.972-31.33 64.011-23.834-16.084-51.761-21.4-67.401-23.143a17.89 17.89 0 0 0-14.623 5.156c-3.851 3.851-5.723 9.178-5.141 14.643 2.196 19.758 9.74 56.768 35.591 82.674 35.788 35.735 92.022 36.504 96.718 36.504zm114.144-126.095c2.105-.228 3.461.799 4.093 1.429.627.63 1.65 1.996 1.432 4.055-2.009 18.074-8.824 51.845-31.867 74.938-22.023 21.986-53.857 29.172-72.507 31.538 12.673-16.135 32.019-46.581 32.019-82.095 0-1.633-.089-3.242-.169-4.854 22.486-17.686 51.428-23.277 66.999-25.011m-117.989-45.652c1.31-1.632 3-1.877 3.891-1.877s2.581.245 3.886 1.875c11.364 14.19 30.43 42.872 30.43 75.52 0 36.524-24.064 68.287-34.321 80.165-10.266-11.855-34.316-43.542-34.316-80.165 0-32.649 19.066-61.33 30.43-75.518m-115.728 51.167a4.94 4.94 0 0 1 1.427-4.086c.632-.627 2.019-1.644 4.058-1.434 15.604 1.739 44.545 7.329 67.03 25.013-.081 1.613-.169 3.224-.169 4.858 0 35.53 19.365 65.988 32.039 82.118-18.626-2.343-50.434-9.505-72.513-31.55-23.052-23.104-29.868-56.875-31.872-74.919" data-original="#000000"></path></svg>