<svg xmlns="http://www.w3.org/2000/svg" xml:space="preserve" viewBox="0 21.97 512 468.06">  <path d="M503.284 241.523c-30.681-1.073-60.701 3.437-88.907 13.074-.561-30.125-6.613-59.657-18.053-87.969a9.03 9.03 0 0 0-11.757-4.99c-17.868 7.219-34.602 16.337-50.073 27.239-18.572-36.63-42.787-70.01-72.119-99.331-3.528-3.526-9.244-3.526-12.769.001-29.345 29.345-53.558 62.72-72.116 99.316-15.462-10.895-32.189-20.009-50.052-27.225a9.03 9.03 0 0 0-11.756 4.99c-11.459 28.358-17.514 57.939-18.059 88.115-27.821-9.561-57.802-14.304-88.907-13.22a9.03 9.03 0 0 0-8.71 9.34c4.667 133.635 114.858 239.166 247.549 239.166 2.801 0 5.626-.051 8.446-.144 2.827.095 5.639.144 8.447.144 132.679 0 242.882-105.538 247.548-239.166a9.033 9.033 0 0 0-8.712-9.34m-374.141-59.522c25.446 11.455 48.25 27.185 67.891 46.848 21.086 21.074 37.623 45.703 49.224 73.233-7.739 19.991-12.816 40.654-15.183 61.733-26.621-45.203-67.137-81.123-115.419-102.079-.296-27.226 4.23-53.981 13.487-79.735M18.56 259.432c57.953.248 112.867 21.972 155.494 61.724 42.63 39.753 68.133 93.01 72.42 150.81-119.468-.562-219.021-93.396-227.914-212.534m191.246-43.353a247 247 0 0 0-17.714-16.083c16.541-33.356 37.993-63.953 63.901-91.137 25.894 27.165 47.344 57.764 63.898 91.151a247 247 0 0 0-17.699 16.065 246.1 246.1 0 0 0-46.193 63.998c-11.873-23.694-27.349-45.162-46.193-63.994m46.158 206.13a246 246 0 0 0-8.296-24.517 202 202 0 0 1-.089-6.204c0-29.597 5.65-58.577 16.791-86.138 11.67-28.877 28.691-54.616 50.594-76.505 19.65-19.662 42.457-35.391 67.901-46.844 9.235 25.698 13.759 52.392 13.485 79.556-25.721 11.127-49.616 26.708-70.719 46.388-33.782 31.501-57.577 70.872-69.667 114.264m9.563 49.756c4.288-57.799 29.788-111.056 72.419-150.81s97.536-61.479 155.495-61.724c-8.895 119.146-108.436 211.984-227.914 212.534" data-original="#000000"></path>  <circle cx="14.088" cy="206.106" r="9.031" data-original="#000000"></circle>  <circle cx="124.058" cy="105.841" r="9.031" data-original="#000000"></circle>  <circle cx="255.992" cy="31.002" r="9.031" data-original="#000000"></circle>  <circle cx="387.949" cy="105.841" r="9.031" data-original="#000000"></circle>  <circle cx="497.896" cy="206.106" r="9.031" data-original="#000000"></circle></svg>