<svg xmlns="http://www.w3.org/2000/svg" xml:space="preserve" viewBox="33.86 13.57 461.68 483.65">  <path d="M484.51 497.21h.034a11.01 11.01 0 0 0 10.024-6.473 11.01 11.01 0 0 0-1.8-11.825l-29.505-33.23c-7.768-9.128-20.746-11.946-31.604-6.849a26.75 26.75 0 0 0-9.804 7.885l-2.346 3.053-14.721 2.63-49.193-13.862a102.7 102.7 0 0 0-53.728-.52l-4.02 1.048-45.51-47.855a66.27 66.27 0 0 0-19.514-40.013l-7.07-6.926c-4.81-24.924 2.001-51.138 18.444-70.556l4.537-5.359c7.13-7.798 11.64-17.794 12.708-28.382l7.59 1.142-.654 2.515a55.36 55.36 0 0 0-.753 24.4c3.71 19.004 17.35 34.837 35.597 41.32l4.087 1.45a8 8 0 0 0 8.138-1.692 8 8 0 0 0 2.242-8.004l-4.672-16.684a32.66 32.66 0 0 1 4.49-27.284c7.198-10.541 7.797-24.008 1.563-35.147l-1.763-3.15a34.8 34.8 0 0 0 2.28-12.367c0-13.171-7.642-25.43-19.468-31.23l-5.09-2.497-8.767-5.18-10.435-10.91 8.245-10.379a50.5 50.5 0 0 0 9.415-19.178l16.357-50.897 15.942-11.544a8 8 0 0 0 3.055-4.482l7.627-29.581a7.996 7.996 0 0 0-6.117-9.83l-33.806-7.032a7.99 7.99 0 0 0-8.862 4.411l-16.406 34.69-43.167 76.57a61.1 61.1 0 0 0-6.866 18.893l-9.8 52.729-35.487 10.48c-16.338 4.826-27.126 20.647-25.65 37.62l1.131 13.012-1.026 5.011c-4.817 23.52-4.888 48.15-.283 71.743L92.407 319.89a37.2 37.2 0 0 0-25.052.664l-.436.169c-17.726 6.901-27.686 25.382-23.68 43.943 6.012 27.86 15.21 70.724 18.527 86.195l-18.608 10.225a17.845 17.845 0 0 0-8.272 21.63l.068.194c2.56 7.277 9.43 12.152 17.109 12.152h.07c7.814-.028 20.491-.036 30.19-.038a33.06 33.06 0 0 0 27.692-14.94l.15-.227c4.323-6.572 6.238-14.477 5.39-22.257-1.513-13.892-4.397-40.435-6.283-57.789a445 445 0 0 0 43.059 23.471l7.828 3.72 99.918 59.828a64.06 64.06 0 0 0 32.27 9.089l192.164 1.293zm-59.138-32.233a8 8 0 0 0 4.938-3l4.233-5.512a10.7 10.7 0 0 1 3.915-3.149 10.654 10.654 0 0 1 12.648 2.77l.132.151 22.144 24.94-61.992-.184.673-13.638 13.31-2.377zM165.128 275.501l46.108 28.579c-2.953 11.9-3.759 24.332-2.238 36.627l-41.703 1.92c-5.244-21.864-5.974-44.948-2.167-67.126m139.167-27.386a48.62 48.62 0 0 0-6.86 39.976c-7.198-5.714-12.304-13.892-14.107-23.125a39.3 39.3 0 0 1 .534-17.305l1.276-4.905a34.73 34.73 0 0 0 20.657-8.443l.87-.753c1.404 4.901.6 10.206-2.37 14.555m-16.454-40.988 7.259-16.349c5.216 3.44 8.486 9.37 8.486 15.697a18.78 18.78 0 0 1-6.472 14.188l-1.805 1.566a18.76 18.76 0 0 1-15.107 4.39l-17.445-2.625.688-8.525 18.659-3.745a8 8 0 0 0 5.737-4.597m-6.819-24.07-6.125 13.794-10.113 2.03 2.279-28.237 8.399 8.78a8 8 0 0 0 1.711 1.358zm-44.047-31.833a45.2 45.2 0 0 1 5.073-13.961l43.307-76.819q.14-.25.263-.508l13.836-29.253 19.427 4.04-4.813 18.669-15.73 11.39a8 8 0 0 0-2.925 4.032s-17.363 54.054-17.41 54.25a34.3 34.3 0 0 1-6.46 13.264l-18.258 22.987a8 8 0 0 0-1.71 4.332l-5.979 74.082c-.576 7.14-3.489 13.913-8.159 19.258-.14.142-2.86 2.955-4.066 3.933-5.562 4.509-13.465 5.133-19.666 1.555a17.47 17.47 0 0 1-8.717-15.109l.003-3.818a17.5 17.5 0 0 1 3.674-10.692s16.127-20.732 16.163-20.78c.121-.165 12.147-60.853 12.147-60.853zm-56.485 75.628 17.21-6.785c-4.542 5.835-8.705 16.08-8.71 23.47l-.002 3.816c-.01 11.92 6.397 23.025 16.721 28.982a33.2 33.2 0 0 0 14.513 4.363 101 101 0 0 0-3.747 7.804l-49.343-30.584-.885-10.177c-.82-9.424 5.17-18.209 14.243-20.889M96.643 471.298a17.1 17.1 0 0 1-14.323 7.725c-9.716.002-22.417.01-30.247.038h-.009c-.913 0-1.704-.573-2.015-1.456l-.068-.193a1.9 1.9 0 0 1 .881-2.304l22.18-12.186 26.684-1.073a17.94 17.94 0 0 1-2.934 9.221l-.148.228zm171.654 1.804s-100.692-60.278-100.923-60.387l-8.175-3.885a428.5 428.5 0 0 1-52.417-29.61l-2.86-1.892a8 8 0 0 0-8.577-.16 8 8 0 0 0-3.79 7.696s3.937 36.256 6.633 61.035l-20.941.842c-3.449-16.078-12.45-58.03-18.369-85.451-2.337-10.834 3.486-21.625 13.838-25.655l.436-.17a21.14 21.14 0 0 1 14.252-.38s72.329 23.72 72.47 23.741c.098.015 55.428-2.392 55.428-2.392l6.326 6.196a50.3 50.3 0 0 1 15.01 32.61 8 8 0 0 0 2.184 4.978l50.682 53.295a8 8 0 0 0 7.818 2.227l8.585-2.24a86.7 86.7 0 0 1 45.348.44l44.827 12.631-.706 14.324-102.876-.977a48.05 48.05 0 0 1-24.203-6.815z" data-original="#000000"></path></svg>