<svg xmlns="http://www.w3.org/2000/svg" xmlns:xlink="http://www.w3.org/1999/xlink" x="0" y="0" style="enable-background:new 0 0 512 512" xml:space="preserve" class="" viewBox="21.79 5.7 212.42 247.39"><g><path d="M22.891 209.664a1.996 1.996 0 0 0 1.501.297l16.246-3.249C35.524 209.841 28 215.395 28 221c0 6.214 4.931 8.604 11.757 11.913 2.721 1.319 5.806 2.814 9.235 4.815 4.281 2.497 13.571 3.065 25.432 2.534a6.78 6.78 0 0 0-3.417 7.488c.705 3.172 3.539 5.345 6.667 5.345.474 0 .956-.05 1.438-.154l32.063-6.933c3.94.153 52.166 1.992 79.825 1.992 30.058 0 38-17.007 38-26 0-3.57-2.509-7.349-7.457-11.229a43.207 43.207 0 0 0-6.271-4.077l16.335 3.267a2.001 2.001 0 0 0 2.353-1.568c1.324-6.619-2.718-13.271-9.203-15.144l-12.241-3.536-27.985-26.208a8.027 8.027 0 0 1-2.532-5.839v-43.851c0-5.25-2.781-9.982-7.257-12.35-2.343-1.239-4.749-1.681-7.322-1.356l.013-.059L142 94.396v-9.448c8.211-7.826 13.709-21.572 13.709-33.653 0-10.179-4.095-19.262-10.466-25.163.206-.857.406-1.798.406-2.781 0-9.732-7.917-17.649-17.649-17.649s-17.649 7.917-17.649 17.649c0 1.065.225 1.952.447 2.744-6.395 5.9-10.507 15-10.507 25.201 0 12.081 5.498 25.827 13.709 33.653v9.448l-25.434 5.652.013.06c-2.573-.325-4.979.117-7.322 1.356-4.476 2.366-7.257 7.098-7.257 12.348v43.854c0 2.203-.921 4.33-2.528 5.836L42.995 190.2l-11.682 3.186c-6.527 1.78-10.6 8.371-9.273 15.005.103.521.409.979.851 1.273zm73.245-43.278c.257-.543.482-1.098.697-1.656l1.191 7.581c.097.615.468 1.126.976 1.42v15.472l-45.801 12.722c.51-.372 1.011-.757 1.492-1.169l2.433-2.085 24.185-12.482a24.133 24.133 0 0 0 10.682-11.053zM153 189h-50v-15h50zm-84.065 47.435C67.54 234.742 64 229.956 64 225c0-4.938 2.241-9.415 3.211-11.122l16.716-1.857 51.64 9.563a5.998 5.998 0 0 0 5.335-1.657l5.129-5.129a2.035 2.035 0 0 1 1.663-.57l14.059 1.757c.054.007.107.011.161.014l19.67.855a1.48 1.48 0 0 1 1.417 1.48c0 .67-.45 1.258-1.093 1.43-6.589 1.754-29.174 7.607-43.141 9.25-2.846.335-6.935.898-11.668 1.551-14.753 2.034-40.365 5.563-58.164 5.87zm42.144 5.566a2.01 2.01 0 0 0-.501.044l-32.31 6.986a2.831 2.831 0 0 1-3.355-2.148 2.81 2.81 0 0 1 1.907-3.307l14.503-4.58c11.534-1.131 24.136-2.788 36.322-4.468 4.712-.649 8.782-1.211 11.589-1.541 12.018-1.414 29.677-5.714 39.706-8.309 1.567 1.259 5.31 4.686 5.31 8.698 0 4.286-2.54 8.755-3.686 10.555-29.015-.353-69.034-1.912-69.485-1.93zM225 222c0 7.609-7.106 22-34 22-1.856 0-3.807-.008-5.83-.024 1.413-2.631 3.08-6.579 3.08-10.601 0-4.241-2.557-7.736-4.738-9.953a5.464 5.464 0 0 0 3.109-3.122c1.866-.745 5.341-1.905 7.796-1.802l.166-3.996c-2.714-.111-5.938.817-8.081 1.576a5.46 5.46 0 0 0-4.745-3.221l-19.589-.852-13.978-1.747a5.966 5.966 0 0 0-4.987 1.711l-5.129 5.129a1.996 1.996 0 0 1-1.778.552l-51.931-9.617a2.049 2.049 0 0 0-.585-.021l-27 3 .441 3.976 5.237-.582c-.097.222-.196.447-.299.692C61.174 217.434 60 221.048 60 225c0 4.482 2.132 8.657 3.969 11.43-5.953-.136-10.591-.774-12.962-2.157-3.563-2.078-6.72-3.609-9.506-4.959C34.743 226.037 32 224.565 32 221c0-3.932 8.551-10.002 14.724-13.125L100.272 193h55.452l47.785 13.439c5.874 1.468 11.11 3.985 15.565 7.479 3.822 2.997 5.926 5.867 5.926 8.082zm-20.464-19.427L157 189.204V173.73c.508-.294.879-.805.976-1.42l1.191-7.581c.215.558.44 1.113.697 1.656l4.013 8.472a24.09 24.09 0 0 0 11.219 11.321l25.652 12.437a24.128 24.128 0 0 0 4.828 4.245c-.347-.094-.689-.199-1.04-.287zm-31.663-97.574c3.163 1.673 5.127 5.051 5.127 8.814v43.851c0 3.307 1.384 6.499 3.797 8.759l28.335 26.537c.23.216.509.374.812.461l12.703 3.669c3.846 1.111 6.455 4.642 6.562 8.512l-15.159-3.032a20.192 20.192 0 0 1-11.514-6.851 2.004 2.004 0 0 0-.664-.52l-26.031-12.621a20.067 20.067 0 0 1-9.349-9.434l-4.013-8.471a19.954 19.954 0 0 1-1.843-6.745l-1.615-17.708 8.558-36.21c1.499-.074 2.889.245 4.294.989zM128 9.7c7.511 0 13.622 6.099 13.647 13.604-4.032-2.662-8.687-4.19-13.647-4.19s-9.615 1.529-13.647 4.19C114.378 15.799 120.489 9.7 128 9.7zm0 13.414c11.653 0 21.363 10.047 23.336 23.234-4.994-8.469-13.604-13.821-23.336-13.821-9.802 0-18.502 5.728-23.465 14.752C106.18 33.636 116.074 23.114 128 23.114zm-23.115 34.795C107.435 45.5 117.099 36.527 128 36.527c11.236 0 20.742 8.479 23.236 20.654C148.993 71.731 139.033 87.3 128 87.3c-10.849 0-20.658-15.055-23.115-29.391zM128 91.3c3.531 0 6.9-1.169 10-3.172V105c0 5.514-4.486 10-10 10s-10-4.486-10-10V88.127c3.1 2.004 6.469 3.173 10 3.173zm0 27.7c7.72 0 14-6.28 14-14v-6.507l22.587 5.019-8.534 36.105a1.98 1.98 0 0 0-.045.642l1.085 11.899L154.29 170h-52.58l-2.804-17.843 1.085-11.899c.02-.215.004-.432-.045-.642l-8.534-36.105L114 98.493V105c0 7.72 6.28 14 14 14zm-95.635 78.247 12.161-3.317a2 2 0 0 0 .841-.471l28.839-27.037a12.039 12.039 0 0 0 3.793-8.754v-43.854c0-3.764 1.965-7.142 5.127-8.815 1.27-.671 2.526-1 3.862-1 .143 0 .286.004.431.011l8.558 36.21-1.615 17.708a19.93 19.93 0 0 1-1.843 6.745l-4.145 8.75a20.11 20.11 0 0 1-8.902 9.21L55.08 195.222a1.96 1.96 0 0 0-.384.259l-2.61 2.237a20.17 20.17 0 0 1-9.15 4.455l-17.146 3.429c.118-3.84 2.73-7.307 6.575-8.355z" opacity="1" data-original="#000000" class=""></path></g></svg>