<svg xmlns="http://www.w3.org/2000/svg" xmlns:xlink="http://www.w3.org/1999/xlink" x="0" y="0" style="enable-background:new 0 0 512 512" xml:space="preserve" class="" viewBox="2.87 4 249.14 247"><g><path d="M250.102 92.869a4.908 4.908 0 0 0-4.234-.898l-20.142 5.036-35.651.99-28.807-2.979-13.755-1.866 5.379-6.618c2.36.885 5.293 1.69 8.173 1.69 1.868 0 3.711-.339 5.355-1.215 2.488-1.326 3.763-5.448 4.31-7.85l3.28-.818a2 2 0 0 0 1.456-2.425l-1.383-5.543c.012-1.423.047-8.139-.333-11.963-.384-3.866-3.077-8.125-6.404-10.127-4.651-2.8-10.578-3.706-15.495-2.45-2.172-3.76-6.553-5.765-10.727-4.657-5.169 1.37-8.261 6.689-6.892 11.857.759 2.868 2.512 5.178 4.758 6.441-.293 1.128-.473 2.261-.497 3.371-.082 3.864.255 8.581 1.803 12.556l-2.613 2.09-3.04-3.351c-.13-.299-.274-.594-.434-.882a24.93 24.93 0 0 0-10.69-10.235L98.066 50.297l-12.912-9.93-21.71-15.343-.037-.183a4.662 4.662 0 0 1 .399-2.982l2.453-4.905a8.616 8.616 0 0 0 .859-2.908l.488-4.391A5.094 5.094 0 0 0 62.546 4a5.118 5.118 0 0 0-4.074 2.036l-5.732 7.643-.975-.835a3.007 3.007 0 0 0-4.106.188l-6.673 6.883a2.99 2.99 0 0 0-.014 4.164l2.225 2.324-4.729 6.306C28.142 43.644 4.23 69.067 3.211 71.105c-.623 1.246-.772 3.389 2.846 9.832a12.341 12.341 0 0 0 3.512 3.952l45.564 33.225c.696 5.063 4.298 30.348 8.01 39.629 3.778 9.445 1.883 32.855 1.863 33.104l-.216 2.812a62.474 62.474 0 0 0 1.877 20.733l.404 1.535a58.63 58.63 0 0 1 1.93 14.914v13.038c0 1.902.741 3.691 2.086 5.036S74.22 251 76.121 251h29.182a3.7 3.7 0 0 0 3.697-3.696c0-1.672-1.128-3.141-2.806-3.588l-11.712-2.727a12.453 12.453 0 0 1-5.993-3.329l-.701-.7a12.53 12.53 0 0 1-3.651-9.099L85 189v-47.636c0-3.296 1.197-6.401 3.365-8.845l11.107.237c.114.002.228.003.345.003 7.696 0 21.19-5.219 22.788-5.847 8.205-1.978 16.532-4.669 20.993-13.157.058.014.113.034.172.047a61.162 61.162 0 0 0 20.433.989l15.019-1.803 27.043-3.005 14.744-1.966 7.744.968c.393.051.79-.02 1.143-.195l9.823-4.911 8.647-2.358a4.947 4.947 0 0 0 3.636-4.761 4.914 4.914 0 0 0-1.9-3.891zm-81.564-17.284a1.997 1.997 0 0 0-1.485 1.595c-.494 2.813-1.715 5.875-2.513 6.3-3.819 2.039-10.382-.667-12.305-1.544-1.99-.91-3.899-2.486-5.666-4.054-1.481-1.314-2.58-3.442-3.264-6.221 9.593-8.087 22.145-8.995 26.692-9.039.13 3.777.086 7.909.085 7.965-.002.171.018.342.06.508l.96 3.851zm-3.253-23.873c2.201 1.324 4.118 4.321 4.452 6.899-4.947.045-16.98 1.003-27.133 8.506a42.257 42.257 0 0 1-.111-4.187c.11-5.169 4.474-11.208 9.338-12.924 4.069-1.434 9.35-.765 13.454 1.706zm-27.186.299a5.706 5.706 0 0 1 4.05-6.967c2.233-.595 4.584.395 5.939 2.319-3.15 1.831-5.9 4.891-7.642 8.311-1.076-.792-1.928-2.082-2.347-3.663zm4.119 26.976a11.838 11.838 0 0 0 1.697 1.887c1.601 1.42 3.327 2.849 5.217 3.944l-3.594 4.422a31.433 31.433 0 0 0-.693-1.928c-.918-2.292-2.301-4.464-4.109-6.456l-.359-.396zM95.781 53.585c.102.078.21.146.325.204l25.625 12.813a20.943 20.943 0 0 1 8.983 8.601 6 6 0 0 1 .578 4.386 6.052 6.052 0 0 1-4.663 4.447l-1.102.221a6.067 6.067 0 0 1-5.184-1.405l-6.062-5.387L90.26 57.447 63.102 35.408a8.586 8.586 0 0 0 1.313-4.801l18.366 12.978zm-5.176 54.436a79.26 79.26 0 0 0 3.921 16.158l1.61 4.503-7.432-.158C87.378 125.988 84 118.943 84 113c0-5.523 1.535-10.606 2.347-12.911.911.054 2.027.116 3.221.17zm-4.918-11.982-5.165-3.615a22.744 22.744 0 0 0-10.625-3.973l-9.54-1.004a18.575 18.575 0 0 1-7.048-2.211l-23.684-13.04c1.734-1.491 3.718-3.408 5.88-5.879 5.104-5.834 11.14-17.642 14.283-24.16a4.63 4.63 0 0 1 4.744-2.574 8.551 8.551 0 0 0 5.748-1.313l27.44 22.267 23.952 19.959 1.337 1.188-8.426 10.139a12.988 12.988 0 0 1-6.948 4.458c-1.048.259-6.897.08-11.948-.242zM49.876 16.492l2 1.714-1.366 5.284-2.829 1.813-3.154-3.294zm-8.422 18.881c.052-.055.101-.112.146-.173l4.495-5.994c.445.242.936.38 1.436.38a2.98 2.98 0 0 0 1.616-.473l3.857-2.472a2.994 2.994 0 0 0 1.28-1.771l1.62-6.266a3.013 3.013 0 0 0-.254-2.14l6.021-8.029c.206-.272.533-.435.875-.435.425 0 .692.228.813.363s.318.427.271.85l-.488 4.391a4.648 4.648 0 0 1-.461 1.561l-2.453 4.905a8.684 8.684 0 0 0-.744 5.556l.857 4.285a4.626 4.626 0 0 1-1.266 4.185l-.197.196a4.606 4.606 0 0 1-3.851 1.322 8.608 8.608 0 0 0-8.843 4.806c-3.055 6.337-8.896 17.784-13.691 23.264a63.184 63.184 0 0 1-1.724 1.884 29.973 29.973 0 0 0-13.797-4.017c7.365-7.978 17.214-18.483 24.482-26.178zM84.96 239.789l.701.7a16.451 16.451 0 0 0 7.914 4.396l9.087 2.114H76.121a3.142 3.142 0 0 1-2.207-.915 3.099 3.099 0 0 1-.914-2.206V230.84c0-5.376-.693-10.736-2.062-15.932l-.404-1.535a58.51 58.51 0 0 1-1.757-19.409l.202-2.624h11.968l-.81 36.432a16.562 16.562 0 0 0 4.823 12.017zM81 141.364v45.977H69.243c.391-7.3.795-23.129-2.386-31.084-3.862-9.654-7.835-39.224-7.875-39.521a2.005 2.005 0 0 0-.804-1.352L11.925 81.657a8.353 8.353 0 0 1-2.381-2.679c-2.03-3.615-2.623-5.529-2.674-6.178.676-.899 3.072-3.583 6.423-7.248l1.89-.04c4.413-.089 8.722.94 12.601 2.973-3.947 3.55-6.505 4.647-6.539 4.661L22 75l.743 1.857c.106-.043 1.373-.571 3.44-1.991L51.381 88.74a22.555 22.555 0 0 0 8.558 2.686l9.54 1.004a18.724 18.724 0 0 1 8.75 3.271l4.347 3.043C81.659 101.325 80 106.85 80 113c0 6.729 3.517 14.229 5.063 17.2A17.229 17.229 0 0 0 81 141.364zm40.533-18.308a1.879 1.879 0 0 0-.273.086c-.139.056-13.493 5.316-20.853 5.602l-2.114-5.911a75.292 75.292 0 0 1-3.723-15.34l-.949-7.102c.419.007.83.011 1.225.011 1.658 0 3.054-.064 3.758-.24 3.57-.894 6.802-2.967 9.077-5.812l8.318-10.008 1.686 1.499a10.082 10.082 0 0 0 8.626 2.337l1.102-.221a10.066 10.066 0 0 0 7.731-7.313l2.631 2.899c1.487 1.639 2.617 3.407 3.358 5.256a28.019 28.019 0 0 1-.765 22.52c-3.629 7.535-10.98 9.851-18.835 11.737zM247.311 97.66l-8.837 2.41c-.127.035-.25.082-.368.141l-9.458 4.729-7.399-.925a1.95 1.95 0 0 0-.512.002l-14.957 1.995-27.018 3.002-15.036 1.805a57.188 57.188 0 0 1-18.483-.802 32.06 32.06 0 0 0 1.817-12.889l13.735 1.862 29 3c.087.009.174.015.261.01l36-1c.145-.004.289-.023.43-.059l20.353-5.089a.92.92 0 0 1 .802.17c.135.105.36.34.36.737a.939.939 0 0 1-.69.901z" opacity="1" data-original="#000000" class=""></path></g></svg>