<svg xmlns="http://www.w3.org/2000/svg" xmlns:xlink="http://www.w3.org/1999/xlink" x="0px" y="0px" style="enable-background:new 0 0 50 50;" xml:space="preserve" viewBox="0 2.8 50 45.2"><g>	<path d="M24.9,2.8c-0.3,0-1.7,3.4-1.3,5.5c0.2,1.3-1.2,2.5-2.3,3.8c-2.1,2.6-5.7,5.4-6.1,8.5c-0.4,6.8,8.9,11.2,9.7,20.1  c0.8-8.8,10.1-13.3,9.8-20.1c-0.4-3.2-4-6-6.1-8.5c-1-1.3-2.5-2.5-2.3-3.8C26.8,5.9,25,1.8,25,3.1C25,2.9,25,2.8,24.9,2.8z M25,11  c3.7,4.8,7.1,7.7,6.6,9.9c-0.6,2.6-2.8,4.7-4.5,6.6c-0.4-0.4-0.5-1.2-0.2-1.8c3.1-3,1.6-5.7-0.1-6.8c-1.1-0.6-2.5-0.6-3.4,0  c-1.7,1-3.3,3.8-0.1,6.8c0.3,0.5,0.2,1.4-0.2,1.8c-1.7-1.8-3.9-4-4.5-6.6C17.9,18.7,21.3,15.7,25,11L25,11z"></path>	<g>		<path d="M7.4,29.9c-2-1-4.1-1.8-6.4-2.4C4.9,38.1,13.3,43.7,23.8,47c-0.3-0.7-0.7-1.3-1.1-2C15.6,41.8,10.1,37.2,7.4,29.9   L7.4,29.9z"></path>		<path d="M25,48l-1.4-0.4C11.6,43.9,4,37.4,0.4,27.8L0,26.6l1.2,0.3c1.8,0.5,3.5,1,5.1,1.8l-0.7-2l4.3,5.2l-1.2-0.6   c2.6,5.7,7.3,10,14.3,13.2l0.2,0.1l0.1,0.2c0.4,0.7,0.7,1.3,1.1,2L25,48z M2.1,28.5c3.5,8.3,10,13.9,20.4,17.4   c-0.1-0.1-0.1-0.3-0.2-0.4C14.4,41.9,9.4,37,6.9,30.4C5.4,29.6,3.8,29,2.1,28.5z"></path>	</g>	<g>		<path d="M24.2,43.1c-0.5-0.3-1.1-0.6-1.6-0.8c-0.9-0.5-1.8-1-2.6-1.5c-3.6-2.3-6.6-5.1-8.7-8.6c-0.6-1-1.2-2.1-1.7-3.2   c-0.6-1.5-1.1-3.1-1.5-4.8C15.8,27.5,21.2,33.8,24.2,43.1z"></path>		<path d="M25.1,44.1l-1.1-0.6c-0.6-0.3-1.1-0.6-1.6-0.8c-0.9-0.5-1.8-1-2.6-1.6c-3.9-2.5-6.8-5.4-8.9-8.8c-0.7-1.1-1.2-2.2-1.7-3.3   c-0.6-1.5-1.1-3.2-1.5-4.9l-0.2-1l0.9,0.4c7.9,3.5,13.4,10,16.4,19.3L25.1,44.1z M8.8,25c0.3,1.3,0.7,2.5,1.2,3.7   c0.5,1.1,1,2.1,1.6,3.2c2,3.2,4.8,6,8.6,8.4c0.8,0.5,1.7,1,2.6,1.5c0.1,0.1,0.3,0.2,0.4,0.2C20.4,34,15.5,28.3,8.8,25z"></path>	</g>	<g>		<path d="M42.6,29.9c-2.7,7.3-8.2,11.9-15.3,15.1c-0.4,0.6-0.7,1.3-1.1,2C36.7,43.7,45,38.1,49,27.5C46.7,28.1,44.6,28.9,42.6,29.9   L42.6,29.9z"></path>		<path d="M25,48l0.7-1.3c0.4-0.7,0.7-1.4,1.1-2l0.1-0.2l0.2-0.1c7.7-3.5,12.6-8.3,14.9-14.7l1.2-3.4v2.6c1.8-0.8,3.6-1.5,5.6-2   l1.2-0.3l-0.4,1.2C46,37.4,38.4,43.9,26.4,47.6L25,48z M27.8,45.5c-0.1,0.1-0.1,0.3-0.2,0.4c10.4-3.5,16.9-9.1,20.4-17.4   c-1.7,0.5-3.3,1.1-4.8,1.9C40.6,37,35.6,41.9,27.8,45.5z"></path>	</g>	<g>		<path d="M41.9,24.1c-0.3,1.7-0.8,3.3-1.5,4.8c-0.5,1.1-1,2.2-1.7,3.2c-2.2,3.5-5.2,6.3-8.8,8.6c-0.8,0.5-1.7,1.1-2.6,1.5   c-0.5,0.3-1.1,0.6-1.6,0.8C28.8,33.8,34.2,27.5,41.9,24.1z"></path>		<path d="M24.9,44.1l0.4-1.2c3-9.3,8.5-15.9,16.4-19.3l0.9-0.4l-0.2,1c-0.3,1.7-0.8,3.4-1.5,4.9c-0.5,1.1-1,2.2-1.7,3.3   c-2.1,3.4-5,6.2-8.9,8.8c-0.9,0.5-1.7,1.1-2.6,1.6c-0.5,0.3-1.1,0.6-1.6,0.8L24.9,44.1z M41.2,25c-6.7,3.3-11.5,9-14.4,17   c0.1-0.1,0.3-0.1,0.4-0.2c0.9-0.5,1.7-1,2.6-1.5c3.8-2.4,6.6-5.2,8.6-8.4c0.6-1,1.2-2.1,1.6-3.2C40.5,27.5,40.9,26.3,41.2,25z"></path>	</g></g></svg>