<svg xmlns="http://www.w3.org/2000/svg" viewBox="0 0 1163.2 18.2" stroke="#000">
  <path fill="none" stroke-width="2" stroke-miterlimit="10" d="M.5 7.1s15.3-14.9 36.3 0 36.3 0 36.3 0 15.3-14.9 36.3 0 36.3 0 36.3 0S161-7.8 182 7.1s36.3 0 36.3 0 15.3-14.9 36.3 0 36.3 0 36.3 0 15.3-14.9 36.3 0c21.1 14.9 36.3 0 36.3 0s15.3-14.9 36.3 0c21.1 14.9 36.3 0 36.3 0s15.3-14.9 36.3 0c21.1 14.9 36.3 0 36.3 0S524-7.8 545 7.1c21.1 14.9 36.3 0 36.3 0s15.3-14.9 36.3 0 36.3 0 36.3 0 15.3-14.9 36.3 0c21.1 14.9 36.3 0 36.3 0s15.3-14.9 36.3 0 36.3 0 36.3 0 15.3-14.9 36.3 0c21.1 14.9 36.3 0 36.3 0S887-7.8 908 7.1c21.1 14.9 36.3 0 36.3 0s15.3-14.9 36.3 0c21.1 14.9 36.3 0 36.3 0s15.3-14.9 36.3 0c21.1 14.9 36.3 0 36.3 0s15.3-14.9 36.3 0 36.3 0 36.3 0"/>
  <path fill="none" stroke-width="2" stroke-miterlimit="10" d="M1162.7 7.1s-15.3-14.9-36.3 0-36.3 0-36.3 0-15.3-14.9-36.3 0c-21.1 14.9-36.3 0-36.3 0s-15.3-14.9-36.3 0c-21.1 14.9-36.3 0-36.3 0s-15.3-14.9-36.3 0c-21.1 14.9-36.3 0-36.3 0S857-7.8 836 7.1c-21.1 14.9-36.3 0-36.3 0s-15.3-14.9-36.3 0-36.3 0-36.3 0-15.3-14.9-36.3 0c-21.1 14.9-36.3 0-36.3 0s-15.3-14.9-36.3 0-36.3 0-36.3 0-15.3-14.9-36.3 0c-21.1 14.9-36.3 0-36.3 0S494-7.8 473 7.1c-21.1 14.9-36.3 0-36.3 0s-15.3-14.9-36.3 0c-21.1 14.9-36.3 0-36.3 0s-15.3-14.9-36.3 0c-21.1 14.9-36.3 0-36.3 0s-15.3-14.9-36.3 0-36.3 0-36.3 0-15.3-14.9-36.3 0-36.3 0-36.3 0S131-7.8 110 7.1s-36.3 0-36.3 0-15.3-14.9-36.3 0-36.3 0-36.3 0"/>
</svg>
