<svg xmlns="http://www.w3.org/2000/svg" viewBox="0 0 629.3 60.8" stroke="#000">
  <path fill="none" stroke-miterlimit="10" stroke-width="2" d="M60.3 31s111.8-7.5 150.6-5c0 0 25.2 2.4 22.5-21.7 0 0-24.1-5-21.2 21.7 0 0-3.7 24.3 21.2 21.7 0 0 5-22.7-21.2-21.7 0 0 13.8 20 29.8.5 0 0-13.3-19.9-29.8-.5l29.8.5s100.6 3.6 196.6 15.9c96.8 12.4 154.8-.9 190.6-9.9M30.4 30.4s-8.3-4-8.6-14.9S30.4.6 30.4.6 39.1 5 39 15.5C39 26 26.6 39 15.5 39 4.4 39.1.6 30.4.6 30.4s4.5-8.7 14.9-8.6S38.8 34.4 39 45.3c.2 11-8.6 14.9-8.6 14.9s-8.5-4.4-8.6-14.9S33.9 22 45.3 21.8c11.5-.2 15 9.2 15 9.2s-5.5 8.4-14.9 8c-9.4-.3-23.2-8.9-10.5-25.3 0 0 5.8-7.1 16.7-4.5 0 0 2.8 9.8-4.5 16.7s-18.3 5.6-18.3 5.6-10.1 0-15-5.6S7.9 14.2 9.3 9.3c0 0 10.3-2.9 16.7 4.5s9.2 22.3 0 33.3c0 0-4.7 6.4-16.7 4.5 0 0-2.4-11 4.5-16.7s21.5-9.2 33.3 0c0 0 6.4 4.2 4.5 16.7 0 0-9.2 2.9-16.7-4.5 0 0-8.4-8.9-3.5-17"/>
</svg>
