<svg xmlns="http://www.w3.org/2000/svg" viewBox="0 0 629.6 60.8" stroke="#000">
  <path fill="none" stroke-miterlimit="10" stroke-width="2" d="M599.1 30.4s-8.3-4-8.6-14.9S599.1.6 599.1.6s8.7 4.4 8.6 14.9S595.3 39 584.2 39c-11.1.1-14.9-8.6-14.9-8.6s4.5-8.7 14.9-8.6 23.4 12.6 23.5 23.5-8.6 14.9-8.6 14.9-8.5-4.4-8.6-14.9 12.1-23.4 23.5-23.5c11.5-.2 15 9.2 15 9.2s-5.5 8.4-14.9 8c-9.4-.3-23.2-8.9-10.5-25.3 0 0 5.8-7.1 16.7-4.5 0 0 2.8 9.8-4.5 16.7s-18.3 5.6-18.3 5.6-10.1 0-15-5.6-5.8-11.7-4.5-16.7c0 0 10.3-2.9 16.7 4.5s9.2 22.3 0 33.3c0 0-4.7 6.4-16.7 4.5 0 0-2.4-11 4.5-16.7s21.5-9.2 33.3 0c0 0 6.4 4.2 4.5 16.7 0 0-9.2 2.9-16.7-4.5 0 0-8.4-8.9-3.5-17m-30.8.3c-86.1 2.1-151.9-4.4-151.9-4.4s-23.5 2-21.2-21.7c0 0 24.1-4.7 21.2 21.7 0 0 3.5 24.4-21.3 21.8 0 0-4.5-23.4 21.3-21.8 0 0-13.7 20-29.9.5 0 0 13.4-19.7 29.9-.5 0 0-96.2 0-176.2 12-10.1 1.5-92.9 11.5-135.6 9.4-7.7-.4-58-.2-105.4-15"/>
</svg>
