<svg xmlns="http://www.w3.org/2000/svg" viewBox="0 0 1163.2 21" stroke="#000">
  <g fill="none" stroke-width="2" stroke-miterlimit="10">
    <path d="M.5 10.5s15.3-14.9 36.3 0 36.3 0 36.3 0 15.3-14.9 36.3 0 36.3 0 36.3 0 15.3-14.9 36.3 0 36.3 0 36.3 0 15.3-14.9 36.3 0 36.3 0 36.3 0 15.3-14.9 36.3 0c21.1 14.9 36.3 0 36.3 0s15.3-14.9 36.3 0c21.1 14.9 36.3 0 36.3 0s15.3-14.9 36.3 0c21.1 14.9 36.3 0 36.3 0s15.3-14.9 36.3 0c21.1 14.9 36.3 0 36.3 0s15.3-14.9 36.3 0 36.3 0 36.3 0 15.3-14.9 36.3 0c21.1 14.9 36.3 0 36.3 0s15.3-14.9 36.3 0 36.3 0 36.3 0 15.3-14.9 36.3 0c21.1 14.9 36.3 0 36.3 0s15.3-14.9 36.3 0c21.1 14.9 36.3 0 36.3 0s15.3-14.9 36.3 0c21.1 14.9 36.3 0 36.3 0s15.3-14.9 36.3 0c21.1 14.9 36.3 0 36.3 0s15.3-14.9 36.3 0 36.3 0 36.3 0"/>
    <path d="M1162.7 10.5s-15.3-14.9-36.3 0-36.3 0-36.3 0-15.3-14.9-36.3 0c-21.1 14.9-36.3 0-36.3 0s-15.3-14.9-36.3 0c-21.1 14.9-36.3 0-36.3 0s-15.3-14.9-36.3 0c-21.1 14.9-36.3 0-36.3 0S857-4.4 836 10.5c-21.1 14.9-36.3 0-36.3 0s-15.3-14.9-36.3 0-36.3 0-36.3 0-15.3-14.9-36.3 0c-21.1 14.9-36.3 0-36.3 0s-15.3-14.9-36.3 0-36.3 0-36.3 0-15.3-14.9-36.3 0c-21.1 14.9-36.3 0-36.3 0S494-4.4 473 10.5c-21.1 14.9-36.3 0-36.3 0s-15.3-14.9-36.3 0c-21.1 14.9-36.3 0-36.3 0s-15.3-14.9-36.3 0c-21.1 14.9-36.3 0-36.3 0s-15.3-14.9-36.3 0-36.3 0-36.3 0-15.3-14.9-36.3 0-36.3 0-36.3 0-15.3-14.9-36.3 0-36.3 0-36.3 0-15.3-14.9-36.3 0-36.3 0-36.3 0"/>
    <circle cx="36.8" cy="18" r="2.5"/>
    <circle cx="18.7" cy="10.2" r="2.5"/>
    <circle cx="55" cy="10.2" r="2.5"/>
    <circle cx="91.3" cy="10.2" r="2.5"/>
    <circle cx="127.6" cy="10.2" r="2.5"/>
    <circle cx="164" cy="10.2" r="2.5"/>
    <circle cx="200.3" cy="10.2" r="2.5"/>
    <circle cx="236.6" cy="10.2" r="2.5"/>
    <circle cx="272.9" cy="10.2" r="2.5"/>
    <circle cx="309.2" cy="10.2" r="2.5"/>
    <circle cx="345.6" cy="10.2" r="2.5"/>
    <circle cx="381.9" cy="10.2" r="2.5"/>
    <circle cx="418.2" cy="10.2" r="2.5"/>
    <circle cx="454.6" cy="10.2" r="2.5"/>
    <circle cx="490.9" cy="10.2" r="2.5"/>
    <circle cx="527.2" cy="10.2" r="2.5"/>
    <circle cx="563.5" cy="10.2" r="2.5"/>
    <circle cx="599.8" cy="10.2" r="2.5"/>
    <circle cx="636.1" cy="10.2" r="2.5"/>
    <circle cx="672.4" cy="10.2" r="2.5"/>
    <circle cx="708.7" cy="10.2" r="2.5"/>
    <circle cx="745.1" cy="10.2" r="2.5"/>
    <circle cx="781.4" cy="10.2" r="2.5"/>
    <circle cx="817.7" cy="10.2" r="2.5"/>
    <circle cx="854" cy="10.2" r="2.5"/>
    <circle cx="890.3" cy="10.2" r="2.5"/>
    <circle cx="926.7" cy="10.2" r="2.5"/>
    <circle cx="963" cy="10.2" r="2.5"/>
    <circle cx="999.3" cy="10.2" r="2.5"/>
    <circle cx="1035.7" cy="10.2" r="2.5"/>
    <circle cx="1072" cy="10.2" r="2.5"/>
    <circle cx="1108.3" cy="10.2" r="2.5"/>
    <circle cx="1144.6" cy="10.2" r="2.5"/>
    <circle cx="36.8" cy="3" r="2.5"/>
    <circle cx="73.2" cy="18" r="2.5"/>
    <circle cx="73.2" cy="3" r="2.5"/>
    <circle cx="109.5" cy="18" r="2.5"/>
    <circle cx="109.5" cy="3" r="2.5"/>
    <circle cx="145.8" cy="18" r="2.5"/>
    <circle cx="145.8" cy="3" r="2.5"/>
    <circle cx="182.1" cy="18" r="2.5"/>
    <circle cx="182.1" cy="3" r="2.5"/>
    <circle cx="218.5" cy="18" r="2.5"/>
    <circle cx="218.5" cy="3" r="2.5"/>
    <circle cx="254.7" cy="18" r="2.5"/>
    <circle cx="254.7" cy="3" r="2.5"/>
    <circle cx="291.1" cy="18" r="2.5"/>
    <circle cx="291.1" cy="3" r="2.5"/>
    <circle cx="327.4" cy="18" r="2.5"/>
    <circle cx="327.4" cy="3" r="2.5"/>
    <circle cx="363.7" cy="18" r="2.5"/>
    <circle cx="363.7" cy="3" r="2.5"/>
    <circle cx="400" cy="18" r="2.5"/>
    <circle cx="400" cy="3" r="2.5"/>
    <circle cx="436.4" cy="18" r="2.5"/>
    <circle cx="436.4" cy="3" r="2.5"/>
    <circle cx="472.6" cy="18" r="2.5"/>
    <circle cx="472.6" cy="3" r="2.5"/>
    <circle cx="509" cy="18" r="2.5"/>
    <circle cx="509" cy="3" r="2.5"/>
    <circle cx="545.3" cy="18" r="2.5"/>
    <circle cx="545.3" cy="3" r="2.5"/>
    <circle cx="581.6" cy="18" r="2.5"/>
    <circle cx="581.6" cy="3" r="2.5"/>
    <circle cx="617.9" cy="18" r="2.5"/>
    <circle cx="617.9" cy="3" r="2.5"/>
    <circle cx="654.3" cy="18" r="2.5"/>
    <circle cx="654.3" cy="3" r="2.5"/>
    <circle cx="690.6" cy="18" r="2.5"/>
    <circle cx="690.6" cy="3" r="2.5"/>
    <circle cx="726.9" cy="18" r="2.5"/>
    <circle cx="726.9" cy="3" r="2.5"/>
    <circle cx="763.2" cy="18" r="2.5"/>
    <circle cx="763.2" cy="3" r="2.5"/>
    <circle cx="799.5" cy="18" r="2.5"/>
    <circle cx="799.5" cy="3" r="2.5"/>
    <circle cx="835.8" cy="18" r="2.5"/>
    <circle cx="835.8" cy="3" r="2.5"/>
    <circle cx="872.2" cy="18" r="2.5"/>
    <circle cx="872.2" cy="3" r="2.5"/>
    <circle cx="908.4" cy="18" r="2.5"/>
    <circle cx="908.4" cy="3" r="2.5"/>
    <circle cx="944.8" cy="18" r="2.5"/>
    <circle cx="944.8" cy="3" r="2.5"/>
    <circle cx="981.1" cy="18" r="2.5"/>
    <circle cx="981.1" cy="3" r="2.5"/>
    <circle cx="1017.5" cy="18" r="2.5"/>
    <circle cx="1017.5" cy="3" r="2.5"/>
    <circle cx="1053.7" cy="18" r="2.5"/>
    <circle cx="1053.7" cy="3" r="2.5"/>
    <circle cx="1090.1" cy="18" r="2.5"/>
    <circle cx="1090.1" cy="3" r="2.5"/>
    <circle cx="1126.4" cy="18" r="2.5"/>
    <circle cx="1126.4" cy="3" r="2.5"/>
  </g>
</svg>
