<svg xmlns="http://www.w3.org/2000/svg" viewBox="0 0 692.5 115.3" stroke="#000">
  <g fill="none" stroke-width="2" stroke-miterlimit="10">
    <path d="M0 52.2h525.8c6.4 0 22.6-2.6 26.2-23.3 3-17.2-18.9-15-19.9-4.3 0 0-10-15.3-19.1-3.5-5.4 7 4.5 29.9 21.1 33.5 33.6 7.1 40 16.2 42.6 24 5.5 16.3-11.8 23.6-19 13 0 0-10.4 14-19 1.3-4.4-6.4-3.2-17 5.8-26.9 8.2-8.9 19.8-13.8 32-13.8h47.1c12.1 0 23.8-4.9 31.9-13.8 9.1-9.9 10.2-20.5 5.8-26.9-8.6-12.7-19 1.3-19 1.3-7.2-10.6-24.5-3.3-19 13 2.6 7.8 9 16.9 42.6 24 16.7 3.5 26.6 26.5 21.1 33.5-9.1 11.8-19.1-3.5-19.1-3.5-1 10.7-22.8 12.9-19.9-4.3 3.6-20.6 17.8-23.3 24.2-23.3"/>
    <circle cx="616.4" cy="40.4" r="4.1"/>
    <circle cx="557.9" cy="112.5" r="2.3"/>
    <circle cx="506.8" cy="76.6" r="3.3"/>
    <circle cx="395" cy="29.8" r="3.3"/>
    <circle cx="585.7" cy="4.1" r="3.6"/>
    <circle cx="689.2" cy="35.2" r="2.9"/>
    <circle cx="580.6" cy="64.4" r="2.5"/>
    <path d="M478.7 35.7s2.2-2.7 3.9.1c1.5 2.6-3.9 5.6-3.9 5.6s-4.4-2.5-4.6-4.6c-.2-2.4 2.4-3 4.6-1.1zm152 42.9s1.4-1.7 2.4.1c.9 1.6-2.4 3.5-2.4 3.5s-2.8-1.5-2.8-2.9c-.1-1.5 1.5-1.8 2.8-.7zm-208.3-3s2.2-2.7 3.9.1c1.5 2.6-3.9 5.6-3.9 5.6s-4.4-2.5-4.6-4.6c-.2-2.4 2.4-3 4.6-1.1zM558 43s1.4-1.7 2.4.1c.9 1.6-2.4 3.5-2.4 3.5s-2.8-1.5-2.8-2.9c-.1-1.5 1.5-1.8 2.8-.7z"/>
  </g>
</svg>
