<svg xmlns="http://www.w3.org/2000/svg" viewBox="0 0 1014.8 42.2" stroke="#000">
  <g fill="none" stroke-width="2" stroke-miterlimit="10">
    <path d="M989.8 11.8c-77.6 25.6-166.6 8.3-298.7-8.1S505 40.4 505 40.4 450.9-12.8 318.8 3.7 97.7 37.4 20.1 11.8"/>
    <path d="M20.1 30.5c77.6-25.6 166.6-8.3 298.7 8.1S505 1.9 505 1.9 559 55 691.1 38.6s221.1-33.7 298.7-8.1"/>
    <path d="M727.4 21.3c-101.8 17.2-143 0-143 0s41.3-17.2 143 0zm284.4 0c-24.4 4.1-34.2 0-34.2 0s9.9-4.1 34.2 0zM3 21.3c24.4-4.1 34.2 0 34.2 0s-9.8 4.1-34.2 0zm284.5 0c101.8-17.2 143 0 143 0s-41.2 17.2-143 0z"/>
  </g>
</svg>
