<svg xmlns="http://www.w3.org/2000/svg" viewBox="0 0 1225.4 38.4" stroke="#000">
  <g fill="none" stroke-width="2" stroke-miterlimit="10">
    <path d="M31.6 19.1s15.3-14.9 36.3 0 36.3 0 36.3 0 15.3-14.9 36.3 0 36.3 0 36.3 0 15.3-14.9 36.3 0 36.3 0 36.3 0 15.3-14.9 36.3 0c21.1 14.9 36.3 0 36.3 0s15.3-14.9 36.3 0 36.3 0 36.3 0 15.3-14.9 36.3 0 36.3 0 36.3 0 15.3-14.9 36.3 0c21.1 14.9 36.3 0 36.3 0s15.3-14.9 36.3 0c21.1 14.9 36.3 0 36.3 0s15.3-14.9 36.3 0c21.1 14.9 36.3 0 36.3 0s15.3-14.9 36.3 0c21.1 14.9 36.3 0 36.3 0s15.3-14.9 36.3 0 36.3 0 36.3 0 15.3-14.9 36.3 0c21.1 14.9 36.3 0 36.3 0s15.3-14.9 36.3 0 36.3 0 36.3 0 15.3-14.9 36.3 0c21.1 14.9 36.3 0 36.3 0s15.3-14.9 36.3 0c21.1 14.9 36.3 0 36.3 0s15.3-14.9 36.3 0 36.3 0 36.3 0"/>
    <circle cx="1175.6" cy="12.5" r="3.5"/>
    <circle cx="1103" cy="12.5" r="3.5"/>
    <circle cx="1030.3" cy="12.5" r="3.5"/>
    <circle cx="957.7" cy="12.5" r="3.5"/>
    <circle cx="885.1" cy="12.5" r="3.5"/>
    <circle cx="812.4" cy="12.5" r="3.5"/>
    <circle cx="739.8" cy="12.5" r="3.5"/>
    <circle cx="667.2" cy="12.5" r="3.5"/>
    <circle cx="594.5" cy="12.5" r="3.5"/>
    <circle cx="521.8" cy="12.5" r="3.5"/>
    <circle cx="449.2" cy="12.5" r="3.5"/>
    <circle cx="376.6" cy="12.5" r="3.5"/>
    <circle cx="304" cy="12.5" r="3.5"/>
    <circle cx="231.3" cy="12.5" r="3.5"/>
    <circle cx="158.7" cy="12.5" r="3.5"/>
    <circle cx="86.1" cy="12.5" r="3.5"/>
    <circle cx="1138.4" cy="25.9" r="3.5"/>
    <circle cx="1065.8" cy="25.9" r="3.5"/>
    <circle cx="993.2" cy="25.9" r="3.5"/>
    <circle cx="920.5" cy="25.9" r="3.5"/>
    <circle cx="847.9" cy="25.9" r="3.5"/>
    <circle cx="775.3" cy="25.9" r="3.5"/>
    <circle cx="702.6" cy="25.9" r="3.5"/>
    <circle cx="630" cy="25.9" r="3.5"/>
    <circle cx="557.3" cy="25.9" r="3.5"/>
    <circle cx="484.7" cy="25.9" r="3.5"/>
    <circle cx="412" cy="25.9" r="3.5"/>
    <circle cx="339.4" cy="25.9" r="3.5"/>
    <circle cx="266.8" cy="25.9" r="3.5"/>
    <circle cx="194.2" cy="25.9" r="3.5"/>
    <circle cx="121.5" cy="25.9" r="3.5"/>
    <circle cx="48.9" cy="25.9" r="3.5"/>
  </g>
</svg>
