<svg xmlns="http://www.w3.org/2000/svg" viewBox="0 0 1012.7 69.2" stroke="#000">
  <path d="M552.4 34.7h164.4c1 0 11.7-3.7 14.2-13.2s-13.1 2-14 12 11.7 18.4 14.3 19.6 4.3-10.6-14.4-18.3c0 0 60.8.1 62.6 0s10.9-5.6 13-11.7-11.3 2.8-12.9 11.1 11.6 15.6 13.2 15.6-1-9.2-13.2-15c0 0 56.9.4 60.6 0 3.3-.3 13.9-8.6 13.4-13.2-.6-4.6-13 9.5-13.6 13.1-.5 3.6 8.7 14 13.4 14.6s-6-12.3-13.4-14.6h59.4c2.1 0 10.1-7.7 8.6-12.5s-10.2 6.9-8.6 12.5 2.6 9.9 7.2 12c5.5 2.4 1.3-8.6-7.2-12h78.2s14.6 13.5 34.2 0c0 0-18.4-13.9-34.2 0m-519 0H294.2c-1 0-11.7-3.7-14.2-13.2s13.1 2 14 12c1 9.9-11.7 18.4-14.3 19.6s-4.3-10.6 14.4-18.3c0 0-60.8.1-62.6 0s-10.9-5.6-13-11.7 11.3 2.8 12.9 11.1c1.6 8.2-11.6 15.6-13.2 15.6s1-9.2 13.2-15c0 0-56.9.4-60.6 0-3.3-.3-13.9-8.6-13.4-13.2s12.9 9.5 13.4 13.2c.5 3.6-8.7 14-13.4 14.6s6-12.3 13.4-14.6h-59.4c-2.1 0-10.1-7.7-8.6-12.5 1.4-4.7 10.2 6.9 8.6 12.5-1.5 5.6-2.6 9.9-7.2 12-5.5 2.4-1.3-8.6 7.2-12H33.3S17.8 46.3.9 34.8c0 0 17.7-13.7 32.4 0m473 0L488.7 17s-7.1-7.8 1.3-14.5 16.4 5.3 16.4 5.3 8.9-13 17.7-4.2c6.4 6.3 0 13.4 0 13.4l-18.2 18.2-17.2 17.2s-6.7 6.8-13.4 0c-6.8-6.8.4-14.7 4.2-17.7 0 0-12.3-7.9-4.2-17.7 0 0 6.7-7.2 15 1.6 8.4 8.9 33.8 33.8 33.8 33.8s6.7 6.5 0 13.4c-6.6 6.9-15-.6-17.7-4.2 0 0-9.6 12.7-17.7 4.2-7-7.4 1.7-15.1 1.7-15.1l34.9-34.8s6.9-4.3 12.2 1.1 2.5 13.5-4.2 17.7c0 0 12.5 8.5 4.2 17.7-6.5 7.3-15-1.5-15-1.5l-16.2-16.1" fill="none" stroke-width="2" stroke-miterlimit="10"/>
</svg>
