<svg xmlns="http://www.w3.org/2000/svg" viewBox="0 0 1142 22" stroke="#000">
  <path fill="none" stroke-width="2" stroke-miterlimit="10" d="M1 11h20m60 0h20m60 0h20m60 0h20m60 0h20m60 0h20m60 0h20m60 0h20m60 0h20m60 0h20m60 0h20m60 0h20m60 0h20m60 0h20m60 0h20M43.9 3.9l14.2 14.2m0-14.2L43.9 18.1M41 11h20M51 1v20m70-10h20M131 1v20m69.4-10h20m-10-10v20m71.2-10h20m-10-10v20m70-10h20m-10-10v20M441 11h20M451 1v20m70.3-10h20m-10-10v20m70-10h20m-10-10v20m69.4-10h20m-10-10v20M761 11h20M771 1v20m70-10h20M851 1v20m69.4-10h20m-10-10v20m70.6-10h20m-10-10v20m70-10h20m-10-10v20M123.9 3.9l14.2 14.2m0-14.2-14.2 14.2m80-14.2 14.2 14.2m0-14.2-14.2 14.2m80-14.2 14.2 14.2m0-14.2-14.2 14.2m80-14.2 14.2 14.2m0-14.2-14.2 14.2m80-14.2 14.2 14.2m0-14.2-14.2 14.2m80-14.2 14.2 14.2m0-14.2-14.2 14.2m80-14.2 14.2 14.2m0-14.2-14.2 14.2m80-14.2 14.2 14.2m0-14.2-14.2 14.2m80-14.2 14.2 14.2m0-14.2-14.2 14.2m80-14.2 14.2 14.2m0-14.2-14.2 14.2m80-14.2 14.2 14.2m0-14.2-14.2 14.2m80-14.2 14.2 14.2m0-14.2-14.2 14.2m80-14.2 14.2 14.2m0-14.2-14.2 14.2"/>
</svg>
