<svg xmlns="http://www.w3.org/2000/svg" viewBox="0 0 1188.7 31.1" stroke="#000">
  <g fill="none" stroke-width="2" stroke-miterlimit="10">
    <path d="M24.4 15.6h20m60 0h20m60 0h20m60 0h20m60 0h20m60 0h20m60 0h20m60 0h20m60 0h20m60 0h20m60 0h20m60 0h20m60 0h20m60 0h20m60 0h20"/>
    <circle cx="74.4" cy="15.6" r="10"/>
    <circle cx="154.4" cy="15.6" r="10"/>
    <circle cx="234.4" cy="15.6" r="10"/>
    <circle cx="314.4" cy="15.6" r="10"/>
    <circle cx="394.4" cy="15.6" r="10"/>
    <circle cx="474.4" cy="15.6" r="10"/>
    <circle cx="554.4" cy="15.6" r="10"/>
    <circle cx="634.4" cy="15.6" r="10"/>
    <circle cx="714.4" cy="15.6" r="10"/>
    <circle cx="794.4" cy="15.6" r="10"/>
    <circle cx="874.4" cy="15.6" r="10"/>
    <circle cx="954.4" cy="15.6" r="10"/>
    <circle cx="1034.4" cy="15.6" r="10"/>
    <circle cx="1114.4" cy="15.6" r="10"/>
  </g>
</svg>
