<svg xmlns="http://www.w3.org/2000/svg" viewBox="0 0 1142 16.1" stroke="#000">
  <path fill="none" stroke-width="2" stroke-miterlimit="10" d="M1 8.1h20m60 0h20m60 0h20m60 0h20m60 0h20m60 0h20m60 0h20m60 0h20m60 0h20m60 0h20m60 0h20m60 0h20m60 0h20m60 0h20m60 0h20M43.9 1l14.2 14.1m0-14.1L43.9 15.1m80-14.1 14.2 14.1m0-14.1-14.2 14.1m80-14.1 14.2 14.1m0-14.1-14.2 14.1m80-14.1 14.2 14.1m0-14.1-14.2 14.1m80-14.1 14.2 14.1m0-14.1-14.2 14.1m80-14.1 14.2 14.1m0-14.1-14.2 14.1m80-14.1 14.2 14.1m0-14.1-14.2 14.1m80-14.1 14.2 14.1m0-14.1-14.2 14.1m80-14.1 14.2 14.1m0-14.1-14.2 14.1m80-14.1 14.2 14.1m0-14.1-14.2 14.1m80-14.1 14.2 14.1m0-14.1-14.2 14.1m80-14.1 14.2 14.1m0-14.1-14.2 14.1m80-14.1 14.2 14.1m0-14.1-14.2 14.1m80-14.1 14.2 14.1m0-14.1-14.2 14.1"/>
</svg>
