<svg xmlns="http://www.w3.org/2000/svg" viewBox="0 0 435.7 46.3" stroke="#000">
  <path d="M321.4 24.6s-1.3-6.5-13.3-8.7c0 0 .3 7.9 13.3 8.7zm-28.9 15.2s10.4-.8 13.9-8.3c.1 0-12.5.1-13.9 8.3zm-36.3 1s10.4-.8 13.9-8.3c0-.1-12.6.1-13.9 8.3zm-39.6-2.1s10.4-.8 13.9-8.3c.1-.1-12.6.1-13.9 8.3zm-40.9-4.2s10.4-.8 13.9-8.3c0 0-12.6.1-13.9 8.3zm-40-5.2s10.4-.8 13.9-8.3c0 0-12.6.2-13.9 8.3zm-42.3-1.6s10.4-.8 13.9-8.3c.1-.1-12.5.1-13.9 8.3zm-40 1.1s10.4-.8 13.9-8.3c.1-.1-12.5.1-13.9 8.3zM1.5 30.2s10.5.3 16-6.7c0 0-12.4-1.2-16 6.7zm287.9-3.8s-1.3-6.5-13.3-8.7c-.1 0 .2 7.9 13.3 8.7zm-36.9 0s-1.3-6.5-13.3-8.7c-.1 0 .2 7.9 13.3 8.7zm-37.6-3.7s-1.3-6.5-13.3-8.7c0 0 .2 7.8 13.3 8.7zM174.8 18s-1.3-6.5-13.3-8.7c0 0 .2 7.9 13.3 8.7zm-44.4-3.4s-1.3-6.5-13.3-8.7c-.1 0 .2 7.9 13.3 8.7zM88.8 14s-1.3-6.5-13.3-8.7c-.1-.1.2 7.8 13.3 8.7zM50 16.2s-1.3-6.5-13.3-8.7c-.1 0 .2 7.8 13.3 8.7z" fill="none" stroke-width="2" stroke-miterlimit="10"/>
  <circle fill="none" stroke-width="2" stroke-miterlimit="10" cx="411.7" cy="22.7" r="7.2"/>
  <circle fill="none" stroke-width="2" stroke-dasharray="3.862,2.8965" cx="411.7" cy="22.7" r="10.8"/>
  <path fill="none" stroke-width="2" stroke-miterlimit="10" d="M429.7 4.6c6.7 6.3 6.8 11.5-.5 16.7-1.3.9-1.4 2.7-.3 3.8 3 3 6.9 8.7.7 14.9-6.1 6.1-11.9 2.4-14.9-.4-1.1-1-2.8-.9-3.8.3-2.8 3.7-8.9 9.2-16.6 1.5-5.8-5.8-4.9-11.7 1.3-16.5 1.3-1 1.3-2.8.1-3.9-3.5-3.1-8.4-9.4-1.6-16.1 7.3-7.3 13.5-2.7 16.5.6 1 1.1 2.8 1.1 3.8 0 2.8-3.2 8.3-7.5 15.3-.9z"/>
  <path fill="none" stroke-width="2" stroke-miterlimit="10" d="M390 23c-2.4 10.2-11 11-11 11 .2-3.8 1.9-6.3 3.9-7.9.1-.1 0-.3-.1-.3-2.6.2-5.6-.3-8.4-2.8 0 0 3.6-2.9 8.9-2.4.2 0 .3-.2.1-.3-1.4-1-4.7-4-4.5-8.4.1 0 8.7.9 11.1 11.1zm-15.6 0s-18.1-1.1-39.5 2.2c-20.8 3.5-70.1 8.7-146.2-1.8-102.4-14.2-171.6.3-171.6.3"/>
</svg>
