<svg xmlns="http://www.w3.org/2000/svg" viewBox="0 0 431.4 46.3" stroke="#000">
  <circle fill="none" stroke-width="2" stroke-miterlimit="10" cx="22.3" cy="22.7" r="7.2"/>
  <circle fill="none" stroke-width="2" stroke-dasharray="3.862,2.8965" cx="22.3" cy="22.7" r="10.8"/>
  <path fill="none" stroke-width="2" stroke-miterlimit="10" d="M40.3 4.6c6.7 6.3 6.8 11.5-.5 16.7-1.3.9-1.4 2.7-.3 3.8 3 3 6.9 8.7.7 14.9-6.1 6.1-11.9 2.4-14.9-.4-1.1-1-2.8-.9-3.8.3-2.8 3.7-8.9 9.2-16.6 1.5C-.9 35.6 0 29.7 6.2 24.9c1.3-1 1.3-2.8.1-3.9-3.5-3.1-8.4-9.4-1.6-16.1 7.3-7.3 13.5-2.7 16.5.6 1 1.1 2.8 1.1 3.8 0 2.8-3.2 8.3-7.5 15.3-.9zM46.6 22c2.4-10.2 11-11 11-11-.2 3.8-1.9 6.3-3.9 7.9-.1.1 0 .3.1.3 2.6-.2 5.6.3 8.4 2.8 0 0-3.6 2.9-8.9 2.4-.2 0-.3.2-.1.3 1.4 1 4.7 4 4.5 8.4 0 0-8.6-.9-11.1-11.1z"/>
  <g fill="none" stroke-width="2" stroke-miterlimit="10">
    <path d="M114.1 23.3s1.3-6.5 13.2-8.7c0 0-.3 7.9-13.2 8.7zm28.5 15.2s-10.3-.8-13.7-8.3c0-.1 12.4.1 13.7 8.3zm35.9.9s-10.3-.8-13.7-8.3c0 0 12.4.2 13.7 8.3zm39-2.1s-10.3-.8-13.7-8.3c0 0 12.5.2 13.7 8.3zm40.4-4.2s-10.3-.8-13.7-8.3c0 0 12.5.2 13.7 8.3zm39.5-5.1s-10.3-.8-13.7-8.3c0-.1 12.5.1 13.7 8.3zm41.7-1.7s-10.3-.8-13.7-8.3c0 0 12.4.1 13.7 8.3zm39.5 1.1s-10.3-.8-13.7-8.3c0 0 12.4.2 13.7 8.3zm51.3 1.5s-10.4.3-15.8-6.7c0 0 12.3-1.2 15.8 6.7zm-284.2-3.8s1.3-6.5 13.2-8.7c0 0-.3 7.8-13.2 8.7zm36.5 0s1.3-6.5 13.2-8.7c-.1 0-.4 7.8-13.2 8.7zm37.1-3.8s1.3-6.5 13.2-8.7c-.1 0-.4 7.9-13.2 8.7zm39.5-4.7s1.3-6.5 13.2-8.7c0 0-.3 7.9-13.2 8.7zm43.9-3.3s1.3-6.5 13.2-8.7c-.1 0-.3 7.8-13.2 8.7zm41-.7s1.3-6.5 13.2-8.7c0 0-.3 7.9-13.2 8.7zm38.3 2.2s1.3-6.5 13.2-8.7c0 0-.3 7.9-13.2 8.7z"/>
    <path d="M62.3 22s16.4-.2 49 3.7c43.8 5.3 111.4-.3 144.9-5 53.1-7.4 132.5-5.6 157.9 1.5"/>
  </g>
</svg>
