<svg xmlns="http://www.w3.org/2000/svg" viewBox="0 0 247.5 52.7" stroke="#000">
  <g fill="none">
    <circle cx="221.1" cy="25.7" r="8.4"/>
    <path d="M214.4 20.7s-7.5-12.5-7.3-16S225.4-.6 228.9 3c3 3-1.4 12.3-2.8 15-.1.2.1.3.2.2 2.3-2 10.5-8.4 14.9-6.7 4.3 1.6 6.3 15.5 4.7 17.4s-11.2 2.3-16.5-.4c0 0 13.2 7.6 11.5 13.2S230 52.3 228.2 51c-2.5-1.6-8.6-9.6-7.1-16.9 0 0-5.9 20.3-14 17.2s-11.1-12-11-13.2 4.3-8.3 17.2-9.4c0 0-9.1 1.1-16.1-2.4s-1.3-11.8 1-14.1c3-3 11.7 3.4 16.2 8.5"/>
  </g>
  <path fill="none" d="M204.4 28.4s-47.6 10.6-79.6-3.2l-1.7-.8s-3.9-6.1-4-6.3c0-.2 3.3 3.6 4.6.3 1.5-3.8-6.2-7.6-8.8-10.1 0 0-3.4 6.8 1.5 10.1s3.7 6.4 3.7 6.4-17.9 6.4-34.9-.4c0 0-3.9-6.1-4-6.3 0-.2 3.3 3.6 4.6.3 1.5-3.8-6.2-7.6-8.8-10.1 0 0-3.4 6.8 1.5 10.1s3.7 6.4 3.7 6.4-16.3 3.5-34.8.2c0 0-3.9-6.6-3.9-6.8s3.3 3.6 4.6.3c1.5-3.8-6.2-7.6-8.8-10.1 0 0-3.4 6.8 1.5 10.1s3.7 6.4 3.7 6.4-24.2-3-31.4-2.1c0 0-4.6.5-4.8.5-.7 0 3-.9 1.4-2.6-1.8-1.9-6.1 1.5-8.3 2.3 0 0 1.4 2.7 5.2 3.2 2.8.4 3.5-1.7 3.5-1.7 3.6-.9 9.1-.8 12.7-.3.9.1 1.1 1.4 1.1 1.4s.8 2.2-2.6 4.5-1 7.1-1 7.1c1.8-1.8 7.1-4.4 6.1-7.1-.9-2.3-3.2.4-3.2.2s2.8-4.4 2.8-4.4c0-.4 1.2-1.9 5.9-.9 4.9 1 12.2 1.3 17.9 1.9 4.4.5 8.9.8 10.2 1.1 1.4.4 1.7 1.9 1.7 1.9s1.2 3.1-3.7 6.4-1.5 10.1-1.5 10.1c2.6-2.5 10.2-6.3 8.8-10.1-1.3-3.3-4.8.5-4.6.3 2.8-3 4.2-8.3 4.2-8.3s4.5-.2 12.9-1.4c3.2-.4 6.9-1.2 15.2 1.3 5.2 1.6 6.8 1.6 6.8 1.6s1.2 3.1-3.7 6.4-1.3 10.2-1.3 10.2c2.6-2.5 10.2-6.3 8.8-10.1-1.3-3.3-4.6.6-4.6.3 0-.2 4.3-6.8 4.3-6.8 2.2-.5 6.8-.5 11.4-1.6 3.9-.9 6.4-1.2 7.7-1.2 1.3-.1 7.8 2.7 10.7 3.5 2.6.7 8.8 2.5 21.5 3.5 4 .3 4 .7 4 .7s1.2 3.1-3.6 6.4-1.4 10-1.4 10c2.5-2.5 10.1-6.3 8.7-10-1.3-3.3-4.6.5-4.6.3s3.9-6.3 3.9-6.3c5.4-1.1 25.8 0 43.5-4.6"/>
</svg>
