<svg xmlns="http://www.w3.org/2000/svg" viewBox="0 0 1214 62.1" stroke="#000">
  <g fill="none" stroke-width="2" stroke-miterlimit="10">
    <circle cx="606.9" cy="29" r="8.4"/>
    <path d="M600.2 24s-7.5-12.5-7.3-16 18.3-5.3 21.8-1.7c3 3-1.4 12.3-2.8 15-.1.2.1.3.2.2 2.3-2 10.5-8.4 14.9-6.7 4.3 1.6 6.3 15.5 4.7 17.4s-11.2 2.3-16.5-.4c0 0 13.2 7.6 11.5 13.2s-10.9 10.6-12.7 9.3c-2.5-1.6-8.6-9.6-7.1-16.9 0 0-5.9 20.3-14 17.2s-11.1-12-11-13.2 4.3-8.3 17.2-9.4c0 0-9.1 1.1-16.1-2.4s-1.3-11.8 1-14.1c3-3 11.7 3.4 16.2 8.5z"/>
    <path d="M615.2 31.8s26.7 27.3 196.6 5.1l6.7-1.1s13.7-6.1 18.4-13c0 0-8.4-.4-6.9-8.8 1.5-8.2 13.7-6.8 18.7-13 0 0 3.6 13.6-2.3 19.9-4 4.3-8.4 2.5-8.4 2.5s-2.7 5.3-15.2 11.9c0 0 42.1-2.5 54.2 0 0 0 2.5.7 4.4 4 5.4 10.3 9.8 12.5 9.8 12.5s-1.4 3.6 2.1 6.9c5.2 4.9 16.4 1.9 16.4 1.9-5.1-4.1-3.9-14.1-10.7-15.4-6.9-1.3-7.2 5.6-7.2 5.6-5.7-3.9-10.7-15.2-10.7-15.2s30.4 2.5 41.5 0c0 0 5.7-1.6 8.5-3 0 0 11.2-5 15.2-10.7 0 0-6.9-.3-5.6-7.2C942 7.9 952 9.1 956.1 4c0 0 3 11.2-1.9 16.4-3.3 3.5-6.9 2.1-6.9 2.1s-2.2 4.4-12.5 9.8c0 0 25.9-2.7 36.8 0 2.5.6 12.7 3.8 12.7 3.8s2 3.4 3.6 5.9c4.4 6.9 7.8 8.8 7.8 8.8s-1.1 2.8 1.6 5.3c4 3.7 12.6 1.4 12.6 1.4-3.9-3.2-3-10.9-8.2-11.8-5.3-1-5.5 4.3-5.5 4.3-4.3-3-9.8-13.9-9.8-13.9s17.8 2.4 32.3 1.8c7.1-.3 23.3-2.3 23.3-2.3s9-4 12.1-8.5c0 0-5.5-.3-4.5-5.8 1-5.4 9-4.4 12.3-8.5 0 0 2.4 8.9-1.5 13.1-2.6 2.8-5.5 1.7-5.5 1.7s-1.8 3.5-10 7.8c0 0 34.7-5.4 45.7 5.1 3.7 6.9 6.6 8.4 6.6 8.4s-1 2.4 1.4 4.7c3.5 3.3 11.1 1.3 11.1 1.3-3.5-2.8-2.7-9.6-7.2-10.4-4.7-.9-4.9 3.8-4.9 3.8-3.8-2.7-7.2-10.2-7.2-10.2s31.6 2.4 42.9-2.3c0 0 7.7-2 10.7-5.2 0 0-4.3-.9-2.8-5.2 1.5-4.2 7.7-2.3 10.9-5.2 0 0 .7 7.4-2.9 10.2-2.5 1.9-4.6.6-4.6.6s-1.9 2.5-8.9 4.9c0 0 10.7 8.4 31.7 6.8s23.6-1.4 23.6-1.4-4.8-7.7 2.4-10 15.8 6.9 20 5.8c0 0-6.9 13.5-19 9.1 0 0-1.5-.8-3.4-4.9m-592.2-9.5s-46.5 19.1-196.6 5.1l-6.7-1.1s-13.7-6.1-18.4-13c0 0 8.4-.4 6.9-8.8-1.5-8.2-13.7-6.8-18.7-13 0 0-3.6 13.6 2.3 19.9 4 4.3 8.4 2.5 8.4 2.5s2.7 5.3 15.2 11.9c0 0-42.1-2.5-54.2 0 0 0-2.5.7-4.4 4-5.4 10.3-9.8 12.5-9.8 12.5s1.4 3.6-2.1 6.9c-5.2 4.9-16.4 1.9-16.4 1.9 5.1-4.1 3.9-14.1 10.7-15.4 6.9-1.3 7.2 5.6 7.2 5.6 5.7-3.9 10.7-15.2 10.7-15.2s-30.4 2.5-41.5 0c0 0-5.7-1.6-8.5-3 0 0-11.2-5-15.2-10.7 0 0 6.9-.3 5.6-7.2C272 7.9 262 9.1 257.9 4c0 0-3 11.2 1.9 16.4 3.3 3.5 6.9 2.1 6.9 2.1s2.2 4.4 12.5 9.8c0 0-25.9-2.7-36.8 0-2.5.6-12.7 3.8-12.7 3.8s-2 3.4-3.6 5.9c-4.4 6.9-7.8 8.8-7.8 8.8s1.1 2.8-1.6 5.3c-4 3.7-12.6 1.4-12.6 1.4 3.9-3.2 3-10.9 8.2-11.8 5.3-1 5.5 4.3 5.5 4.3 4.3-3 9.8-13.9 9.8-13.9s-17.8 2.4-32.3 1.8c-7.1-.3-23.3-2.3-23.3-2.3s-9-4-12.1-8.5c0 0 5.5-.3 4.5-5.8-1-5.4-9-4.4-12.3-8.5 0 0-2.4 8.9 1.5 13.1 2.6 2.8 5.5 1.7 5.5 1.7s1.8 3.5 10 7.8c0 0-34.7-5.4-45.7 5.1-3.4 7-6.4 8.5-6.4 8.5s1 2.4-1.4 4.7c-3.5 3.3-11.1 1.3-11.1 1.3 3.5-2.8 2.7-9.6 7.2-10.4 4.7-.9 4.9 3.8 4.9 3.8 3.8-2.7 7.2-10.2 7.2-10.2S92.3 40.5 81 35.7c0 0-7.7-2-10.7-5.2 0 0 4.3-.9 2.8-5.2-1.5-4.2-7.7-2.3-10.9-5.2 0 0-.7 7.4 2.9 10.2 2.5 1.9 4.6.6 4.6.6s1.9 2.5 8.9 4.9c0 0-10.7 8.4-31.7 6.8s-23.6-1.4-23.6-1.4 4.8-7.7-2.4-10S5.1 38.1.9 37c0 0 6.9 13.5 19 9.1 0 0 1.5-.8 3.4-4.9"/>
  </g>
</svg>
