<svg xmlns="http://www.w3.org/2000/svg" viewBox="0 0 1188.7 31.1" stroke="#000">
  <path d="m15.557 1.475 14.141 14.143L15.556 29.76 1.414 15.617zm48.208-.021 14.142 14.143-14.142 14.141-14.142-14.142zm47.995.013L125.9 15.61l-14.14 14.142-14.143-14.143zm48.208-.022 14.142 14.143-14.142 14.142-14.142-14.143zm48.999.001 14.142 14.142-14.142 14.142-14.142-14.142zm48.208-.022 14.142 14.143-14.142 14.142-14.142-14.143zm47.995.013 14.142 14.142-14.143 14.142-14.141-14.142zm48.208-.021 14.142 14.142L353.378 29.7l-14.142-14.143zm48.002-.004 14.141 14.142-14.142 14.142-14.142-14.142zm48.278.049L463.8 15.604l-14.142 14.141-14.142-14.142zm47.994.013 14.142 14.142-14.142 14.142-14.142-14.142zm48.209-.022 14.142 14.143-14.142 14.142-14.142-14.143zm48.999.001 14.143 14.143-14.143 14.141-14.142-14.142zm48.209-.021 14.142 14.142-14.143 14.142-14.142-14.142zm47.994.012 14.142 14.142-14.143 14.142-14.141-14.142zm48.209-.021 14.142 14.142-14.143 14.142-14.142-14.142zm47.985.032L801.4 15.597 787.257 29.74l-14.142-14.142zm48.209-.021 14.142 14.142-14.142 14.142-14.142-14.142zm47.994.012 14.142 14.143L883.46 29.73l-14.142-14.143zm48.21-.021 14.141 14.142-14.142 14.142-14.142-14.142zm48.998 0 14.142 14.143-14.142 14.142-14.142-14.143zm48.209-.021 14.142 14.143-14.143 14.142-14.142-14.143zm47.993.013 14.142 14.143-14.142 14.142-14.142-14.143zm48.28.049 14.142 14.142-14.143 14.142-14.142-14.142zm48.001-.004 14.142 14.143-14.142 14.142-14.142-14.143z" fill="none" stroke-width="2" stroke-miterlimit="10"/>
</svg>
