<svg xmlns="http://www.w3.org/2000/svg" viewBox="0 0 1225.4 38.4" stroke="#000">
  <path fill="none" stroke-width="2" stroke-miterlimit="10" d="M1 5.7c11.1 6.6 10.7 15.1 17.7 13.5C28.2 17.1 26.5 3.9 37 4.5s6.4 17.2 17.4 14.9 11.3-15.6 17.4-15 8 18.1 15.6 15.2 12.9-17 17.8-15.2 11 17.4 16.2 15.5S136.1 3.7 141 4.3s6.4 16.2 13.2 15.8c6.7-.3 10.1-17.1 16.8-15.8s6.1 15.9 12 15.9 13.8-16.4 18.2-15.9 9 15.5 12.3 15.9S228 3.7 231.3 4.3s8.6 16.3 12.9 15.9c4.4-.3 16.5-16.8 19.8-16s7 16.3 13.6 16 11.7-16 17.8-16c4.3 0 10.2 16.1 16.2 16 3.7-.1 11.5-15.8 17.6-15.8 6.3 0 14.2 17.6 21.2 15.8 7-1.9 14.5-17.6 17.8-16.2s6.6 15.7 16.7 16.3c10 .6 13.1-17.5 21.1-16.4s8.5 19.7 18.6 16.4 13.7-15.8 19.7-15.5c7.8.4 13.2 19.5 20.6 16.3S477.3 2.8 483 3.8c6.2 1.1 8.2 17.3 13.6 17.5 5.4.3 12.8-19.5 17.3-18 4.6 1.5 10 19.6 14.4 18.8s9.5-20.6 13.3-19.3 8.9 22.4 12.7 20.5 14.6-23 19.2-20.6.8 20.5 10.5 19.8 12.9-21.6 19.1-20 3.7 20.6 11 20.2S625.8.3 630.6 2.5 639 22 644.4 22.6c5.3.7 15.5-21.5 20.5-20.3s5.8 19.8 12.1 20.3S690.1.7 694.6 2.2s8.3 21.5 13.6 20.4S721.7 0 727.8 2.1s6.1 19.6 11.9 20.5S755.9.6 762.8 2s6.6 20.7 16.3 20.7C788.8 22.6 793.9.3 799 2c5.2 1.7 11.5 21.6 19.2 20.7 7.7-.8 15-20.8 20.7-20.8s10.7 21.8 14.9 20.8 15.9-22.5 20-20.8 8.7 21.7 14.6 21 14.3-24.1 20.3-21 11 21 14.3 21c3.9 0 18.4-23.3 23.9-21.3s9.8 21.1 14.7 21.3c4.2.2 18.1-23.4 22.4-21.4 4.2 2 9.4 22.8 16.6 21.5s18.3-23.5 21.6-21.6c3.2 1.9 9.1 21.7 13.4 21.7 4.3-.1 18.6-23.3 24.3-21.8 5.7 1.6 8.3 21 14 21.8 5.7.9 14.7-23.3 22.6-22s12.3 21.9 19.2 21.9 13.5-21.9 19.5-21.9 12.4 21.9 18.4 21.9 14.3-21.9 21.6-21.9 6.3 22.8 16.1 22.8c7.4 0 19-27.1 25.8-21.4 5 4.3 12.2 17.1 3.4 31.1-3.9 6.3-11.8 3.9-14.6 0-5.1-7.1-8.8-22.8-16.1-22.8s-15.7 21.9-21.6 21.9-9-22.4-14.9-22.4-16 22.4-22.9 22.4-6.6-20.5-14.6-21.9-17.3 22.7-23 21.9c-5.7-.9-12.6-20.2-18.2-21.8-5.7-1.6-20 21.7-24.3 21.8s-10.2-19.8-13.4-21.7-14.4 20.3-21.6 21.6-9.6-21.5-15.6-21.5c-4.7 0-17.2 19.9-21.9 21.4-4.6 1.5-10.7-19.2-16.2-21.3S942 31.8 938.8 32.5c-3.2.6-8.5-21-14.4-21-6.8 0-11.4 20.2-17.3 21-5.9.7-14.5-19.2-18.6-20.9s-15.8 19.8-20 20.8-9.3-20.9-14.9-20.8-9.3 20-17 20.8-12.6-19-17.8-20.7-11.6 20.7-21.3 20.7-13.1-19.4-20-20.7-17.3 21.5-23.1 20.6-5.8-18.4-11.9-20.5-14.3 19.4-19.6 20.5-9.1-18.8-13.6-20.4-11.3 20.9-17.6 20.4-7.1-19.1-12.1-20.3-15.2 21-20.5 20.3-8.9-18-13.8-20.1-12.1 19.7-19.4 20.1-4.2-17.3-10.4-18.9-7.1 18.2-16.8 18.9-8.7-16-13.2-18.5c-4.6-2.4-14.2 16.5-18 18.4s-9.5-16.5-13.3-17.8-12.5 16.9-16.9 17.7-4.1-16.5-8.7-18-13.6 16.9-19 16.6-7.6-14.2-10.3-17.4c-3.7-4.5-10.6 13.8-18 17-7.3 3.2-10.2-14.5-15.8-16.8-5.5-2.4-11.6 13.2-21.7 16.5s-12.3-15.9-20.3-17-10.9 17.7-21 17.1c-10-.6-12.9-15-16.2-16.5-3.3-1.4-14 14.2-21.1 16.1s-10.2-16-16.5-16c-6.1 0-14.8 15.8-18.6 15.9-6.1.1-15.6-15.9-20-15.9-6.1 0-11.2 15.6-17.8 16s-10.3-15.1-13.6-16c-3.3-.8-15.4 15.6-19.8 16-4.4.3-9.7-15.3-12.9-15.9s-14.5 16.3-17.8 15.9-7.9-15.4-12.3-15.9-12.3 15.9-18.2 15.9-5.2-14.6-12-15.9c-6.7-1.3-10.1 15.5-16.8 15.8-6.7.4-8.3-15.2-13.2-15.8s-14.5 14-19.7 15.9-11.3-13.7-16.2-15.5-10.1 12.3-17.8 15.2-9.5-14.6-15.6-15.2S80 26.9 69 29.1s-7-14.4-17.4-14.9-8.8 12.6-18.2 14.7c-7 1.6-6.6-6.9-17.7-13.5"/>
</svg>
