<svg xmlns="http://www.w3.org/2000/svg" viewBox="0 0 1011.3 42.8" stroke="#000">
  <path fill="none" d="M929.7 19.9H533L505.7 39l-27.4-19.2m54.6 0L505.6.6l-27.3 19.2H81.6"/>
  <path fill="none" d="M157.8 19.9s-5.6-10.7-16.7-10.7c-15.3 0-16.4 27.3-32.7 27.3C87 36.6 80 9.3 66.3 9.3c-17.7 0-17.1 26.4-35.9 32C11.3 46.9-7 28.1 3.7 11.2c5.8-9.1 22.2-10.6 28.9.3 4.8 7.9-.7 20.6-10.5 19.2-11.5-1.6-9.2-13-4.1-16m835.6 5.2s5.6-10.7 16.7-10.7c15.3 0 16.4 27.3 32.7 27.3 21.3 0 28.3-27.3 42-27.3 17.7 0 17.1 26.4 35.9 32 19.1 5.6 37.4-13.1 26.7-30-5.8-9.1-22.2-10.6-28.9.3-4.8 7.9.7 20.6 10.5 19.2 11.5-1.6 9.2-13 4.1-16"/>
</svg>
