<svg xmlns="http://www.w3.org/2000/svg" viewBox="0 0 1198.7 21.1" stroke="#000">
  <path fill="none" d="m17.5 1-6 19.1M28.4 1l-6 19.1M38.9 1l-6 19.1M49.9 1l-6 19.1M60.4 1l-6 19.1M71.3 1l-6 19.1M81.8 1l-6 19.1M92.9 1l-6 19.1M103.4 1l-6 19.1M114.3 1l-6 19.1M124.8 1l-6 19.1m17-19.1-6 19.1M146.3 1l-6 19.1M157.2 1l-6 19.1M167.7 1l-6 19.1M178.8 1l-6 19.1M189.3 1l-6 19.1M200.2 1l-6 19.1M210.7 1l-6 19.1m17-19.1-6 19.1M232.2 1l-6 19.1M243.1 1l-6 19.1M253.6 1l-6 19.1M264.7 1l-6 19.1M275.2 1l-6 19.1M286.1 1l-6 19.1M296.6 1l-6 19.1m17-19.1-6 19.1M318.1 1l-6 19.1M329 1l-6 19.1M339.5 1l-6 19.1M350.2 1l-6 19.1M360.7 1l-6 19.1M371.6 1l-6 19.1M382.1 1l-6 19.1m17-19.1-6 19.1M403.6 1l-6 19.1M414.5 1l-6 19.1M425 1l-6 19.1M436.1 1l-6 19.1M446.6 1l-6 19.1M457.5 1l-6 19.1M468 1l-6 19.1M479 1l-6 19.1M489.5 1l-6 19.1M500.4 1l-6 19.1M510.9 1l-6 19.1M522 1l-6 19.1M532.5 1l-6 19.1M543.4 1l-6 19.1M553.9 1l-6 19.1m17-19.1-6 19.1M575.4 1l-6 19.1M586.3 1l-6 19.1M596.8 1l-6 19.1M607.9 1l-6 19.1M618.4 1l-6 19.1M629.3 1l-6 19.1M639.8 1l-6 19.1m17-19.1-6 19.1M661.3 1l-6 19.1M672.2 1l-6 19.1M682.7 1l-6 19.1M693.8 1l-6 19.1M704.3 1l-6 19.1M715.2 1l-6 19.1M725.7 1l-6 19.1m17-19.1-6 19.1M747.2 1l-6 19.1M758.1 1l-6 19.1M768.6 1l-6 19.1M779.7 1l-6 19.1M790.2 1l-6 19.1M801.1 1l-6 19.1M811.6 1l-6 19.1m17-19.1-6 19.1M833.1 1l-6 19.1M844 1l-6 19.1M854.5 1l-6 19.1M865.2 1l-6 19.1M875.7 1l-6 19.1M886.6 1l-6 19.1M897.1 1l-6 19.1m17-19.1-6 19.1M918.6 1l-6 19.1M929.5 1l-6 19.1M940 1l-6 19.1M951.1 1l-6 19.1M961.6 1l-6 19.1M972.5 1l-6 19.1M983 1l-6 19.1M994 1l-6 19.1M1004.5 1l-6 19.1M1015.4 1l-6 19.1M1025.9 1l-6 19.1M1037 1l-6 19.1M1047.5 1l-6 19.1M1058.4 1l-6 19.1M1068.9 1l-6 19.1m17-19.1-6 19.1M1090.4 1l-6 19.1M1101.3 1l-6 19.1M1111.8 1l-6 19.1M1122.9 1l-6 19.1M1133.4 1l-6 19.1M1144.3 1l-6 19.1M1154.8 1l-6 19.1m17-19.1-6 19.1M1176.3 1l-6 19.1M1187.2 1l-6 19.1M1197.7 1l-6 19.1"/>
</svg>
