<svg xmlns="http://www.w3.org/2000/svg" viewBox="0 0 1188.7 31.1" stroke="#000">
  <path d="M12.8 5.5 1.2 25.6h23.2zm83.1 0L84.4 25.6h23.1zM54.4 25.6 65.9 5.5H42.8zm83.1 0 11.6-20.1h-23.2zm41.4-20.1-11.6 20.1h23.1zm83.1 0-11.6 20.1h23.2zm-41.6 20.1L232 5.5h-23.1zm83.2 0 11.5-20.1H292zm41.5-20.1-11.5 20.1h23.1zm83.2 0-11.6 20.1h23.1zm-41.6 20.1 11.6-20.1h-23.2zm83.1 0 11.6-20.1h-23.1zm41.4-20.1-11.5 20.1h23.1zm83.2 0-11.6 20.1h23.1zm-41.6 20.1 11.6-20.1h-23.2zm83.1 0 11.6-20.1h-23.1zm41.6-20.1-11.6 20.1h23.2zm83.1 0-11.5 20.1h23.1zm-41.5 20.1 11.5-20.1h-23.1zm83.1 0 11.6-20.1h-23.2zm41.4-20.1L832 25.6h23.1zm83.1 0-11.6 20.1h23.2zm-41.6 20.1 11.6-20.1h-23.1zm83.2 0 11.5-20.1h-23.1zm41.5-20.1-11.5 20.1h23.1zm83.2 0-11.6 20.1h23.2zm-41.6 20.1L1063 5.5h-23.2zm83.2 0 11.5-20.1H1123zm41.3-20.1-11.5 20.1h23.1z" fill="none"/>
</svg>
