<svg version="1.2" baseProfile="tiny" xmlns="http://www.w3.org/2000/svg" viewBox="0 0 1188.7 31.1" xml:space="preserve" stroke="#000">
  <path fill="none" d="M33.3 9.2C43.8 15.4 43.4 23.4 50 21.9c8.9-2 7.4-14.4 17.2-13.9s6.1 16.2 16.5 14.1 10.6-14.6 16.4-14 7.5 17 14.7 14.3S127 6.3 131.6 8s10.4 16.4 15.3 14.6 13.9-15.4 18.5-14.8 6.1 15.3 12.4 14.9 9.5-16.1 15.9-14.9c6.3 1.2 5.7 15 11.3 14.9 5.6 0 13-15.5 17.2-15 4.1.4 8.5 14.6 11.6 15s13.7-15.6 16.8-15 8.1 15.4 12.2 15c4.1-.3 15.5-15.8 18.6-15s6.6 15.4 12.8 15 11-15.1 16.8-15.1c4.1 0 9.6 15.2 15.3 15.1 3.5-.1 15.2-15.1 21-15.1 6 0 9 16.8 15.6 15.1 6.6-1.8 13.7-16.6 16.8-15.2s6.2 14.8 15.7 15.4 12.3-16.5 19.9-15.5 8.1 18.6 17.5 15.5c9.5-3.1 19.4-17.7 24.6-15.5s7.9 18.9 14.9 15.9 18-20.3 21.5-16c2.5 3-.1 16.2 5 16.5s15.7-18.6 20.1-17.1 1.9 19.2 6 18.4 14.4-19.7 18-18.5 6.9 20.3 10.5 18.5c3.6-1.9 15.2-21 19.6-18.6s.8 19.4 9.9 18.7 12.2-20.4 18-18.9.8 19.3 7.6 18.9c6.9-.4 13.7-21.1 18.3-19s8 18.4 13 19S654.4 4.9 659.1 6s5.5 18.7 11.4 19.2S682.9 4.5 687.1 6s7.8 20.2 12.8 19.2 12.7-21.3 18.5-19.3 5.8 18.5 11.2 19.3c5.5.9 15.2-20.7 21.7-19.5s6.2 19.5 15.4 19.5c9.2-.1 17-21.1 21.9-19.5s11.2 20.3 18.5 19.5c7.2-.8 10.7-19.6 16.1-19.6 5.3 0 10.1 20.6 14.1 19.6 4-.9 15-21.2 18.9-19.6s12 20.4 17.5 19.7c5.6-.7 9.7-22.6 15.4-19.8s11.4 20.4 14.5 19.8 16.3-22 21.5-20c5.2 1.9 10.9 21.5 15.3 20.1S956 3.3 960 5.2s8.9 21.5 15.7 20.3C982.4 24.2 992.9 3.3 996 5c3.1 1.8 8.6 20.5 12.6 20.4s17.6-22 22.9-20.5c5.4 1.5 11.8 19.7 17.2 20.5s14.1-21.9 21.7-20.6c7.5 1.3 7.3 20.6 13.8 20.6s12.7-20.7 18.3-20.7 11.7 20.7 17.3 20.7 13.5-20.7 20.4-20.7 6.9 21.5 15.2 21.5"/>
</svg>
