<svg xmlns="http://www.w3.org/2000/svg" viewBox="0 0 1170.4 28.1" stroke="#000">
  <path fill="none" d="M584.7 28.1V1h26.9v19.6h-13.8v-6.5h7.2V7.5h-13.8v19.6h27.9V1H646v19.6h-13.8v-6.5h7.2V7.5h-13.8v19.6h27.9V1h26.8v19.6h-13.8v-6.5h7.3V7.5H660v19.6h27.9V1h26.8v19.6h-13.8v-6.5h7.3V7.5h-13.8v19.6h27.9V1h26.8v19.6h-13.8v-6.5h7.3V7.5h-13.8v19.6h27.9V1h26.8v19.6h-13.8v-6.5h7.3V7.5h-13.8v19.6h27.9V1h26.8v19.6h-13.8v-6.5h7.3V7.5h-13.8v19.6h27.9V1h26.8v19.6h-13.8v-6.5h7.3V7.5H832v19.6h27.8V1h26.9v19.6h-13.8v-6.5h7.3V7.5h-13.8v19.6h27.8V1h26.9v19.6h-13.8v-6.5h7.3V7.5h-13.8v19.6h27.8V1h26.9v19.6h-13.8v-6.5h7.3V7.5h-13.8v19.6H963V1h26.9v19.6h-13.8v-6.5h7.3V7.5h-13.8v19.6h27.8V1h26.9v19.6h-13.8v-6.5h7.3V7.5H1004v19.6h27.8V1h26.9v19.6h-13.8v-6.5h7.2V7.5h-13.8v19.6h27.9V1h26.9v19.6h-13.8v-6.5h7.2V7.5h-13.8v19.6h27.9V1h26.9v19.6h-13.8v-6.5h7.2V7.5h-13.8v19.6h27.9V1h26.9v19.6h-13.8v-6.5h7.2V7.5h-13.8v19.6h27.9V1M584.7 27.1h-26.9V7.5h13.8v6.6h-7.2v6.5h13.8V1h-27.9v26.1h-26.9V7.5h13.8v6.6H530v6.5h13.8V1h-27.9v26.1H489V7.5h13.8v6.6h-7.2v6.5h13.8V1h-27.9v26.1h-26.9V7.5h13.8v6.6h-7.2v6.5H475V1h-27.9v26.1h-26.8V7.5h13.8v6.6h-7.3v6.5h13.8V1h-27.9v26.1h-26.8V7.5h13.8v6.6h-7.3v6.5h13.8V1h-27.9v26.1h-26.8V7.5h13.8v6.6H358v6.5h13.8V1h-27.9v26.1h-26.8V7.5h13.8v6.6h-7.3v6.5h13.8V1h-27.9v26.1h-26.8V7.5h13.8v6.6h-7.3v6.5H303V1h-27.8v26.1h-26.9V7.5h13.8v6.6h-7.3v6.5h13.8V1h-27.8v26.1h-26.9V7.5h13.8v6.6h-7.3v6.5h13.8V1h-27.8v26.1h-26.9V7.5h13.8v6.6H186v6.5h13.8V1H172v26.1h-26.9V7.5h13.8v6.6h-7.3v6.5h13.8V1h-27.8v26.1h-26.9V7.5h13.8v6.6h-7.3v6.5H131V1h-27.8v26.1H76.3V7.5h13.8v6.6h-7.3v6.5h13.8V1H68.8v26.1H41.9V7.5h13.8v6.6h-7.2v6.5h13.8V1H34.4v26.1H7.5V7.5h13.8v6.6h-7.2v6.5h13.8V1H0v27.1"/>
</svg>
