<svg xmlns="http://www.w3.org/2000/svg" viewBox="0 0 1121 41" stroke="#000">
  <g fill="none">
    <circle cx="5.5" cy="20.5" r="5"/>
    <circle cx="35.5" cy="20.5" r="5"/>
    <circle cx="20.5" cy="5.5" r="5"/>
    <circle cx="65.5" cy="20.5" r="5"/>
    <circle cx="50.5" cy="35.5" r="5"/>
    <circle cx="95.5" cy="20.5" r="5"/>
    <circle cx="80.5" cy="5.5" r="5"/>
    <circle cx="125.5" cy="20.5" r="5"/>
    <circle cx="110.5" cy="35.5" r="5"/>
    <circle cx="155.5" cy="20.5" r="5"/>
    <circle cx="140.5" cy="5.5" r="5"/>
    <circle cx="185.5" cy="20.5" r="5"/>
    <circle cx="170.5" cy="35.5" r="5"/>
    <circle cx="215.5" cy="20.5" r="5"/>
    <circle cx="200.5" cy="5.5" r="5"/>
    <circle cx="245.5" cy="20.5" r="5"/>
    <circle cx="230.5" cy="35.5" r="5"/>
    <circle cx="275.5" cy="20.5" r="5"/>
    <circle cx="260.5" cy="5.5" r="5"/>
    <circle cx="305.5" cy="20.5" r="5"/>
    <circle cx="290.5" cy="35.5" r="5"/>
    <circle cx="335.5" cy="20.5" r="5"/>
    <circle cx="320.5" cy="5.5" r="5"/>
    <circle cx="365.5" cy="20.5" r="5"/>
    <circle cx="350.5" cy="35.5" r="5"/>
    <circle cx="395.5" cy="20.5" r="5"/>
    <circle cx="380.5" cy="5.5" r="5"/>
    <circle cx="425.5" cy="20.5" r="5"/>
    <circle cx="410.5" cy="35.5" r="5"/>
    <circle cx="455.5" cy="20.5" r="5"/>
    <circle cx="440.5" cy="5.5" r="5"/>
    <circle cx="485.5" cy="20.5" r="5"/>
    <circle cx="470.5" cy="35.5" r="5"/>
    <circle cx="515.5" cy="20.5" r="5"/>
    <circle cx="500.5" cy="5.5" r="5"/>
    <circle cx="545.5" cy="20.5" r="5"/>
    <circle cx="530.5" cy="35.5" r="5"/>
    <circle cx="575.5" cy="20.5" r="5"/>
    <circle cx="560.5" cy="5.5" r="5"/>
    <circle cx="605.5" cy="20.5" r="5"/>
    <circle cx="590.5" cy="35.5" r="5"/>
    <circle cx="635.5" cy="20.5" r="5"/>
    <circle cx="620.5" cy="5.5" r="5"/>
    <circle cx="665.5" cy="20.5" r="5"/>
    <circle cx="650.5" cy="35.5" r="5"/>
    <circle cx="695.5" cy="20.5" r="5"/>
    <circle cx="680.5" cy="5.5" r="5"/>
    <circle cx="725.5" cy="20.5" r="5"/>
    <circle cx="710.5" cy="35.5" r="5"/>
    <circle cx="755.5" cy="20.5" r="5"/>
    <circle cx="740.5" cy="5.5" r="5"/>
    <circle cx="785.5" cy="20.5" r="5"/>
    <circle cx="770.5" cy="35.5" r="5"/>
    <circle cx="815.5" cy="20.5" r="5"/>
    <circle cx="800.5" cy="5.5" r="5"/>
    <circle cx="845.5" cy="20.5" r="5"/>
    <circle cx="830.5" cy="35.5" r="5"/>
    <circle cx="875.5" cy="20.5" r="5"/>
    <circle cx="860.5" cy="5.5" r="5"/>
    <circle cx="905.5" cy="20.5" r="5"/>
    <circle cx="890.5" cy="35.5" r="5"/>
    <circle cx="935.5" cy="20.5" r="5"/>
    <circle cx="920.5" cy="5.5" r="5"/>
    <circle cx="965.5" cy="20.5" r="5"/>
    <circle cx="950.5" cy="35.5" r="5"/>
    <circle cx="995.5" cy="20.5" r="5"/>
    <circle cx="980.5" cy="35.5" r="5"/>
    <circle cx="1025.5" cy="20.5" r="5"/>
    <circle cx="1010.5" cy="5.5" r="5"/>
    <circle cx="1055.5" cy="20.5" r="5"/>
    <circle cx="1040.5" cy="35.5" r="5"/>
    <circle cx="1085.5" cy="20.5" r="5"/>
    <circle cx="1070.5" cy="5.5" r="5"/>
    <circle cx="1115.5" cy="20.5" r="5"/>
    <circle cx="1100.5" cy="35.5" r="5"/>
  </g>
</svg>
