<svg xmlns="http://www.w3.org/2000/svg" viewBox="0 0 150 50">
  <path d="M128 27.9c-1.2 6.2-1.9 11.7-4.4 17.3-.6-.7-1.1-1.4-1.7-2.1C124.5 21.2 107.3.6 84.6 2.4c-2.1.2-4.4.7-6.6 1.4C67-1.4 52.2-1 41.8 3.5c-9.7 4.3-17.6 12.1-22 21.8-3.5 7.6-6.2 18.8 1.7 24.5 1 .7 2.2-.6 1.3-1.4-10.1-8 .1-25.4 6.5-32.4C36 8.7 45.3 4.1 55.2 3.1c6.1-.6 12.7.1 18.5 2.5C61.2 11.5 51 25 61.5 37.7c12.3 14.9 33.9 1.1 30.4-16.3-1.4-6.7-5.1-11.7-10.1-15.2 1.6-.3 3.2-.4 4.7-.5 19.2-.4 32.2 15.8 32.3 33.8-2.8-3.4-5.6-6.8-8.5-10-.8-.9-2.3.4-1.6 1.4 3.2 4.5 6.6 8.8 10 13.2.1.5.4.9.8 1.1l3 3.9c.7 1 2.1 1 2.8-.1 3.4-6 6.2-13.7 5.2-20.7-.2-1.5-2.2-1.9-2.5-.4M80.1 39.5c-14.7 5.8-24.2-11.8-15.8-23.1 3.2-4.3 7.9-7.4 13-9.1 2.1 1.2 4 2.6 5.8 4.4 7.8 7.8 8.8 23.2-3 27.8"/>
</svg>
