<svg xmlns="http://www.w3.org/2000/svg" viewBox="0 0 150 50">
  <path class="st0" d="M5.7 40.9c-.8-.1-1.5.5-1.5 1.3-.1.8.5 1.5 1.3 1.5.8.1 1.5-.5 1.5-1.2.1-.8-.5-1.5-1.3-1.6"/>
  <circle class="st0" cx="10.4" cy="36.6" r="1.7"/>
  <path class="st0" d="M15.8 29c-1.1-.1-2 .7-2.1 1.8s.7 2 1.8 2.1 2-.7 2.1-1.8-.8-2.1-1.8-2.1m6-6.1c-1.1-.1-2.1.8-2.2 1.9s.8 2.1 1.9 2.2 2.1-.8 2.2-1.9-.8-2.1-1.9-2.2"/>
  <circle class="st0" cx="28.3" cy="19.9" r="2"/>
  <path class="st0" d="M36.2 12.7c-1.1-.1-2.1.8-2.2 1.9s.8 2.1 1.9 2.2 2.1-.8 2.2-1.9c.1-1.2-.7-2.1-1.9-2.2m19.2-6.9c-1.2-.1-2.2.8-2.3 2s.8 2.2 2 2.3 2.2-.8 2.3-2-.8-2.3-2-2.3m-9.9 3c-1.2-.1-2.3.8-2.3 2-.1 1.2.8 2.3 2 2.3 1.2.1 2.3-.8 2.3-2 .1-1.2-.8-2.2-2-2.3"/>
  <circle class="st0" cx="65.9" cy="6" r="2.4"/>
  <circle class="st0" cx="76.8" cy="4.8" r="2.4"/>
  <circle class="st0" cx="88.7" cy="6.1" r="2.4"/>
  <circle class="st0" cx="99.9" cy="9.4" r="2.4"/>
  <circle class="st0" cx="109.7" cy="13.4" r="2.4"/>
  <circle class="st0" cx="119.6" cy="19.1" r="2.4"/>
  <circle class="st0" cx="128.5" cy="25.6" r="2.4"/>
  <circle class="st0" cx="135.3" cy="32.5" r="2.4"/>
  <circle class="st0" cx="142.6" cy="41.8" r="2.4"/>
  <circle class="st0" cx="143.1" cy="34.7" r="2.4"/>
  <circle class="st0" cx="143.6" cy="27.9" r="2.4"/>
  <circle class="st0" cx="144.1" cy="21" r="2.4"/>
  <circle class="st0" cx="120.9" cy="40.3" r="2.4"/>
  <circle class="st0" cx="127.8" cy="40.8" r="2.4"/>
  <circle class="st0" cx="134.6" cy="41.3" r="2.4"/>
</svg>
