<svg xmlns="http://www.w3.org/2000/svg" viewBox="0 0 150 50">
  <path d="M137 10.3c2.7 5.7 4.5 12.2 6.5 18.2.4 1.3-1 2.6-2.2 2.2-6.7-2.3-13.5-4.5-20.3-6.8-1.8-.6-1.1-3.4.7-2.8 3.2.9 6.5 1.9 9.7 2.9 0-.1-.1-.1-.1-.2-3.7-6.4-13.1-18.6-20.2-7.5-2.3 3.7-2.6 8.7-3.8 12.8-1.5 5-4.3 9.8-10 10.3-6.2.5-10.7-4.9-13.6-9.6-2.6-4.4-4.6-9.3-6.8-13.9-.7-1.6-1.5-3.2-2.3-4.8-2.8-4.2-6.4-4.2-8.5-4.1-4.3.2-8.4 5.4-10.7 8.6-6.2 8.6-9.8 41.1-27.6 32.9C12.2 41.2 6.5 16.6 7.9 1.1 8-.1 9.8-.1 9.8 1.1c-.1 11.7 2.5 23.1 8.8 33 3.8 6.1 9.8 14 18.2 11 5.3-1.9 7.1-11.7 8.6-16.3 3.1-9.7 16.7-35.6 30.3-23 6.8 6.4 7.8 17.8 13.8 25 11.8 14.2 14.5-6.5 17.4-13.9 2.1-5.2 5.9-9.1 11.9-8.7 7.9.4 12.6 7.3 15.8 13.7.6 1.1-.1 2.1-1 2.5 1.8.5 3.6 1.1 5.3 1.6-1.9-4.8-3.8-9.6-5-14.5-.5-1.8 2.3-3.1 3.1-1.2"/>
</svg>
