<svg xmlns="http://www.w3.org/2000/svg" viewBox="0 0 52 52" xml:space="preserve">
  <path d="M28.4 3.4c-1-.6-2.1-.5-3.1 0l-.1.1L11.6 15H1c-.6 0-1 .4-1 1v19c0 .3.1.5.3.7s.4.3.7.3h10.6l13.5 12.4s.1.1.2.1c.5.3 1 .4 1.6.4.5 0 1-.1 1.5-.4 1-.6 1.6-1.6 1.6-2.8V6.2c0-1.2-.6-2.2-1.6-2.8M28 45.9c0 .4-.2.8-.6 1-.2.1-.5.3-1 0L13 34.6V30c0-.6-.4-1-1-1s-1 .4-1 1v4H2V17h9v4c0 .6.4 1 1 1s1-.4 1-1v-4.5L26.4 5.1c.5-.2.9-.1 1 0 .4.2.6.6.6 1zM38.8 7.1c-.5-.2-1.1.1-1.3.6s.1 1.1.6 1.3C45.3 11.4 50 18 50 25.5s-4.8 14.1-11.8 16.6c-.5.2-.8.7-.6 1.3.1.4.5.7.9.7.1 0 .2 0 .3-.1C46.7 41.3 52 33.9 52 25.5c0-8.3-5.3-15.7-13.2-18.4"/>
  <path d="M43 25.5c0-6-4-11.3-9.7-13-.5-.2-1.1.2-1.2.7-.2.5.2 1.1.7 1.2 4.9 1.4 8.3 6 8.3 11s-3.4 9.6-8.3 11c-.5.2-.8.7-.7 1.2.1.4.5.7 1 .7h.3C39 36.8 43 31.5 43 25.5"/>
</svg>
