<svg xmlns="http://www.w3.org/2000/svg" viewBox="0 0 54 54" xml:space="preserve">
  <path d="m46.4 26 7.3-7.3c.4-.4.4-1 0-1.4s-1-.4-1.4 0L45 24.6l-7.3-7.3c-.4-.4-1-.4-1.4 0s-.4 1 0 1.4l7.3 7.3-7.3 7.3c-.4.4-.4 1 0 1.4.2.2.5.3.7.3s.5-.1.7-.3l7.3-7.3 7.3 7.3c.2.2.5.3.7.3s.5-.1.7-.3c.4-.4.4-1 0-1.4zm-18-21.6c-1-.6-2.1-.5-3.1 0l-.1.1L11.6 16H1c-.6 0-1 .4-1 1v19c0 .3.1.5.3.7s.4.3.7.3h10.6l13.5 12.4s.1.1.2.1c.5.3 1 .4 1.6.4.5 0 1-.1 1.5-.4 1-.6 1.6-1.6 1.6-2.8V7.2c0-1.2-.6-2.2-1.6-2.8M28 46.8c0 .4-.2.8-.6 1-.2.1-.5.3-1 0L13 35.6V31c0-.6-.4-1-1-1s-1 .4-1 1v4H2V18h9v4c0 .6.4 1 1 1s1-.4 1-1v-4.5L26.4 6.1c.5-.2.9-.1 1 0 .4.2.6.6.6 1z"/>
</svg>
