<svg xmlns="http://www.w3.org/2000/svg" id="Layer_1_1_" height="512" viewBox="0 0 256 256" width="512"><path d="m66.657 169.366-23.307 46.331-32.536 13.472c-.844.478-1.45 1.286-1.673 2.23-.514 2.184 1.143 4.275 3.386 4.275h39.079c2.806 0 5.153-2.134 5.419-4.927l.885-9.294 28.672-37.836c2.516-3.32 4.647-6.909 6.4-10.685-3.769.167-10.474.439-14.181.439-3.898.001-9.426-2.595-12.144-4.005z" fill="#f5d3a6"></path><path d="m138.924 55.959-5.689 3.081-2.892-7.884c-24.266 16.544-39.123 61.188-39.123 61.188l-12.417 27.127-8.809 23.262-3.336 6.632c2.718 1.41 8.246 4.006 12.145 4.006 3.707 0 10.412-.272 14.181-.439.178-.384.373-.759.543-1.147l12.804-29.226s37.057-46.115 42.227-58.326v-.001c-3.678-10.201-7.267-20.995-9.634-28.273z" fill="#514654"></path><path d="m138.924 55.959-5.689 3.081-2.89-7.88c-24.267 16.544-39.124 61.184-39.124 61.184l-12.417 27.127-1.051 2.776 17.012-25.08s11.774-22.179 28.874-40.357c3.787-4.026 10.624-1.446 10.639 4.081v.138c0 7.642-.563 17.474-1.282 26.928 7.242-9.859 13.63-19.16 15.562-23.725v-.001c-3.678-10.2-7.267-20.994-9.634-28.272z" fill="#403742"></path><path d="m80.181 109.267-9.373 24.388-16.185-9.768 8.658-18.181z" fill="#f0c792"></path><path d="m17.664 144.984 10.358-20.186c-2.514-3.662-7.245-5.301-11.984-4.877-6.989.626-12.147 6.8-11.521 13.789.598 6.677 6.55 11.385 13.147 11.274z" fill="#704c0f"></path><path d="m16.531 125.24c.015-.001.031-.003.046-.004 1.899-.164 3.115 1.983 2.103 3.598-2.699 4.306-4.353 9.212-4.311 13.784.006.677.053 1.355.118 2.031 1.029.23 2.093.354 3.177.335l10.358-20.186c-.269-.392-.573-.751-.892-1.094-.129-.14-.263-.273-.399-.405-.18-.173-.367-.336-.558-.496-.453-.383-.934-.732-1.446-1.041-.003-.002-.006-.004-.009-.006-2.477-1.486-5.568-2.113-8.676-1.836-4.639.414-8.646 3.53-10.488 7.808-1.397 3.245-1.306 6.101-.496 8.598.718-5.812 5.402-10.543 11.473-11.086z" fill="#5e400d"></path><path d="m48.018 170.901c5.762-2.281 10.973-6.864 10.973-6.864l9.592-.834.198-6.716s6.247-4.216 8.089-7.564c2.101-3.818 1.436-10.685.696-14.732-.601-3.286-2.271-5.962-4.492-8.22-2.874-2.923-6.67-5.148-10.259-7.094-3.825-2.074-8.878-1.774-13.06-1.425-1.362.114-2.751.281-4.146.493-3.994 8.873 2.408 52.955 2.409 52.956z" fill="#f5d3a6"></path><path d="m29.102 168.12c4.159 3.368 11.216 4.924 16.426 3.597.832-.212 1.666-.491 2.489-.816 0-.001-6.403-44.083-2.409-52.956-3.778.576-7.599 1.515-11.052 2.852-9.199 3.562-16.99 15.007-16.899 24.875.079 8.543 4.946 17.184 11.445 22.448z" fill="#704c0f"></path><g fill="#5e400d"><path d="m28.967 157.494c5.451 3.722 12.362 4.333 17.825 4.051-.059-.489-.119-.986-.18-1.501-5.227.251-11.776-.336-16.81-3.773-4.713-3.217-8.893-8.399-12.002-12.988-.09.803-.15 1.602-.142 2.389 0 .014.002.028.002.042 3.037 4.26 6.919 8.784 11.307 11.78z"></path><path d="m34.337 136.652c3.712.683 7.314 2.384 10.43 4.291-.042-.609-.08-1.214-.118-1.818-3.027-1.752-6.463-3.271-10.043-3.93-4.517-.83-9.444-1.287-13.657-1.54-.257.475-.5.954-.73 1.439 4.296.242 9.438.697 14.118 1.558z"></path><path d="m22.4 131.221c3.887-1.272 8.488-2.502 12.492-2.814 3.222-.252 6.515.484 9.408 1.519-.004-.539-.001-1.063.003-1.581-2.928-.992-6.232-1.671-9.527-1.414-3.524.276-7.428 1.211-10.942 2.275-.505.649-.978 1.326-1.434 2.015z"></path></g><path d="m73.061 29.161c-2.849-.935-5.964-.594-8.543.935l-16.512 9.792c-.786.466-1.268 1.313-1.268 2.227 0 1.43 1.159 2.589 2.589 2.589h6.807l-10.057 9.268c-1.755 1.617-2.373 4.127-1.571 6.375l.336.94c1.186 3.321 4.986 4.887 8.167 3.365l6.494-3.105 12.469-10.854 8.209-19.195z" fill="#f0c792"></path><path d="m98.543 29.974c-8.126 6.095-8.126 6.095-8.126 6.095l-2.166 2.034-23.278 18.936-11.655 9.606c-5.844 4.816-9.555 11.741-10.331 19.274l-.427 4.15c-.545 5.297.393 10.511 2.557 15.141 2.736 5.854 7.879 10.07 13.908 11.852l6.141.933c.122.002.242.013.364.013l25.691-5.662c4.764-1.05 9.086-3.553 12.367-7.163 3.325-3.657 5.416-8.268 5.977-13.178l.217-1.901c.626-5.482 2.445-10.76 5.328-15.464 2.501-4.08 5.753-7.624 9.555-10.477l-20.087-37.833c-2.445 1.291-4.557 2.536-6.035 3.644z" fill="#7f8b4b"></path><path d="m104.578 26.33 20.087 37.832c1.45-1.088 2.973-2.084 4.576-2.958l3.994-2.163-14.432-39.344c-4.838 2.068-10.036 4.421-14.225 6.633z" fill="#f5d3a6"></path><path d="m248.707 225.1-4.904-5.678-10.966-40.34c-2.153-7.92-5.697-15.393-10.467-22.071l-4.83-6.762c-5.554 6.717-14.967 10.055-19.745 11.384l16.043 29.347 12.952 31.744-26.453 11.939c-1.365.616-2.243 1.975-2.243 3.474 0 2.034 1.598 3.71 3.63 3.807l40.717-1.288c2.795-.259 5.329-1.749 6.914-4.065 2.415-3.534 2.149-8.252-.648-11.491z" fill="#f5d3a6"></path><path d="m217.539 150.249-13.353-18.694-17.777-60.44-5.323-26.969c-1.488-7.54-5.439-14.372-11.232-19.423l-1.961-1.71c-5.777-5.036-13.059-8.017-20.709-8.476l-5.961-.358c-5.153-.309-10.305.539-15.092 2.473-2.19.885-4.707 1.924-7.329 3.045l14.432 39.344 5.689-3.081c4.963 15.255 15.287 45.965 20.568 54.264 4.656 7.316 11.924 18.331 16.388 25.066 2.595 3.915 5.687 7.468 9.204 10.581l.873.773c4.669 4.131 8.585 9.042 11.576 14.512l.262.478c4.778-1.33 14.192-4.668 19.745-11.385z" fill="#514654"></path><path d="m150.727 76.268c-4.762-28.571-13.853-38.268-13.853-38.268l2.049 17.959c4.038 12.412 11.624 35.052 17.156 47.531-1.759-7.63-3.613-16.787-5.352-27.222z" fill="#403742"></path><path d="m109.477 85.433-.597 1.818c-1.541 4.696-4.52 8.789-8.515 11.7-3.943 2.873-8.68 4.452-13.559 4.518l-26.305.359c-.119-.025-.235-.06-.353-.086l-5.826-2.153c-5.545-2.963-9.731-8.131-11.229-14.416-.061-.255-.103-.514-.157-.77l-.377 3.667c-.545 5.297.393 10.511 2.557 15.141 2.736 5.854 7.879 10.07 13.908 11.852l6.141.933c.122.002.242.013.364.013l25.691-5.662c4.764-1.05 9.086-3.553 12.367-7.163 3.325-3.657 5.416-8.268 5.977-13.178l.217-1.901c.626-5.482 2.445-10.76 5.328-15.464.053-.086.111-.169.165-.255-2.524 3.328-4.488 7.059-5.797 11.047z" fill="#727d43"></path><path d="m79.39 32.112-5.248 5.248c-3.152 3.152-5.461 7.045-6.716 11.321l-11.8 40.209-2.073 8.171c-1.44 5.675-.633 11.688 2.254 16.782 1.467 2.589 4.167 4.237 7.14 4.358 2.303.094 4.548-.739 6.231-2.313 5.877-5.494 9.831-12.732 11.276-20.646l7.424-40.635.843-11.489c.284-3.864-.919-7.69-3.362-10.697l-.002-.002c-1.505-1.85-4.28-1.993-5.967-.307z" fill="#f5d3a6"></path></svg>