<svg xmlns="http://www.w3.org/2000/svg" id="Layer_1_1_" height="512" viewBox="0 0 256 256" width="512"><path d="m128.12 122.356c3.477 1.329 7.881 5.036 9.993 6.927l4.542-10.698.299-22.527-2.248-8.858c-.747-2.943-2.836-5.362-5.638-6.53l-5.734-2.389c-1.975-.823-4.245-.479-5.888.892-2.082 1.737-2.664 4.694-1.397 7.091l10.026 18.967-2.233 4.839-15.602 13.589c3.311-.947 10.33-2.66 13.88-1.303z" fill="#f5d3a6"></path><path d="m250.062 85.391-5.944-6.214.252-9.564c.079-3.008-.583-5.989-1.929-8.68l-4.539-9.078c-.525-1.049-1.597-1.712-2.77-1.712-1.787 0-3.203 1.507-3.091 3.291l.92 14.728c.228 3.654-1.278 7.202-4.065 9.577l-5.623 4.79-50.378 1.292 2.118 20.341.916.299c10.3 3.359 21.509 2.525 31.199-2.32 5.721-2.861 12.03-4.35 18.426-4.35h13.725l6.955-1.087c2.941-.459 5.232-2.795 5.634-5.745.278-2.036-.387-4.085-1.806-5.568z" fill="#f5d3a6"></path><path d="m144.736 137.978c1.626.691 2.745 1.129 2.973 1.129.656 0 13.643 4.239 24.247 7.736 5.395 1.78 10.408 4.478 14.841 7.941-4.166-7.93-9.84-17.845-9.84-17.845l-8.403-20.91 1.762-13.401 4.697 1.532-2.118-20.341-15.406.395c-4.332.111-8.414 2.05-11.237 5.338-1.906 2.219-3.136 4.937-3.547 7.833-.88 6.201-.987 12.488-.318 18.716z" fill="#514654"></path><path d="m144.736 137.978c1.626.691 2.745 1.129 2.973 1.129.656 0 13.643 4.239 24.247 7.736 5.395 1.78 10.408 4.478 14.841 7.941-1.196-2.276-2.515-4.715-3.79-7.036-.961-.542-1.933-1.037-2.914-1.462-14.085-6.107-27.701-25.393-33.808-36-2.119-3.68-3.23-7.669-3.78-11.31-.684 5.684-.729 11.429-.118 17.125z" fill="#403742"></path><path d="m55.839 183.274-6.438 13.788 17.134.032 1.896-13.505z" fill="#f0c792"></path><path d="m162.27 206.482c-10.174 0-78.749 0-78.953 0-6.387 0-18.468-2.355-17.114-10.856.677-4.252 1.329-8.507 1.978-12.762.601-3.941 5.242-8.048 7.658-11.122 2.021-2.571 4.041-5.142 6.062-7.713 2.863-2.658 6.448-4.409 10.305-5.031 3.675-.593 7.443-.136 10.87 1.318l18.569 8.898 35.904 5.425z" fill="#7f8b4b"></path><path d="m157.547 174.64 4.723 31.842 11.719-.078-10.575-29.908c-1.986-.566-3.935-1.196-5.867-1.856z" fill="#f5d3a6"></path><path d="m20.916 162.055c5.312-.281 11.017 1.431 11.017 1.431l7.783-2.78 2.557 5.169s6.382 1.055 9.017 3.008c3.005 2.228 4.942 7.823 5.813 11.246.707 2.779.36 5.464-.564 8.02-1.197 3.309-3.362 6.403-5.467 9.205-2.243 2.986-6.293 4.56-9.68 5.783-1.103.398-2.247.765-3.411 1.098-6.292-5.493-17.065-42.179-17.065-42.18z" fill="#f5d3a6"></path><path d="m7.152 170.991c2.04-4.115 6.99-7.854 11.529-8.682.725-.132 1.476-.213 2.234-.253 0 .001 10.773 36.686 17.063 42.181-3.154.902-6.471 1.536-9.644 1.728-8.451.511-18.625-5.632-22.083-13.364-2.994-6.695-2.287-15.177.901-21.61z" fill="#704c0f"></path><g fill="#5e400d"><path d="m10.848 179.331c2.922-4.854 8.095-7.803 12.459-9.537.128.403.259.812.396 1.235-4.168 1.674-9.068 4.474-11.767 8.957-2.527 4.196-3.935 9.734-4.718 14.427-.357-.594-.69-1.196-.966-1.813-.005-.011-.009-.023-.014-.034.847-4.41 2.257-9.328 4.61-13.235z"></path><path d="m22.493 193.672c2.652-1.86 4.854-4.476 6.603-7.079.185.49.372.976.559 1.461-1.735 2.45-3.872 4.864-6.431 6.659-3.227 2.263-6.908 4.382-10.105 6.087-.37-.279-.732-.566-1.084-.862 3.265-1.726 7.113-3.921 10.458-6.266z"></path><path d="m15.122 202.179c3.488-.398 7.518-1.084 10.753-2.272 2.604-.956 4.91-2.708 6.797-4.55.19.422.379.83.568 1.233-1.93 1.822-4.265 3.533-6.928 4.511-2.848 1.045-6.229 1.712-9.351 2.139-.627-.327-1.238-.686-1.839-1.061z"></path></g><path d="m162.27 206.482 11.719-.078-2.82-7.975c-1.749.569-3.55 1.045-5.401 1.428-1.22.252-2.702.441-4.396.575z" fill="#f0c792"></path><path d="m162.27 206.482-.897-6.05c-24.22 1.926-92.942-7.432-92.942-7.432l-1.994 1.113c-.08.504-.154 1.009-.235 1.514-1.354 8.501 10.727 10.856 17.114 10.856.205-.001 68.78-.001 78.954-.001z" fill="#727d43"></path><path d="m177.488 119.378-8.934-3.35-5.956 6.328-2.233 7.863-33.401 28.839-31.368 9.828-14.084 4.371c-4.93 1.53-9.413 4.237-13.063 7.886-3.115 3.115-4.866 7.341-4.866 11.746 0 2.947 1.331 5.735 3.621 7.589 2.611 2.114 6.126 2.737 9.305 1.649l.086-.03c5.956-2.037 11.724-4.587 17.239-7.62l48.121-26.463 26.599-28.909 11.539-2.978v-7.817z" fill="#f5d3a6"></path><path d="m200.444 177.202-.153-1.356c-.549-4.864-2.477-9.47-5.558-13.275-5.928-7.319-13.832-12.779-22.776-15.729-10.604-3.498-23.591-7.736-24.247-7.736-.542 0-6.088-2.458-11.65-4.987l2.054-4.837c-2.111-1.891-6.515-5.598-9.993-6.927-3.55-1.358-10.569.355-13.88 1.305l-4.423 3.852c-1.98 1.725-3.334 4.057-3.849 6.632-.677 3.387.152 6.902 2.273 9.628 2.971 3.819 6.53 7.135 10.552 9.826 2.919 1.953 7.093 4.72 11.29 7.496 10.395 6.873 21.346 11.986 33.331 15.401l10.575 29.908c3.885 0 8.292-.804 11.787-2.501 5.009-2.433 9.091-6.429 11.63-11.386l.377-.737c2.3-4.491 3.225-9.561 2.66-14.577z" fill="#514654"></path><path d="m197.406 192.517.377-.737c2.301-4.492 3.226-9.563 2.66-14.578l-.153-1.356c-.278-2.462-.912-4.858-1.867-7.117-5.352 16.885-14.985 25.707-27.254 29.7l2.82 7.975c3.885 0 8.292-.804 11.787-2.501 5.009-2.433 9.091-6.429 11.63-11.386z" fill="#403742"></path><path d="m170.316 102.628-10.423-2.842s5.308 6.078 9.396 10.658z" fill="#403742"></path></svg>