<svg xmlns="http://www.w3.org/2000/svg" id="Layer_1_1_" height="512" viewBox="0 0 256 256" width="512"><path d="m196.744 123.265-8.721-9.932-18.917-31.417s-12.583-21.583-22.417-26.917c-9.833-5.333-18.667-3.833-18.667-3.833h-.022s-8.833-1.5-18.667 3.833c-9.833 5.334-22.416 26.918-22.416 26.918l-18.917 31.416-8.721 9.932c2.347 4.465 6.604 7.613 11.561 8.547l.851.069 7.642-6.382 29.562-30.488h38.233l29.562 30.489 7.642 6.382.851-.069c4.957-.935 9.215-4.083 11.561-8.548z" fill="#514654"></path><path d="m85.691 118.943 23.204-23.93h15.206l-21.082-18.309s2.766 4.654-2.055 17.511c-2.709 7.225-9.683 17.294-15.273 24.728z" fill="#403742"></path><path d="m133.028 95.012h14.1l15.744 16.238c-4.697-6.964-9.24-14.42-9.837-18-1.286-7.714-.333-17.23-.333-17.23z" fill="#403742"></path><path d="m59.279 123.265-9.279 10.568-8.423 15.782-34.423 33.616-2.011 2.081c-.801.828-1.056 2.042-.657 3.123l.33.896c.412 1.116 1.444 1.883 2.631 1.956l5.554.34c.438.027.876-.043 1.285-.204l4.368-1.724c.85-.336 1.501-1.04 1.768-1.915l3.512-11.505 39.059-37.134 8.698-7.263-.851-.069c-4.956-.935-9.214-4.083-11.561-8.548z" fill="#f0c792"></path><path d="m250.88 185.312-2.011-2.081-34.423-33.615-8.423-15.782-9.279-10.568c-2.346 4.465-6.604 7.613-11.561 8.547l-.851.069 8.698 7.263 39.059 37.134 3.512 11.505c.267.874.917 1.579 1.768 1.915l4.368 1.724c.408.161.847.231 1.285.204l5.554-.34c1.187-.073 2.22-.84 2.631-1.956l.33-.896c.4-1.081.144-2.295-.657-3.123z" fill="#f0c792"></path><g fill="#f5d3a6"><path d="m102.477 127.864-42.477 12.136-7 2-15 10-32 28v3l5 1 9-3 10-12 16-8 12-9 47.667-3.167z"></path><path d="m218.023 152-15-10-7-2-42.476-12.136-3.19 20.969 47.666 3.167 12 9 16 8 10 12 9 3 5-1v-3z"></path><path d="m145.593 86.069 2.492.978c.631-4.014 2.223-7.791 4.618-11.027-3.606-3.4-14.18-12.442-24.611-12.442-10.928 0-22.007 10.106-25.073 13.125 1.919 3.004 4.158 7.015 4.875 10.286l2.514-.915c11.478-3.428 23.707-3.43 35.185-.005z"></path></g><path d="m150.432 111.54c-2.673-6.476-3.652-13.525-2.845-20.484l.349-3.012c.039-.335.097-.665.149-.996l-2.492-.978c-11.479-3.425-23.707-3.423-35.185.006l-2.514.915c.079.359.154.716.193 1.054l.349 3.012c.807 6.959-.172 14.009-2.845 20.484-2.999 7.266-3.859 15.237-2.479 22.976l2.553 14.317 15.565 3.884h13.561l15.565-3.884 2.553-14.317c1.381-7.739.521-15.711-2.477-22.977z" fill="#7f8b4b"></path><path d="m121.443 154.811.208 10.74h12.722l.208-10.74c.054-2.799-2.2-5.097-4.999-5.097h-3.139c-2.8 0-5.054 2.298-5 5.097z" fill="#f5d3a6"></path><ellipse cx="128" cy="183.5" fill="#704c0f" rx="17" ry="21.5"></ellipse><circle cx="128" cy="189" fill="#5e400d" r="12.286"></circle><circle cx="128" cy="189" fill="#704c0f" r="9.786"></circle></svg>