<svg xmlns="http://www.w3.org/2000/svg" id="Layer_1_1_" height="512" viewBox="0 0 256 256" width="512"><path d="m145.671 70.099-8.861 12.747c-.881 4.405-1.762 37.885-1.762 37.885l21.145-3.884s3.524-5.808 7.93-19.464 16.21-22.717 16.21-22.717c-11.213-1.849-22.929-3.765-34.662-4.567z" fill="#f5d3a6"></path><path d="m139.955 112.063 15.733-3.174-.66 2.963-14.906 3.135z" fill="#f0c792"></path><path d="m220.465 102.615c-5.737-9.095-14.038-16.29-23.856-20.677l-16.276-7.272s-19.639 8.852-25.305 37.185c-5.07.861-10.021 1.911-14.907 3.115 0 .006.001.02.001.02l-27.348 12.463c-3.777 1.721-7.697 2.991-11.684 3.822l-.233.183 26.143 12.689s48.09 4.301 62.571 1.714c9.49-1.695 18.373-5.837 25.771-12.017l2.753-2.299c3.619-3.023 5.71-7.495 5.71-12.211.984-5.793-.205-11.745-3.34-16.715z" fill="#514654"></path><path d="m173.607 106c-6-3-10.5-4.821-10.821-8.036-.124-1.238-.311-3.351-.495-5.481-3.02 5.099-5.684 11.476-7.263 19.369 0 0 14.079-2.102 19.329-2.209s16.5 1.5 16.5 1.5-11.25-2.143-17.25-5.143z" fill="#403742"></path><path d="m223.806 113.329c0 4.715-2.092 9.188-5.71 12.211l-2.753 2.299c-7.398 6.18-16.281 10.322-25.771 12.017-14.482 2.588-62.572-1.713-62.572-1.713l-21.421-10.396-4.722 3.708 26.143 12.688s48.09 4.301 62.571 1.714c9.49-1.695 18.373-5.837 25.771-12.017l2.753-2.299c3.619-3.023 5.71-7.495 5.71-12.211.397-2.341.423-4.705.126-7.022-.043.34-.068.682-.125 1.021z" fill="#403742"></path><path d="m64.46 126.356-1.279-3.19c-2.613-6.769-1.674-14.395 2.501-20.329l.73-1.038c7.585-10.779 17.929-19.32 29.948-24.729 15.501-6.975 32.422-8.127 49.31-6.972 0 0-4.541 9.897-5.338 17.068-1.333 12-.211 27.82-.211 27.82l-27.348 12.463c-15.426 7.032-33.22 6.629-48.313-1.093z" fill="#7f8b4b"></path><path d="m112.774 124.45c-15.427 7.031-33.221 6.628-48.314-1.094l-1.279-3.19c-.793-2.054-1.253-4.187-1.401-6.327-.217 3.129.238 6.313 1.401 9.327l1.279 3.19c15.093 7.722 32.887 8.125 48.314 1.094l27.348-12.463s-.077-1.098-.167-2.924z" fill="#727d43"></path><path d="m17.957 98.467c-6.937 0-12.561 5.624-12.561 12.561 0 4.603 2.481 8.621 6.175 10.808l18.931-10.479c.003-.111.017-.218.017-.33-.001-6.936-5.625-12.56-12.562-12.56z" fill="#704c0f"></path><path d="m8.27 119.006c.927 1.122 2.041 2.085 3.3 2.831l18.931-10.479c.003-.111.017-.218.017-.33 0-1.304-.199-2.561-.568-3.743-1.428.191-2.842.451-4.227.794-7.505 1.861-13.436 5.807-17.453 10.927z" fill="#5e400d"></path><path d="m33.228 134.683c-.243-3.483 2.375-6.369 10.005-6.769 6.988-.367 13.468-9.963 14.509-11.576-8.518-5.721-19.483-6.953-29.126-4.561-17.395 4.313-26.363 19.809-22.538 35.233 3.696 14.906 11.505 19.598 21.246 20.039l13.412-27.461c-.001-.001-7.227-.873-7.508-4.905z" fill="#704c0f"></path><path d="m77.363 146.935c-.087-.669-.272-1.337-.503-1.999-.415-1.187-9.313-17.25-10.934-20.044-1.883-3.248-4.518-5.986-7.533-8.124-.213-.151-.435-.286-.651-.431-1.041 1.613-7.521 11.21-14.509 11.576-7.63.4-10.247 3.287-10.005 6.769.281 4.032 7.507 4.904 7.507 4.904l-13.412 27.461c5.065.229 10.653-.689 16.457-1.921l10.612 1.719c1.479.239 2.694-1.145 2.322-2.645l-.606-2.442c-.222-.896.137-1.813.87-2.325 1.15-.805 17.795-4.522 19.34-7.601.714-1.419 1.257-3.272 1.045-4.897z" fill="#f5d3a6"></path><path d="m230.789 150.73c-.282-.658-.894-1.115-1.605-1.198l-15.851-1.865-10.303-4.88c-1.43-.677-3.123-.444-4.313.598-1.707 1.496-4.332 3.737-6.037 5.188-1.051.894-2.475 1.203-3.803.829l-22.956-6.465c-4.254-1.198-8.669-1.725-13.086-1.563l-22.351.822-46.484 3.471-.25 4.117c-.267 4.406 1.231 8.738 4.164 12.037l1.144 1.287c3.143 3.536 7.646 5.564 12.378 5.574l36.058.073 63.325-3.273 31.013-12.316z" fill="#f0c792"></path><path d="m231.667 160.667 6.563-2.93c2.26-.665 3.107-3.423 1.609-5.241-.899-1.092-2.396-1.486-3.716-.978l-6.456 2.482-15.917 5.5-61.913-6.5-51.515-26.064c-1.739-.831-3.224-2.111-4.303-3.708l-1.195-1.768c-3.499-5.178-9.01-8.65-15.191-9.571-3.709-.552-7.44.853-9.863 3.716-2.168 2.562-3.025 5.983-2.322 9.265l.316 1.474c1.021 4.763 3.503 9.089 7.1 12.373 6.474 5.911 14.027 10.519 22.246 13.572l45.89 18.711h102c2.67.05 5.333-1.858 5.333-4.528 0-2.375-2.746-5.388-5.097-5.724z" fill="#f5d3a6"></path><g fill="#5e400d"><path d="m19.155 139.382c-2.555-7.932-3.4-15.328-3.529-21.223-.333.272-.66.55-.978.834.19 5.839 1.085 13.025 3.555 20.696 4.091 12.704 10.014 16.776 13.656 18.072l.456-.933c-3.375-1.192-9.165-5.04-13.16-17.446z"></path><path d="m41.31 118.161c-7.479-2.026-14.546-3.148-19.839-3.768-.533.265-1.056.54-1.565.83 5.368.573 13.01 1.701 21.143 3.903 6.128 1.66 9.605 2.8 11.581 3.553.258-.258.504-.518.748-.778-2.058-.82-5.673-2.008-12.068-3.74z"></path><path d="m46.606 125.265c-5.391.283-8.319 1.787-9.525 3.865 1.524-.645 3.537-1.079 6.152-1.217 3.106-.163 6.108-2.151 8.58-4.449-1.649 1.011-3.411 1.707-5.207 1.801z"></path><path d="m8.799 144.695c-2.37-9.558.095-19.137 6.377-26.163-8.232 7.011-11.756 17.759-9.099 28.477 3.696 14.906 11.505 19.598 21.246 20.039l1.038-2.125c-8.949-1.01-16.065-6.125-19.562-20.228z"></path></g></svg>