<svg version="1.1" id="Layer_1" xmlns="http://www.w3.org/2000/svg" x="0" y="0" viewBox="0 0 1440 889.6" style="enable-background:new 0 0 1440 889.6" xml:space="preserve">
  <style>
    .st4{fill-rule:evenodd;clip-rule:evenodd;fill:#606469}.st9{fill:#85898c}.st13{fill:#666b6e}
  </style>
  <path d="M0 0v889.6h1440V0zm1439 888.6H1V80h1438z" style="fill:#010101;fill-opacity:1.000000e-02"/>
  <path d="M.1 0v889.6H1440V0zM1439 888.6H1V80h1438z" style="fill:#cac9c9"/>
  <path style="fill:#c9c8c8" d="M1 79h1438v1H1z"/>
  <path style="fill:#fff" d="M1 43h1438v36H1z"/>
  <path class="st4" d="M1417.5 58c.8 0 1.5-.7 1.5-1.5s-.7-1.5-1.5-1.5-1.5.7-1.5 1.5.7 1.5 1.5 1.5m0 5c.8 0 1.5-.7 1.5-1.5s-.7-1.5-1.5-1.5-1.5.7-1.5 1.5.7 1.5 1.5 1.5m1.5 3.5c0 .8-.7 1.5-1.5 1.5s-1.5-.7-1.5-1.5.7-1.5 1.5-1.5 1.5.7 1.5 1.5"/>
  <path d="M123 47h1262c7.7 0 14 6.3 14 14s-6.3 14-14 14H123c-7.7 0-14-6.3-14-14s6.3-14 14-14" style="fill:#f2f3f4"/>
  <path class="st4" d="M1387.8 58.6c-.1-.2-.3-.3-.5-.3l-3.8-.5-1.7-3.4c-.1-.2-.3-.3-.5-.4q-.3-.15-.6 0c-.2.1-.3.2-.5.4l-1.7 3.4-3.8.5c-.2 0-.4.1-.5.3s-.2.4-.2.6.1.4.3.5l2.8 2.6-.7 3.7c0 .2 0 .4.1.6s.3.3.5.3c.2.1.4 0 .6-.1l3.4-1.7 3.4 1.7c.2.1.4.1.6.1.2-.1.4-.2.5-.3.1-.2.2-.4.1-.6l-.7-3.7 2.8-2.6c.2-.2.2-.3.3-.5 0-.2-.1-.4-.2-.6m-1.5.8-2.6 2.5.6 3.5-3.2-1.7-3.2 1.7.6-3.5-2.6-2.5 3.6-.5 1.6-3.2 1.6 3.2zM131 60c0-.6-.4-1-1-1 0 0 0-4-3-4s-3 4-3 4c-.6 0-1 .4-1 1v5c0 .6.4 1 1 1h6c.6 0 1-.4 1-1zm-4-4c2.2 0 2 3 2 3h-4s-.2-3 2-3"/>
  <path d="M93.7 54.6c.1-.1.2-.1.4-.1.1.1.2.2.2.3v4c0 .1 0 .2-.1.2-.1.1-.1.1-.2.1h-4c-.2 0-.3-.1-.3-.2-.1-.1 0-.3.1-.4l1.6-1.6c-.5-.5-1.3-.8-1.9-1.1-.7-.3-1.2-.3-2-.3-1 0-1.9.2-2.8.7-.8.5-1.4 1.1-1.9 1.9-.8 1-1 1.9-1 2.9s.2 1.9.7 2.8c.5.8 1.2 1.4 2 1.9s1.7.8 2.7.8c.7 0 1.4-.2 2-.4s1.1-.6 1.6-1c.1-.1.2 0 .3 0s.2 0 .2.1l.6.6c.1 0 .1.1.1.2s0 .2-.1.2c-.6.6-1.3 1-2.1 1.3s-1.7.5-2.5.5c-1.3 0-2.4-.3-3.5-.9s-1.9-1.5-2.6-2.5-.9-2.2-.9-3.5.3-2.4.9-3.5 1.5-1.9 2.6-2.6c1.1-.6 2.2-.9 3.5-.9.9 0 1.8.2 2.7.5.9.4 1.6.9 2.2 1.5zM54.8 68c.1.1.2.1.3.1s.2 0 .3-.1l6.5-6.7c.1-.1.1-.1.1-.3s0-.2-.1-.3L55.4 54c-.1-.1-.1-.1-.3-.1-.1 0-.2 0-.3.1l-.6.6c-.1.1-.1.1-.1.3 0 .1 0 .2.1.3L59 60H49c-.5 0-1 .4-1 1s.4 1 1 1h10l-4.8 4.9c-.1.1-.1.2-.1.3s0 .2.1.3z" style="fill:#babcbe"/>
  <path d="M23.2 68c-.1.1-.2.1-.3.1s-.2 0-.3-.1l-6.5-6.7c-.1 0-.1-.1-.1-.2s0-.2.1-.3l6.5-6.7c.1-.1.1-.1.3-.1.1 0 .2 0 .3.1l.6.6c.1.1.1.1.1.3 0 .1 0 .2-.1.3L19 60h10c.5 0 1 .4 1 1s-.4 1-1 1H19l4.8 4.9c.1.1.1.2.1.3s0 .2-.1.3z" style="fill:#606469"/>
  <path style="fill:#e8eaec" d="M1 1h1438v42H1z"/>
  <path class="st9" d="m1411.5 9.8.3-.4-.3-.4-.3.4zm.3.3-.3.4zm-1 .4-.4-.4-.3.4.3.4zm.4.4.3-.4zm4.1 4.1.4.4.3-.4-.3-.4zm-4.1 4.1-.4-.4zm-.4.4-.4-.4-.3.4.3.4zm.7.7-.3.4.3.4.3-.4zm.3-.3.4.4zm4.2-4.2.3-.4-.3-.3-.3.4zm4.2 4.2-.4.4zm.3.3-.3.4.3.4.3-.4zm.7-.7.4.4.3-.4-.3-.4zm-.4-.4.4-.4zm-4.1-4.1-.4-.4-.3.4.3.4zm4.1-4.1.4.4zm.4-.4.4.4.3-.4-.3-.4zm-.7-.7.3-.4-.3-.4-.3.4zm-.3.3-.4-.4zm-4.2 4.2-.3.4.3.4.3-.4zm-4.8-4.2.3.4.7-.7-.4-.4zm0 .8.7-.7-.7-.7-.7.7zm.3-.4-.3-.4-.7.7.4.4zm4.2 4.1-4.2-4.1-.7.7 4.1 4.1zm-4.2 4.9 4.2-4.1-.7-.7-4.1 4.1zm-.3.4.3-.4-.7-.7-.4.4zm.6 0-.7-.7-.7.7.7.7zm-.3-.4-.3.4.7.7.4-.4zm4.2-4.1-4.2 4.1.7.7 4.1-4.1zm4.8 4.1-4.2-4.1-.7.7 4.1 4.1zm.3.4-.3-.4-.7.7.4.4zm0-.8-.7.7.7.7.7-.7zm-.3.4.3.4.7-.7-.4-.4zm-4.2-4.1 4.2 4.1.7-.7-4.1-4.1zm4.2-4.9-4.2 4.1.7.7 4.1-4.1zm.3-.4-.3.4.7.7.4-.4zm-.6 0 .7.7.7-.7-.7-.7zm.3.4.3-.4-.7-.7-.4.4zm-4.2 4.1 4.2-4.1-.7-.7-4.1 4.1zm-4.8-4.1 4.2 4.1.7-.7-4.1-4.1z"/>
  <path style="fill:none;stroke:#85898c" d="M1365.5 10.5h9v9h-9z"/>
  <path class="st9" d="M1319 14h10v1h-10z"/>
  <path style="fill:#abafb2" d="M487 16h1v21h-1z"/>
  <path d="M510 20c-.6 0-1 .4-1 1v4h-4c-.6 0-1 .4-1 1s.4 1 1 1h4v4c0 .6.4 1 1 1s1-.4 1-1v-4h4c.6 0 1-.4 1-1s-.4-1-1-1h-4v-4c0-.6-.4-1-1-1" style="fill-rule:evenodd;clip-rule:evenodd;fill:#666b6e"/>
  <path class="st13" d="m472.9 26 3.1 3.1v.2l-.6.6h-.2l-3.1-3.1-3.1 3.1h-.2l-.6-.6v-.2l3.1-3.1-3.1-3.1v-.2l.6-.6h.2l3.1 3.1 3.1-3.1h.2l.6.6v.2zm-181 2.8c-.3.4-.8.8-1.3 1-.6.2-1.2.3-2 .3s-1.4-.2-2-.5c-.6-.4-1-.9-1.4-1.5-.3-.7-.5-1.4-.5-2.3V25c0-1.4.3-2.5 1-3.2.7-.8 1.6-1.1 2.7-1.1 1 0 1.7.2 2.3.7s.9 1.2 1.1 2.1h-1.2c-.2-1.2-1-1.8-2.2-1.8-.8 0-1.4.3-1.9.9-.4.6-.6 1.4-.6 2.5v.8c0 1 .2 1.9.7 2.5s1.1.9 1.9.9c.5 0 .9-.1 1.2-.2s.6-.3.9-.5v-2.1h-2.1v-1h3.4zm1.5-2.3c0-.7.1-1.3.4-1.8s.6-1 1.1-1.2c.5-.3 1-.4 1.6-.4.9 0 1.7.3 2.3 1 .6.6.9 1.5.9 2.6v.1c0 .7-.1 1.3-.4 1.8s-.6.9-1.1 1.2-1 .4-1.6.4c-.9 0-1.7-.3-2.3-1s-.9-1.5-.9-2.7m1.2.1c0 .8.2 1.4.5 1.8.4.5.8.7 1.4.7s1.1-.2 1.4-.7c.4-.5.5-1.1.5-2 0-.8-.2-1.4-.5-1.8-.4-.5-.8-.7-1.4-.7s-1 .2-1.4.7c-.3.5-.5 1.2-.5 2m6.3-.1c0-.7.1-1.3.4-1.8s.6-1 1.1-1.2c.5-.3 1-.4 1.6-.4.9 0 1.7.3 2.3 1 .6.6.9 1.5.9 2.6v.1c0 .7-.1 1.3-.4 1.8s-.6.9-1.1 1.2-1 .4-1.6.4c-.9 0-1.7-.3-2.3-1-.7-.7-.9-1.5-.9-2.7m1.1.1c0 .8.2 1.4.5 1.8.4.5.8.7 1.4.7s1.1-.2 1.4-.7c.4-.5.5-1.1.5-2 0-.8-.2-1.4-.5-1.8-.4-.5-.8-.7-1.4-.7s-1 .2-1.4.7c-.3.5-.5 1.2-.5 2m6.3-.1c0-1.1.2-1.9.7-2.6.5-.6 1.2-1 2-1s1.5.3 2 .9l.1-.8h1.1v6.7c0 .9-.3 1.6-.8 2.1s-1.2.8-2.1.8q-.75 0-1.5-.3c-.75-.3-.8-.5-1.1-.9l.6-.7q.75.9 1.8.9c.6 0 1-.2 1.3-.5s.5-.8.5-1.4v-.6c-.5.5-1.1.8-1.9.8s-1.5-.3-2-1c-.5-.4-.7-1.3-.7-2.4m1.2.1c0 .8.2 1.4.5 1.8s.8.7 1.3.7c.7 0 1.3-.3 1.6-1V25c-.4-.7-.9-1-1.6-1-.6 0-1 .2-1.3.7-.4.4-.5 1.1-.5 1.9m7.7 3.4H316v-9.8h1.2zm4.7.1c-.9 0-1.7-.3-2.3-.9s-.9-1.4-.9-2.5v-.2c0-.7.1-1.3.4-1.8s.6-1 1.1-1.3 1-.5 1.5-.5q1.35 0 2.1.9c.5.6.7 1.4.7 2.5v.5h-4.7c0 .7.2 1.2.6 1.6s.9.6 1.4.6c.4 0 .8-.1 1.1-.3s.5-.4.8-.7l.7.6c-.5 1.1-1.4 1.5-2.5 1.5m-.2-6.1c-.5 0-.9.2-1.2.5s-.5.8-.6 1.4h3.4v-.1c0-.6-.2-1.1-.5-1.4-.2-.3-.6-.4-1.1-.4"/>
  <defs>
    <filter id="Adobe_OpacityMaskFilter" filterUnits="userSpaceOnUse" x="260" y="18" width="16" height="16">
      <feColorMatrix values="1 0 0 0 0 0 1 0 0 0 0 0 1 0 0 0 0 0 1 0"/>
    </filter>
  </defs>
  <mask maskUnits="userSpaceOnUse" x="260" y="18" width="16" height="16" id="mask4_2_">
    <path style="fill:#fff;filter:url(#Adobe_OpacityMaskFilter)" d="M260 18h16v16h-16z"/>
  </mask>
  <g style="mask:url(#mask4_2_)">
    <path d="m263.6 27.6-.6 2.1h-2c-.6-1.1-1-2.4-1-3.8 0-1.3.3-2.6.9-3.7l1.8.3.8 1.8q-.3.75-.3 1.5c.1.7.2 1.3.4 1.8" style="fill:#f9bb16"/>
    <path d="M275.9 24.5c.1.5.1 1 .1 1.5 0 .6-.1 1.1-.2 1.7-.4 1.8-1.4 3.4-2.8 4.6l-2.3-.1-.3-2c.9-.5 1.7-1.4 2.1-2.4h-4.3v-3.2h7.7z" style="fill:#6287c5"/>
    <path d="M273 32.3c-1.4 1.1-3.1 1.7-5 1.7-3.1 0-5.7-1.7-7.1-4.2l2.6-2.1c.7 1.8 2.4 3.1 4.5 3.1q1.35 0 2.4-.6z" style="fill:#2fb44a"/>
    <path d="m273.2 19.8-2.6 2.1c-.7-.5-1.6-.7-2.5-.7-2.1 0-3.9 1.3-4.5 3.2l-2.6-2.1c1.3-2.5 4-4.3 7.1-4.3 1.9 0 3.7.7 5.1 1.8" style="fill:#ef4438"/>
  </g>
  <path d="M9 17c0-4.4 3.6-8 8-8h224c4.4 0 8 3.6 8 8v18s.1 3.4 2.4 5.7c2.2 2.2 5.6 2.3 5.6 2.3H1s3.5-.1 5.7-2.4C8.9 38.2 9 35 9 35z" style="fill-rule:evenodd;clip-rule:evenodd;fill:#fff"/>
  <path d="m233.9 26 3.1 3.1.1.1s0 .1-.1.1l-.6.6h-.2l-3.1-3.1-3.1 3.1h-.2l-.6-.6-.1-.1s0-.1.1-.1l3.1-3.1-3.1-3.1-.1-.1s0-.1.1-.1l.6-.6h.2l3.1 3.1 3.1-3.1h.2l.6.6.1.1s0 .1-.1.1z" style="fill:#6e7173"/>
  <path class="st13" d="m48.9 25.4 2.4-4.6h1.4l-3.2 5.8V30h-1.2v-3.4l-3.2-5.8h1.4zm4.1 1.1c0-.7.1-1.3.4-1.8s.6-1 1.1-1.2c.5-.3 1-.4 1.6-.4.9 0 1.7.3 2.3 1 .6.6.9 1.5.9 2.6v.1c0 .7-.1 1.3-.4 1.8s-.6.9-1.1 1.2-1 .4-1.6.4c-.9 0-1.7-.3-2.3-1s-.9-1.5-.9-2.7m1.1.1c0 .8.2 1.4.5 1.8.4.5.8.7 1.4.7s1.1-.2 1.4-.7c.4-.5.5-1.1.5-2 0-.8-.2-1.4-.5-1.8-.4-.5-.8-.7-1.4-.7s-1 .2-1.4.7c-.3.5-.5 1.2-.5 2m10.8 2.7c-.5.5-1.1.8-2 .8-.7 0-1.3-.2-1.7-.6s-.6-1.1-.6-1.9v-4.5h1.2v4.4c0 1 .4 1.6 1.3 1.6s1.5-.3 1.8-1v-5h1.2V30H65zm6.3-5.1h-.6c-.8 0-1.3.3-1.6 1V30h-1.2v-6.9H69v.8c.4-.6.9-.9 1.6-.9.2 0 .4 0 .5.1v1.1zm7.2 1.7c-1-.3-1.8-.7-2.3-1.1s-.7-1-.7-1.6q0-1.05.9-1.8c.6-.5 1.3-.7 2.3-.7.6 0 1.2.1 1.7.4.5.2.9.6 1.2 1s.4.9.4 1.4h-1.2c0-.6-.2-1-.5-1.3-.4-.3-.9-.5-1.5-.5s-1.1.1-1.4.4-.5.6-.5 1.1c0 .4.2.7.5 1s.9.5 1.6.7c.8.2 1.4.5 1.8.7.4.3.8.6 1 .9s.3.8.3 1.2q0 1.05-.9 1.8c-.6.4-1.4.7-2.3.7-.6 0-1.2-.1-1.8-.4-.6-.2-1-.6-1.3-1s-.4-.9-.4-1.4h1.2c0 .6.2 1 .6 1.3s1 .5 1.7.5c.6 0 1.1-.1 1.5-.4.3-.3.5-.6.5-1.1s-.2-.8-.5-1c-.5-.3-1.1-.6-1.9-.8m6.1 4.1h-1.2v-6.9h1.2zm-1.3-8.7c0-.2.1-.4.2-.5s.3-.2.5-.2.4.1.5.2.2.3.2.5-.1.3-.2.5c-.1.1-.3.2-.5.2s-.4-.1-.5-.2-.2-.3-.2-.5m4.8.2v1.7h1.3v.8H88v4.3c0 .3.1.5.2.6s.3.2.6.2c.1 0 .3 0 .6-.1v1c-.3.1-.6.1-.9.1-.5 0-.9-.2-1.2-.5s-.4-.8-.4-1.4V24h-1.3v-.9h1.3v-1.7H88zm5.5 8.6c-.9 0-1.7-.3-2.3-.9s-.9-1.4-.9-2.5v-.2c0-.7.1-1.3.4-1.8s.6-1 1.1-1.3 1-.5 1.5-.5q1.35 0 2.1.9c.5.6.7 1.4.7 2.5v.5h-4.7c0 .7.2 1.2.6 1.6s.9.6 1.4.6c.4 0 .8-.1 1.1-.3s.5-.4.8-.7l.7.6c-.5 1.1-1.4 1.5-2.5 1.5m-.2-6.1c-.5 0-.9.2-1.2.5s-.5.8-.6 1.4H95v-.1c0-.6-.2-1.1-.5-1.4s-.7-.4-1.2-.4m13.8-2.2h-3V30h-1.2v-8.2h-3v-1h7.1v1zm2.4 8.2h-1.2v-6.9h1.2zm-1.2-8.7c0-.2.1-.4.2-.5s.3-.2.5-.2.4.1.5.2.2.3.2.5-.1.3-.2.5c-.1.1-.3.2-.5.2s-.4-.1-.5-.2c-.2-.1-.2-.3-.2-.5m4.7.2v1.7h1.3v.8H113v4.3c0 .3.1.5.2.6s.3.2.6.2c.1 0 .3 0 .6-.1v1c-.3.1-.6.1-.9.1-.5 0-.9-.2-1.2-.5s-.4-.8-.4-1.4V24h-1.3v-.9h1.3v-1.7h1.1zm3.9 8.5h-1.2v-9.8h1.2zm4.8.1c-.9 0-1.7-.3-2.3-.9s-.9-1.4-.9-2.5v-.2c0-.7.1-1.3.4-1.8s.6-1 1.1-1.3 1-.5 1.5-.5q1.35 0 2.1.9c.5.6.7 1.4.7 2.5v.5h-4.7c0 .7.2 1.2.6 1.6s.9.6 1.4.6c.4 0 .8-.1 1.1-.3s.5-.4.8-.7l.7.6c-.5 1.1-1.4 1.5-2.5 1.5m-.2-6.1c-.5 0-.9.2-1.2.5s-.5.8-.6 1.4h3.4v-.1c0-.6-.2-1.1-.5-1.4-.2-.3-.6-.4-1.1-.4"/>
  <defs>
    <filter id="Adobe_OpacityMaskFilter_1_" filterUnits="userSpaceOnUse" x="21" y="18" width="16" height="16">
      <feColorMatrix values="1 0 0 0 0 0 1 0 0 0 0 0 1 0 0 0 0 0 1 0"/>
    </filter>
  </defs>
  <mask maskUnits="userSpaceOnUse" x="21" y="18" width="16" height="16" id="mask5_2_">
    <path style="fill:#fff;filter:url(#Adobe_OpacityMaskFilter_1_)" d="M21 18h16v16H21z"/>
  </mask>
  <g style="mask:url(#mask5_2_)">
    <path d="M22.9 20.8c3.7-4.3 10.6-3.5 13.2 1.6h-6.2c-1.1 0-1.8 0-2.6.4-.9.5-1.6 1.4-1.8 2.4z" style="fill:#ef4538"/>
    <path d="M26.3 26c0 1.5 1.2 2.7 2.7 2.7s2.7-1.2 2.7-2.7-1.2-2.7-2.7-2.7-2.7 1.2-2.7 2.7" style="fill:#488fcc"/>
    <path d="M30 29.5c-1.5.4-3.2 0-4.2-1.7-.7-1.3-2.7-4.6-3.5-6.1-3.1 4.7-.4 11.1 5.1 12.2z" style="fill:#4daf4f"/>
    <path d="M31.4 23.3c1.2 1.2 1.5 3 .7 4.5-.6 1.1-2.7 4.5-3.6 6.2 5.7.4 9.9-5.3 8-10.6z" style="fill:#fdc113"/>
  </g>
</svg>
