<svg version="1.1" id="Layer_1" xmlns="http://www.w3.org/2000/svg" x="0" y="0" viewBox="0 0 1442 811" style="enable-background:new 0 0 1442 811" xml:space="preserve">
  <style>
    .st3{fill:#f3f3f3}.st10,.st4{fill-rule:evenodd;clip-rule:evenodd}.st4{fill:#020202}.st10{fill:#9f9f9f}.st15{fill:#ccc}.st17{fill:#7d7d7d}.st26{fill:#010101}.st31{fill-rule:evenodd;clip-rule:evenodd;fill:#040404}
  </style>
  <path d="M1 2v808h1440V2zm1439 807H2V79h1438z" style="fill:#010101;fill-opacity:1.000000e-02"/>
  <path d="M0 0v811h1442V0zm1440 809H2V79h1438z" style="fill:#e9e8e8"/>
  <path style="fill:#cececd" d="M2 78h1438v1H2z"/>
  <path class="st3" d="M2 34h1438v44H2z"/>
  <path class="st4" d="M1287 53h7v1h-7zm0 3h7v1h-7zm7 3h-7v1h7z"/>
  <path d="m1287.6 53.5-1.6-5.3-1.6 5.3h-5.8l5.1 3.5-2.3 5.5 4.6-4.1" style="fill:none;stroke:#020202;stroke-linecap:round;stroke-linejoin:round"/>
  <path d="M1328.1 62.4c4.9-3.5 4.5 1.2 10.1-.7" style="fill:none;stroke:#020202"/>
  <path class="st4" d="M1332.4 49.2c.4.2.6.5.7.9s0 .8-.2 1.1l-4.5 7.8c-.4.7-1 1.4-1.6 2-.7.6-1.4 1-2.2 1.3h-.1c-.2 0-.3 0-.5-.1-.1-.1-.2-.2-.3-.4-.1-.9-.1-1.7.1-2.6q.3-1.35.9-2.4l2.8-4.9-1-.6-1.9 3.2-.2.2h-.3l-.3-.2c-.1 0-.1-.1-.2-.2s0-.2 0-.3l2-3.4c.1-.2.3-.4.6-.4s.5 0 .7.1l1.1.7 1.1-2c.2-.4.5-.6.9-.7s.8-.1 1.2.2zm-4.9 9.3 2.8-4.9-1.8-1-2.8 4.9c-.6 1.1-.9 2.3-.9 3.5 1.2-.6 2.1-1.4 2.7-2.5m4.6-8.1v.3l-1.1 2-1.7-1 1.1-2c.1-.1.1-.2.2-.2h.3l1.1.6c0 .2 0 .2.1.3"/>
  <path d="M1367 52h-1v10h12v-2h-1v1h-10z" style="fill-rule:evenodd;clip-rule:evenodd;fill:#d8d9d8"/>
  <defs>
    <filter id="Adobe_OpacityMaskFilter" filterUnits="userSpaceOnUse" x="1365" y="51" width="14" height="12">
      <feColorMatrix values="1 0 0 0 0 0 1 0 0 0 0 0 1 0 0 0 0 0 1 0"/>
    </filter>
  </defs>
  <mask maskUnits="userSpaceOnUse" x="1365" y="51" width="14" height="12" id="path-68-inside-2_2_">
    <path d="M1367 52h-1v10h12v-2h-1v1h-10z" style="fill-rule:evenodd;clip-rule:evenodd;fill:#fff;filter:url(#Adobe_OpacityMaskFilter)"/>
  </mask>
  <path d="M1366 52v-1h-1v1zm1 0h1v-1h-1zm-1 10h-1v1h1zm12 0v1h1v-1zm0-2h1v-1h-1zm-1 0v-1h-1v1zm0 1v1h1v-1zm-10 0h-1v1h1zm-1-8h1v-2h-1zm1 8v-9h-2v9zm-2 0v1h2v-1zm1 2h1v-2h-1zm1 0h10v-2h-10zm10 0h1v-2h-1zm2-1v-1h-2v1zm0-1v-1h-2v1zm-1-2h-1v2h1zm-2 1v1h2v-1zm1 0h-10v2h10zm-11-8v9h2v-9z" style="mask:url(#path-68-inside-2_2_);fill:#979797"/>
  <path class="st10" d="M1382 53.2c0 .3-.1.5-.3.7l-4 3.8c-.2.2-.5.3-.8.3s-.5-.1-.8-.3c-.2-.2-.3-.4-.3-.7v-1.7c-1.1.1-1.9.2-2.4.4q-.75.3-.9.9c-.1.3 0 .8.2 1.4.1.3.1.6-.1.8-.2.3-.4.4-.7.5s-.6 0-.9-.1c-.7-.4-1.2-1-1.6-1.6q-.6-1.05-.6-2.1c0-1.6.8-2.8 2.3-3.5 1.1-.5 2.6-.8 4.6-.8v-1.7c0-.3.1-.5.3-.7s.5-.3.8-.3.6.1.8.3l4 3.8c.3.1.4.3.4.6m-5.1 3.8 4-3.8-4-3.8v2.8c-1.3 0-2.4.1-3.2.2-1.1.2-2 .5-2.6.9-.7.5-1.1 1.3-1.1 2.2q0 1.05.6 1.8c.3.4.7.8 1.2 1.1-.4-1.1-.4-1.9 0-2.6.3-.6 1-1 1.9-1.2.8-.2 1.9-.3 3.2-.3z"/>
  <path d="M1411 55h2v2h-2zm6 0h2v2h-2zm8 0h-2v2h2z" style="fill-rule:evenodd;clip-rule:evenodd;fill:#3a3a39"/>
  <path style="fill:#fff;stroke:#ccc" d="M194.5 39.5h1053v33h-1053z"/>
  <path class="st10" d="M1232.8 54.6c-.1-.2-.3-.3-.5-.3l-3.8-.5-1.7-3.4c-.1-.2-.3-.3-.5-.4q-.3-.15-.6 0c-.2.1-.3.2-.5.4l-1.7 3.4-3.8.5c-.2 0-.4.1-.5.3s-.2.4-.2.6.1.4.3.5l2.8 2.6-.7 3.7c0 .2 0 .4.1.6s.3.3.5.3c.2.1.4 0 .6-.1l3.4-1.7 3.4 1.7c.2.1.4.1.6.1.2-.1.4-.2.5-.3.1-.2.2-.4.1-.6l-.7-3.7 2.8-2.6c.2-.2.2-.3.3-.5 0-.2-.1-.4-.2-.6m-1.5.8-2.6 2.5.6 3.5-3.2-1.7-3.2 1.7.6-3.5-2.6-2.5 3.6-.5 1.6-3.2 1.6 3.2zm-1011.5-.5c.3 0 .6.1.8.4q.3.3.3.9v5.7q0 .45-.3.9c-.2.2-.5.4-.8.4h-8.6c-.3 0-.6-.1-.8-.4q-.3-.3-.3-.9v-5.7q0-.45.3-.9c.2-.2.5-.4.8-.4h.8v-1.2c0-.7.2-1.3.5-1.8.3-.6.7-1 1.3-1.3.5-.3 1.1-.5 1.8-.5s1.2.2 1.8.5c.5.3 1 .8 1.3 1.3.3.6.5 1.2.5 1.8v1.2zm-6.7-1.2v1.2h4.7v-1.2c0-.7-.2-1.3-.7-1.7-.5-.5-1-.7-1.7-.7s-1.2.2-1.7.7c-.3.4-.6 1-.6 1.7m6.7 2.4v5.7h-8.6v-5.7z"/>
  <path class="st4" d="M163 55.7c0-.1 0-.1-.1-.2l-1.2-1.2v-3.1c0-.1 0-.1-.1-.2 0-.1-.1-.1-.2-.1h-.9c-.1 0-.1 0-.2.1 0 .1-.1.1-.1.2v1.9l-4.2-3.8c-.2-.2-.4-.3-.7-.3s-.5.1-.7.3l-6.7 6.3c-.1 0-.1.1-.1.2s0 .1.1.2l.6.8s.1.1.2.1h.2l.4-.4v6.2c0 .1 0 .3.1.4s.2.1.3.1h4.6c.1 0 .1 0 .2-.1 0-.1.1-.1.1-.2v-4h1.8v4c0 .1 0 .1.1.2 0 .1.1.1.2.1h4.6c.1 0 .2 0 .3-.1s.1-.2.1-.4v-6.2l.4.4s.1.1.2 0c.1 0 .1 0 .2-.1l.6-.8c-.1-.2-.1-.2-.1-.3m-2.6-.6v6.4h-2.6v-4c0-.1 0-.1-.1-.2 0-.1-.1-.1-.2-.1h-4c-.1 0-.1 0-.2.1 0 .1-.1.1-.1.2v4h-2.6v-6.4l4.7-4.4q.15-.15.3 0z"/>
  <path d="M105.9 49h4.8c.1 0 .2 0 .2.1s.1.1.1.2v4.9h-1.4v-3.1c-1 .4-1.8 1.1-2.4 2q-.9 1.35-.9 3c0 1 .2 1.9.7 2.7s1.2 1.5 2 2 1.8.7 2.8.7 1.9-.2 2.8-.7c.8-.5 1.5-1.2 2-2s.7-1.7.7-2.7c0-.7-.1-1.3-.4-2-.2-.6-.6-1.2-1-1.7-.1-.1-.1-.2-.1-.3s0-.2.1-.2l.6-.6c.1-.1.1-.1.2-.1s.2 0 .2.1c.6.6 1 1.3 1.3 2.1s.5 1.6.5 2.5c0 1.2-.3 2.4-.9 3.4-.6 1.1-1.5 1.9-2.5 2.5-1.1.6-2.2.9-3.5.9s-2.4-.3-3.5-.9-1.9-1.4-2.6-2.5c-.6-1.1-.9-2.2-.9-3.4s.3-2.3.8-3.3c.6-1 1.3-1.8 2.3-2.5h-2.2V49z" style="fill:#020202"/>
  <path d="M76 56.4q-.15-.3-.3-.3l-6-6-.7.7 5.3 5.3H61v1h13.3l-5.4 5.4.7.7 6.2-6.2.1-.1v-.2c.1-.2.1-.3.1-.3m-59 0q.15-.3.3-.3l6-6 .7.7-5.2 5.2H32v1H18.7l5.4 5.4-.7.7-6.2-6.2-.2-.2z" style="fill-rule:evenodd;clip-rule:evenodd;fill:#939393"/>
  <path class="st15" d="M2 2h1438v32H2z"/>
  <path d="M510.5 14.8c-.2-.2-.5-.2-.7 0s-.2.5 0 .7l6.4 6.4c.1.1.3.2.5.1.2 0 .3 0 .5-.1l6.4-6.4c.2-.2.2-.5 0-.7s-.5-.2-.7 0l-6.1 6.1zM485 12h-1v6h-6v1h6v6h1v-6h6v-1h-6z" style="fill-rule:evenodd;clip-rule:evenodd;fill:#010101"/>
  <path class="st17" d="M467 3h1v31h-1zM267 3h1v31h-1z"/>
  <path d="M309.9 21.8c-.3.4-.8.8-1.3 1-.6.2-1.2.3-2 .3s-1.4-.2-2-.5c-.6-.4-1-.9-1.4-1.5-.3-.7-.5-1.4-.5-2.3V18c0-1.4.3-2.5 1-3.2.7-.8 1.6-1.1 2.7-1.1 1 0 1.7.2 2.3.7s.9 1.2 1.1 2.1h-1.2c-.2-1.2-1-1.8-2.2-1.8-.8 0-1.4.3-1.9.9-.4.6-.6 1.4-.6 2.5v.8c0 1 .2 1.9.7 2.5s1.1.9 1.9.9c.5 0 .9-.1 1.2-.2s.6-.3.9-.5v-2.1h-2.1v-1h3.4zm1.5-2.3c0-.7.1-1.3.4-1.8s.6-1 1.1-1.2c.5-.3 1-.4 1.6-.4.9 0 1.7.3 2.3 1 .6.6.9 1.5.9 2.6v.1c0 .7-.1 1.3-.4 1.8s-.6.9-1.1 1.2-1 .4-1.6.4c-.9 0-1.7-.3-2.3-1s-.9-1.5-.9-2.7m1.2.1c0 .8.2 1.4.5 1.8.4.5.8.7 1.4.7s1.1-.2 1.4-.7c.4-.5.5-1.1.5-2 0-.8-.2-1.4-.5-1.8-.4-.5-.8-.7-1.4-.7s-1 .2-1.4.7c-.3.5-.5 1.2-.5 2m6.3-.1c0-.7.1-1.3.4-1.8s.6-1 1.1-1.2c.5-.3 1-.4 1.6-.4.9 0 1.7.3 2.3 1 .6.6.9 1.5.9 2.6v.1c0 .7-.1 1.3-.4 1.8s-.6.9-1.1 1.2-1 .4-1.6.4c-.9 0-1.7-.3-2.3-1-.7-.7-.9-1.5-.9-2.7m1.1.1c0 .8.2 1.4.5 1.8.4.5.8.7 1.4.7s1.1-.2 1.4-.7c.4-.5.5-1.1.5-2 0-.8-.2-1.4-.5-1.8-.4-.5-.8-.7-1.4-.7s-1 .2-1.4.7c-.3.5-.5 1.2-.5 2m6.3-.1c0-1.1.2-1.9.7-2.6.5-.6 1.2-1 2-1s1.5.3 2 .9l.1-.8h1.1v6.7c0 .9-.3 1.6-.8 2.1s-1.2.8-2.1.8q-.75 0-1.5-.3c-.5-.2-.8-.5-1.1-.9l.6-.7q.75.9 1.8.9c.6 0 1-.2 1.3-.5s.5-.8.5-1.4v-.6c-.5.5-1.1.8-1.9.8s-1.5-.3-2-1c-.5-.4-.7-1.3-.7-2.4m1.2.1c0 .8.2 1.4.5 1.8s.8.7 1.3.7c.7 0 1.3-.3 1.6-1V18c-.4-.7-.9-1-1.6-1-.6 0-1 .2-1.3.7-.4.4-.5 1.1-.5 1.9m7.7 3.4H334v-9.8h1.2zm4.7.1c-.9 0-1.7-.3-2.3-.9s-.9-1.4-.9-2.5v-.2c0-.7.1-1.3.4-1.8s.6-1 1.1-1.3 1-.5 1.5-.5q1.35 0 2.1.9c.5.6.7 1.4.7 2.5v.5h-4.7c0 .7.2 1.2.6 1.6s.9.6 1.4.6c.4 0 .8-.1 1.1-.3s.5-.4.8-.7l.7.6c-.5 1.1-1.4 1.5-2.5 1.5m-.2-6.1c-.5 0-.9.2-1.2.5s-.5.8-.6 1.4h3.4v-.1c0-.6-.2-1.1-.5-1.4-.2-.3-.6-.4-1.1-.4" style="fill:#292929"/>
  <defs>
    <filter id="Adobe_OpacityMaskFilter_1_" filterUnits="userSpaceOnUse" x="276" y="10" width="16" height="16">
      <feColorMatrix values="1 0 0 0 0 0 1 0 0 0 0 0 1 0 0 0 0 0 1 0"/>
    </filter>
  </defs>
  <mask maskUnits="userSpaceOnUse" x="276" y="10" width="16" height="16" id="mask4_2_">
    <path style="fill:#fff;filter:url(#Adobe_OpacityMaskFilter_1_)" d="M276 10h16v16h-16z"/>
  </mask>
  <g style="mask:url(#mask4_2_)">
    <path d="m279.6 19.6-.6 2.1h-2c-.6-1.1-1-2.4-1-3.8 0-1.3.3-2.6.9-3.7l1.8.3.8 1.8q-.3.75-.3 1.5c.1.7.2 1.3.4 1.8" style="fill:#f9bb16"/>
    <path d="M291.9 16.5c.1.5.1 1 .1 1.5 0 .6-.1 1.1-.2 1.7-.4 1.8-1.4 3.4-2.8 4.6l-2.3-.1-.3-2c.9-.5 1.7-1.4 2.1-2.4h-4.3v-3.2h7.7z" style="fill:#6287c5"/>
    <path d="M289 24.3c-1.4 1.1-3.1 1.7-5 1.7-3.1 0-5.7-1.7-7.1-4.2l2.6-2.1c.7 1.8 2.4 3.1 4.5 3.1q1.35 0 2.4-.6z" style="fill:#2fb44a"/>
    <path d="m289.2 11.8-2.6 2.1c-.7-.5-1.6-.7-2.5-.7-2.1 0-3.9 1.3-4.5 3.2l-2.6-2.1c1.3-2.5 4-4.3 7.1-4.3 1.9 0 3.7.7 5.1 1.8" style="fill:#ef4438"/>
  </g>
  <path class="st3" d="M67 3h200v31H67z"/>
  <path d="m251 17.3-4.3-4.3-.7.7 4.3 4.3-4.3 4.3.7.7 4.3-4.3 4.3 4.3.7-.7-4.3-4.3 4.3-4.3-.7-.7z" style="fill-rule:evenodd;clip-rule:evenodd;fill:#c7c6c5"/>
  <path class="st26" d="m104.9 18.4 2.4-4.6h1.4l-3.2 5.8V23h-1.2v-3.4l-3.2-5.8h1.4zm4.1 1.1c0-.7.1-1.3.4-1.8s.6-1 1.1-1.2c.5-.3 1-.4 1.6-.4.9 0 1.7.3 2.3 1 .6.6.9 1.5.9 2.6v.1c0 .7-.1 1.3-.4 1.8s-.6.9-1.1 1.2-1 .4-1.6.4c-.9 0-1.7-.3-2.3-1s-.9-1.5-.9-2.7m1.1.1c0 .8.2 1.4.5 1.8.4.5.8.7 1.4.7s1.1-.2 1.4-.7c.4-.5.5-1.1.5-2 0-.8-.2-1.4-.5-1.8-.4-.5-.8-.7-1.4-.7s-1 .2-1.4.7c-.3.5-.5 1.2-.5 2m10.8 2.7c-.5.5-1.1.8-2 .8-.7 0-1.3-.2-1.7-.6s-.6-1.1-.6-1.9v-4.5h1.2v4.4c0 1 .4 1.6 1.3 1.6s1.5-.3 1.8-1v-5h1.2V23H121zm6.3-5.1h-.6c-.8 0-1.3.3-1.6 1V23h-1.2v-6.9h1.1v.8c.4-.6.9-.9 1.6-.9.2 0 .4 0 .5.1v1.1zm7.2 1.7c-1-.3-1.8-.7-2.3-1.1s-.7-1-.7-1.6q0-1.05.9-1.8c.6-.5 1.3-.7 2.3-.7.6 0 1.2.1 1.7.4.5.2.9.6 1.2 1s.4.9.4 1.4h-1.2c0-.6-.2-1-.5-1.3-.4-.3-.9-.5-1.5-.5s-1.1.1-1.4.4-.5.6-.5 1.1c0 .4.2.7.5 1s.9.5 1.6.7c.8.2 1.4.5 1.8.7.4.3.8.6 1 .9s.3.8.3 1.2q0 1.05-.9 1.8c-.6.4-1.4.7-2.3.7-.6 0-1.2-.1-1.8-.4-.5-.2-1-.6-1.3-1s-.4-.9-.4-1.4h1.2c0 .6.2 1 .6 1.3s1 .5 1.7.5c.6 0 1.1-.1 1.5-.4.3-.3.5-.6.5-1.1s-.2-.8-.5-1c-.5-.3-1.1-.6-1.9-.8m6.1 4.1h-1.2v-6.9h1.2zm-1.3-8.7c0-.2.1-.4.2-.5s.3-.2.5-.2.4.1.5.2.2.3.2.5-.1.3-.2.5c-.1.1-.3.2-.5.2s-.4-.1-.5-.2-.2-.3-.2-.5m4.8.2v1.7h1.3v.8H144v4.3c0 .3.1.5.2.6s.3.2.6.2c.1 0 .3 0 .6-.1v1c-.3.1-.6.1-.9.1-.5 0-.9-.2-1.2-.5s-.4-.8-.4-1.4V17h-1.3v-.9h1.3v-1.7h1.1zm5.5 8.6c-.9 0-1.7-.3-2.3-.9s-.9-1.4-.9-2.5v-.2c0-.7.1-1.3.4-1.8s.6-1 1.1-1.3 1-.5 1.5-.5q1.35 0 2.1.9c.5.6.7 1.4.7 2.5v.5h-4.7c0 .7.2 1.2.6 1.6s.9.6 1.4.6c.4 0 .8-.1 1.1-.3s.5-.4.8-.7l.7.6c-.5 1.1-1.4 1.5-2.5 1.5m-.2-6.1c-.5 0-.9.2-1.2.5s-.5.8-.6 1.4h3.4v-.1c0-.6-.2-1.1-.5-1.4-.2-.3-.6-.4-1.1-.4m13.8-2.2h-3V23h-1.2v-8.2h-3v-1h7.1v1zm2.4 8.2h-1.2v-6.9h1.2zm-1.2-8.7c0-.2.1-.4.2-.5s.3-.2.5-.2.4.1.5.2.2.3.2.5-.1.3-.2.5c-.1.1-.3.2-.5.2s-.4-.1-.5-.2c-.2-.1-.2-.3-.2-.5m4.7.2v1.7h1.3v.8H169v4.3c0 .3.1.5.2.6s.3.2.6.2c.1 0 .3 0 .6-.1v1c-.3.1-.6.1-.9.1-.5 0-.9-.2-1.2-.5s-.4-.8-.4-1.4V17h-1.3v-.9h1.3v-1.7h1.1zm3.9 8.5h-1.2v-9.8h1.2zm4.8.1c-.9 0-1.7-.3-2.3-.9s-.9-1.4-.9-2.5v-.2c0-.7.1-1.3.4-1.8s.6-1 1.1-1.3 1-.5 1.5-.5q1.35 0 2.1.9c.5.6.7 1.4.7 2.5v.5h-4.7c0 .7.2 1.2.6 1.6s.9.6 1.4.6c.4 0 .8-.1 1.1-.3s.5-.4.8-.7l.7.6c-.5 1.1-1.4 1.5-2.5 1.5m-.2-6.1c-.5 0-.9.2-1.2.5s-.5.8-.6 1.4h3.4v-.1c0-.6-.2-1.1-.5-1.4-.2-.3-.6-.4-1.1-.4"/>
  <defs>
    <filter id="Adobe_OpacityMaskFilter_2_" filterUnits="userSpaceOnUse" x="76" y="10" width="15" height="16">
      <feColorMatrix values="1 0 0 0 0 0 1 0 0 0 0 0 1 0 0 0 0 0 1 0"/>
    </filter>
  </defs>
  <mask maskUnits="userSpaceOnUse" x="76" y="10" width="15" height="16" id="mask5_2_">
    <path style="fill:#fff;filter:url(#Adobe_OpacityMaskFilter_2_)" d="M75 10h16v16H75z"/>
  </mask>
  <g style="mask:url(#mask5_2_)">
    <path d="M76 17.1c.1-.8.3-1.5.5-2.2.3-.7.6-1.3 1-1.9s.9-1.1 1.5-1.6c.6-.4 1.2-.8 2-1.1s1.6-.4 2.5-.4c1.4 0 2.6.3 3.8.9q1.65.9 2.7 2.7c.6 1.1.9 2.4.9 4v1.7H80.8c0 .7.2 1.2.5 1.7s.7.9 1.2 1.1 1.1.4 1.7.5 1.3.1 1.9 0c.7-.1 1.3-.2 1.9-.4s1.1-.5 1.6-.8v3.4c-.6.3-1.3.6-2.1.8s-1.8.3-2.8.3c-1.1 0-2-.2-2.9-.5-1.1-.4-2.1-1.2-2.8-2.2s-1.1-2.2-1.1-3.3c0-1.4.3-2.7 1-3.7s1.7-1.8 2.9-2.4c-.3.4-.5.7-.7 1.1s-.3.9-.4 1.4h5.8c0-.5 0-.9-.1-1.3s-.2-.7-.4-.9l-.6-.6c-.2-.2-.5-.3-.7-.4s-.5-.1-.7-.2c-.2 0-.4-.1-.5-.1h-.2c-.8 0-1.6.2-2.4.4s-1.4.5-2 .9-1.1.8-1.6 1.3c-.5.8-.9 1.3-1.3 1.8" style="fill:#488fcc"/>
  </g>
  <path class="st17" d="M66 3h1v31h-1z"/>
  <path class="st15" d="M2 3h64v31H2z"/>
  <path d="m44.8 21.4-2.7-2.7c-.1 0-.1-.1-.1-.2s0-.1.1-.2l2.7-2.7.6.6-1.9 1.8H52v1h-8.5l1.9 1.8z" style="fill:#040404"/>
  <path class="st31" d="M57 13H47v4h1v-1h9v6h-9v-2h-1v3h11V13zm0 2h-9v-1h9zm-42 0h10v10H14V15zm0 1v1h9v-1zm0 2v6h9v-6z"/>
  <path class="st31" d="M12 11h10v4h-1v-1h-9v6h3v1h-4V11zm0 1v1h9v-1z"/>
  <path class="st26" d="m1412.5 12.8.3-.4-.3-.4-.3.4zm.3.3-.3.4zm-1 .4-.4-.4-.3.4.3.4zm.4.4.3-.4zm4.1 4.1.4.4.3-.4-.3-.4zm-4.1 4.1-.4-.4zm-.4.4-.4-.4-.3.4.3.4zm.7.7-.3.4.3.4.3-.4zm.3-.3.4.4zm4.2-4.2.3-.4-.3-.3-.3.4zm4.2 4.2-.4.4zm.3.3-.3.4.3.4.3-.4zm.7-.7.4.4.3-.4-.3-.4zm-.4-.4.4-.4zm-4.1-4.1-.4-.4-.3.4.3.4zm4.1-4.1.4.4zm.4-.4.4.4.3-.4-.3-.4zm-.7-.7.3-.4-.3-.4-.3.4zm-.3.3-.4-.4zm-4.2 4.2-.3.4.3.4.3-.4zm-4.8-4.2.3.4.7-.7-.4-.4zm0 .8.7-.7-.7-.7-.7.7zm.3-.4-.3-.4-.7.7.4.4zm4.2 4.1-4.2-4.1-.7.7 4.1 4.1zm-4.2 4.9 4.2-4.1-.7-.7-4.1 4.1zm-.3.4.3-.4-.7-.7-.4.4zm.6 0-.7-.7-.7.7.7.7zm-.3-.4-.3.4.7.7.4-.4zm4.2-4.1-4.2 4.1.7.7 4.1-4.1zm4.8 4.1-4.2-4.1-.7.7 4.1 4.1zm.3.4-.3-.4-.7.7.4.4zm0-.8-.7.7.7.7.7-.7zm-.3.4.3.4.7-.7-.4-.4zm-4.2-4.1 4.2 4.1.7-.7-4.1-4.1zm4.2-4.9-4.2 4.1.7.7 4.1-4.1zm.3-.4-.3.4.7.7.4-.4zm-.6 0 .7.7.7-.7-.7-.7zm.3.4.3-.4-.7-.7-.4.4zm-4.2 4.1 4.2-4.1-.7-.7-4.1 4.1zm-4.8-4.1 4.2 4.1.7-.7-4.1-4.1z"/>
  <path style="fill:none;stroke:#010101" d="M1366.5 13.5h9v9h-9z"/>
  <path class="st26" d="M1320 17h10v1h-10z"/>
</svg>
