<svg version="1.1" id="Layer_1" xmlns="http://www.w3.org/2000/svg" x="0" y="0" viewBox="0 0 1442 811" style="enable-background:new 0 0 1442 811" xml:space="preserve">
  <style>
    .st56{fill:#e1e1e2}.st57{fill:#f8fafb}.st62{fill-rule:evenodd;clip-rule:evenodd}.st62,.st63{fill:#676767}.st64{fill:none;stroke:#676767;stroke-width:2;stroke-linejoin:round}.st66{fill-rule:evenodd;clip-rule:evenodd}.st66,.st67{fill:#535355}.st73{fill:#1e1e1e}.st74{fill:#262525}.st75{fill:#a8a7a8}.st77{fill:#bbb}.st78{fill:#656566}
  </style>
  <path class="st56" d="M0 0v811h1442V0zm1440 809H2V76h1438z"/>
  <path class="st57" d="M2 35h1438v40H2z"/>
  <path class="st56" d="M2 75h1440v1H2z"/>
  <path style="fill:none" d="M215 40h1039v30H215z"/>
  <path d="M217 40h1035c1.1 0 2 .9 2 2v26c0 1.1-.9 2-2 2H217c-1.1 0-2-.9-2-2V42c0-1.1.9-2 2-2" style="fill:#fff"/>
  <path d="M217 40.5h1035c.8 0 1.5.7 1.5 1.5v26c0 .8-.7 1.5-1.5 1.5H217c-.8 0-1.5-.7-1.5-1.5V42c0-.8.7-1.5 1.5-1.5z" style="fill:none;stroke:#bfbebf"/>
  <path style="fill:#d4d4d4" d="M1162 44h1v22h-1z"/>
  <path class="st62" d="M1177 57c1.1 0 2-.9 2-2s-.9-2-2-2-2 .9-2 2 .9 2 2 2m6 0c1.1 0 2-.9 2-2s-.9-2-2-2-2 .9-2 2 .9 2 2 2m8-2c0 1.1-.9 2-2 2s-2-.9-2-2 .9-2 2-2 2 .9 2 2"/>
  <path class="st63" d="M1139 51h6v1h-6zm0 2h6v1h-6zm0 2h6v1h-6zm0 2h3v1h-3z"/>
  <path class="st64" d="M1137 48c-.6 0-1 .4-1 1v12c0 .6.4 1 1 1h10c.6 0 1-.4 1-1V49c0-.6-.4-1-1-1zm68 1c-.6 0-1 .4-1 1v6c0 .2.1.4.2.6l.8-.6-.8.6.1.1c.1.1.2.3.4.5.3.4.8.9 1.4 1.5 1.2 1 2.9 2.2 4.8 2.2s3.6-1.2 4.8-2.2c.6-.5 1.1-1.1 1.4-1.5.2-.2.3-.4.4-.5 0-.1.1-.1.1-.1l-.8-.6.8.6c.1-.2.2-.4.2-.6v-6c0-.6-.4-1-1-1z"/>
  <path class="st63" d="M1213.9 52.6c0-.1.1-.1.2-.1s.2 0 .2.1l.8.8c.1.1.1.1.1.2s0 .2-.1.2l-3.9 3.9c-.1.1-.1.1-.2.1s-.2 0-.3-.1l-3.9-3.9c-.1-.1-.1-.1-.1-.2s0-.2.1-.2l.8-.8c.1-.1.2-.1.3-.1s.2 0 .2.1l2.9 2.9z"/>
  <path class="st64" d="M1239.4 48.6q-.3-.6-.9-.6c-.6 0-.7.2-.9.6l-1.5 3.1-3.3.5c-.4.1-.7.3-.8.7s0 .8.3 1l2.4 2.3-.6 3.6c-.1.4.1.8.4 1s.7.2 1 .1l2.9-1.6 2.9 1.6c.3.2.7.2 1-.1.3-.2.5-.6.4-1l-.6-3.5 2.4-2.5c.3-.3.3-.7.2-1-.1-.4-.4-.6-.8-.7l-3.3-.5z"/>
  <path d="M257.6 54.5c-.3-.3-.6-.5-.9-.5h-.7v-1.8c0-.7-.1-1.4-.5-2.1q-.6-.9-1.5-1.5c-.6-.4-1.3-.6-2-.6s-1.4.2-2 .6q-.9.6-1.5 1.5c-.4.6-.5 1.3-.5 2.1V54h-.7c-.4 0-.7.3-.9.5s-.4.6-.4.9v5.3c0 .4.1.7.4.9s.6.4.9.4h9.4c.4 0 .7-.1.9-.4s.4-.6.4-.9v-5.3c0-.3-.1-.6-.4-.9M254 52v2h-4v-2c0-.6.2-1 .6-1.4s.9-.6 1.4-.6 1 .2 1.4.6.6.8.6 1.4" style="fill-rule:evenodd;clip-rule:evenodd;fill:#2ab34b"/>
  <path class="st62" d="M235.4 48.9c-1-.6-2.2-.9-3.4-.9s-2.4.3-3.4.9-1.9 1.5-2.5 2.6-.9 2.2-.9 3.5.3 2.4.9 3.5 1.4 1.9 2.5 2.6c1 .6 2.2.9 3.4.9s2.4-.3 3.4-.9 1.9-1.5 2.5-2.6.9-2.2.9-3.5-.3-2.4-.9-3.5-1.5-1.9-2.5-2.6m-6.4.9c.9-.5 1.9-.8 3-.8s2 .3 3 .8c.9.5 1.6 1.3 2.2 2.2.5.9.8 1.9.8 3s-.3 2.1-.8 3-1.2 1.6-2.1 2.2c-.9.5-1.9.8-3 .8s-2.1-.3-3-.8-1.6-1.3-2.1-2.2-.8-1.9-.8-3 .3-2.1.8-3c.4-.9 1.1-1.7 2-2.2m3 1.2c.3 0 .5.1.7.3s.3.4.3.7-.1.5-.3.7-.4.3-.7.3-.5-.1-.7-.3-.3-.4-.3-.7.1-.5.3-.7.4-.3.7-.3m0 3c-.6 0-1 .4-1 1v3c0 .6.4 1 1 1s1-.4 1-1v-3c0-.5-.4-1-1-1"/>
  <path class="st66" d="M111.6 55.9h1.3v5.5c0 .3.3.6.6.6h10.9c.3 0 .6-.3.6-.6v-5.5h1.6c.2 0 .4-.1.5-.4.1-.2 0-.5-.1-.6l-7.3-7.8c-.2-.2-.8-.2-1 0l-7.4 7.8c-.2.2-.2.4-.1.6-.1.3.1.4.4.4M119 50l4 3.9V60h-2v-5.2h-4V60h-2v-6.2z"/>
  <path class="st67" d="M94.7 48c.1 0 .2 0 .2.1.1.1.1.1.1.2v5.6c0 .1 0 .2-.1.2-.1.1-.1.1-.2.1h-5.6c-.1 0-.2 0-.2-.1s-.1-.1-.1-.2v-1.3c0-.1 0-.2.1-.2s.2-.1.3-.1l2.8.1c-.4-.7-1-1.2-1.7-1.6s-1.5-.6-2.3-.6c-.9 0-1.7.2-2.5.7s-1.3 1-1.8 1.8c-.4.8-.7 1.6-.7 2.5s.2 1.7.7 2.5c.4.8 1 1.3 1.8 1.8s1.5.5 2.4.5q.9 0 1.8-.3c.6-.2 1-.5 1.5-.9.1-.1.2-.1.2-.1.1 0 .2 0 .2.1l.9.9c.1.1.1.1.1.2s0 .2-.1.2c-.6.6-1.3 1-2.1 1.3s-1.6.6-2.5.6c-1.2 0-2.4-.3-3.4-.9-1.1-.6-1.9-1.5-2.5-2.5s-.9-2.2-.9-3.4.3-2.4.9-3.5 1.5-1.9 2.5-2.5c1.1-.6 2.2-.9 3.4-.9 1 0 2 .2 2.9.6s1.7 1 2.3 1.8l-.1-2.3c0-.1 0-.2.1-.3s.1-.1.2-.1z"/>
  <path d="M55.9 48.4c.1-.1.2-.2.4-.2s.3.1.4.2l6.2 6.2c.1.1.2.2.2.4s-.1.3-.2.4l-6.2 6.2c-.1.1-.2.2-.4.2s-.3-.1-.4-.2l-.9-.9c-.1-.1-.2-.3-.2-.4 0-.2.1-.3.2-.4l3.8-3.9H47.2s-.2-.2-.2-.3v-1.3c0-.2.2-.3.2-.3h11.6L55 50.2c-.1-.1-.2-.2-.2-.4s.1-.3.2-.4z" style="fill:#b5b6b6"/>
  <path d="M22 71.5c9.1 0 16.5-7.4 16.5-16.5S31.1 38.5 22 38.5 5.5 45.9 5.5 55 12.9 71.5 22 71.5z" style="fill:#fff;stroke:#b2b2b3"/>
  <path d="M21.1 61.6c-.1.1-.2.2-.4.2s-.3-.1-.4-.2l-6.2-6.2c0-.1-.1-.2-.1-.4s.1-.3.2-.4l6.2-6.2c.1-.1.2-.2.4-.2s.3.1.4.2l.9.9c.1.1.2.3.2.4 0 .2-.1.3-.2.4L18.3 54h11.6s.2.2.2.3v1.3c0 .2-.2.3-.2.3H18.3l3.8 3.9c.1.1.2.2.2.4s-.1.3-.2.4z" style="fill:#555556"/>
  <path class="st66" d="M1415 50c0-.6.4-1 1-1h10c.6 0 1 .4 1 1s-.4 1-1 1h-10c-.6 0-1-.4-1-1m0 5c0-.6.4-1 1-1h10c.6 0 1 .4 1 1s-.4 1-1 1h-10c-.6 0-1-.4-1-1m1 4c-.6 0-1 .4-1 1s.4 1 1 1h10c.6 0 1-.4 1-1s-.4-1-1-1z"/>
  <path style="fill:#e0dfe0" d="M1401 38h1v34h-1z"/>
  <path d="M1376 49c-.3 0-.5.1-.7.3s-.3.4-.3.7v10c0 .6.4 1 1 1h12c.6 0 1-.4 1-1V50c0-.6-.4-1-1-1z" style="fill:none;stroke:#535355;stroke-width:2;stroke-linejoin:round"/>
  <path class="st66" d="M1382 50h-1v10h1zm-2 1h-3v1h3zm0 2h-3v1h3zm-2 2h2v1h-2zm-34-7c-.5 0-1 .4-1 1v12c0 .5.4 1 1 1 .5 0 1-.4 1-1V49c-.1-.6-.5-1-1-1m8.7.8c-.5.2-.8.7-.6 1.2l4 11.3c.2.5.8.8 1.3.6s.8-.7.6-1.2l-4-11.3c-.2-.5-.8-.7-1.3-.6m-6.8 2.2c0-.5.4-1 1-1 .5 0 1 .4 1 1v10c0 .5-.4 1-1 1-.5 0-1-.4-1-1zm3.9-2c-.5 0-1 .4-1 1v11c0 .5.4 1 1 1 .5 0 1-.4 1-1V50c0-.6-.4-1-1-1"/>
  <path class="st73" d="M2 34h1438v1H2z"/>
  <path class="st74" d="M2 2h1438v32H2z"/>
  <path class="st75" d="m1412.5 13.8.3-.4-.3-.4-.3.4zm.3.3-.3.4zm-1 .4-.4-.4-.3.4.3.4zm.4.4.3-.4zm4.1 4.1.4.4.3-.4-.3-.4zm-4.1 4.1-.4-.4zm-.4.4-.4-.4-.3.4.3.4zm.7.7-.3.4.3.4.3-.4zm.3-.3.4.4zm4.2-4.2.3-.4-.3-.3-.3.4zm4.2 4.2-.4.4zm.3.3-.3.4.3.4.3-.4zm.7-.7.4.4.3-.4-.3-.4zm-.4-.4.4-.4zm-4.1-4.1-.4-.4-.3.4.3.4zm4.1-4.1.4.4zm.4-.4.4.4.3-.4-.3-.4zm-.7-.7.3-.4-.3-.4-.3.4zm-.3.3-.4-.4zm-4.2 4.2-.3.4.3.4.3-.4zm-4.8-4.2.3.4.7-.7-.4-.4zm0 .8.7-.7-.7-.7-.7.7zm.3-.4-.3-.4-.7.7.4.4zm4.2 4.1-4.2-4.1-.7.7 4.1 4.1zm-4.2 4.9 4.2-4.1-.7-.7-4.1 4.1zm-.3.4.3-.4-.7-.7-.4.4zm.6 0-.7-.7-.7.7.7.7zm-.3-.4-.3.4.7.7.4-.4zm4.2-4.1-4.2 4.1.7.7 4.1-4.1zm4.8 4.1-4.2-4.1-.7.7 4.1 4.1zm.3.4-.3-.4-.7.7.4.4zm0-.8-.7.7.7.7.7-.7zm-.3.4.3.4.7-.7-.4-.4zm-4.2-4.1 4.2 4.1.7-.7-4.1-4.1zm4.2-4.9-4.2 4.1.7.7 4.1-4.1zm.3-.4-.3.4.7.7.4-.4zm-.6 0 .7.7.7-.7-.7-.7zm.3.4.3-.4-.7-.7-.4.4zm-4.2 4.1 4.2-4.1-.7-.7-4.1 4.1zm-4.8-4.1 4.2 4.1.7-.7-4.1-4.1z"/>
  <path style="fill:none;stroke:#a8a7a8" d="M1366.5 14.5h9v9h-9z"/>
  <path class="st75" d="M1320 18h10v1h-10z"/>
  <path class="st77" d="M514.7 18.1c.1 0 .1 0 .2.1s.1.1.1.2v1.2c0 .1 0 .1-.1.2s-.1.1-.2.1h-5.8v5.8c0 .1 0 .1-.1.2s-.1.1-.2.1h-1.2c-.1 0-.1 0-.2-.1s-.1-.1-.1-.2v-5.8h-5.8c-.1 0-.1 0-.2-.1s-.1-.1-.1-.2v-1.2c0-.1 0-.1.1-.2s.1-.1.2-.1h5.8v-5.8c0-.1 0-.1.1-.2s.1-.1.2-.1h1.2c.1 0 .1 0 .2.1s.1.1.1.2v5.8z"/>
  <path class="st78" d="M490 2h1v33h-1z"/>
  <path class="st74" d="M266 2h224v33H266z"/>
  <path class="st77" d="m474.1 19 3.9 3.9s.1.1.1.2 0 .1-.1.2l-.7.7s-.1.1-.2.1-.1 0-.2-.1l-3.9-3.9-3.9 3.9s-.1.1-.2.1-.1 0-.2-.1l-.7-.7s-.1-.1-.1-.2 0-.1.1-.2l3.9-3.9-3.9-3.9s-.1-.1-.1-.2 0-.1.1-.2l.7-.7s.1-.1.2-.1.1 0 .2.1l3.9 3.9 3.9-3.9s.1-.1.2-.1.1 0 .2.1l.7.7s.1.1.1.2 0 .1-.1.2zm-170.4 3c-.3.4-.6.7-1.1.9s-1 .3-1.7.3c-.6 0-1.2-.1-1.7-.4s-.9-.7-1.1-1.3c-.3-.6-.4-1.2-.4-1.9v-.7c0-1.2.3-2.1.8-2.7.6-.6 1.3-1 2.3-1 .8 0 1.5.2 2 .6q.75.6.9 1.8h-1c-.2-1-.8-1.6-1.8-1.6-.7 0-1.2.2-1.6.7s-.5 1.2-.5 2.1v.6q0 1.35.6 2.1c.4.5.9.8 1.6.8.4 0 .7 0 1-.1s.5-.2.7-.4V20h-1.8v-.8h2.8zm1.3-2q0-.9.3-1.5c.2-.5.5-.8.9-1.1.4-.2.9-.4 1.4-.4.8 0 1.4.3 1.9.8s.7 1.3.7 2.2v.1q0 .9-.3 1.5c-.2.4-.5.8-.9 1-.4.3-.9.4-1.4.4-.8 0-1.4-.3-1.9-.8S305 21 305 20m1 .2c0 .6.1 1.2.4 1.6q.45.6 1.2.6t1.2-.6c.3-.4.4-1 .4-1.7 0-.6-.2-1.2-.5-1.5q-.45-.6-1.2-.6t-1.2.6c-.2.3-.3.8-.3 1.6m5.3-.2q0-.9.3-1.5c.2-.5.5-.8.9-1.1.4-.2.9-.4 1.4-.4.8 0 1.4.3 1.9.8s.7 1.3.7 2.2v.1q0 .9-.3 1.5c-.2.4-.5.8-.9 1-.4.3-.9.4-1.4.4-.8 0-1.4-.3-1.9-.8s-.7-1.2-.7-2.2m1 .2c0 .6.1 1.2.4 1.6q.45.6 1.2.6t1.2-.6c.3-.4.4-1 .4-1.7 0-.6-.2-1.2-.5-1.5q-.45-.6-1.2-.6t-1.2.6c-.2.3-.3.8-.3 1.6m5.3-.2c0-.9.2-1.6.6-2.2.4-.5 1-.8 1.7-.8s1.3.3 1.7.8v-.6h.9v5.7c0 .8-.2 1.3-.7 1.8q-.6.6-1.8.6-.6 0-1.2-.3c-.4-.2-.7-.4-.9-.7l.5-.6c.4.5.9.8 1.6.8.5 0 .9-.1 1.1-.4.3-.3.4-.7.4-1.1v-.5c-.4.5-.9.7-1.6.7s-1.2-.3-1.7-.8c-.4-.7-.6-1.4-.6-2.4m1 .2c0 .7.1 1.2.4 1.5.3.4.6.6 1.1.6.6 0 1.1-.3 1.4-.9v-2.7c-.3-.6-.8-.8-1.4-.8-.5 0-.9.2-1.1.6-.3.4-.4.9-.4 1.7m6.5 2.8h-1v-8.3h1zm4 .1c-.8 0-1.4-.3-1.9-.8s-.7-1.2-.7-2.1V20q0-.9.3-1.5c.2-.5.5-.8.9-1.1s.8-.4 1.3-.4c.8 0 1.3.2 1.8.7q.6.75.6 2.1v.4h-3.9c0 .6.2 1 .5 1.4s.7.5 1.2.5c.4 0 .6-.1.9-.2.2-.1.5-.3.6-.6l.6.5c-.5.9-1.3 1.3-2.2 1.3m-.2-5.2c-.4 0-.7.1-1 .4s-.4.7-.5 1.2h2.9v-.1c0-.5-.2-.9-.4-1.2-.2-.2-.5-.3-1-.3"/>
  <defs>
    <filter id="Adobe_OpacityMaskFilter_6_" filterUnits="userSpaceOnUse" x="275" y="11" width="16" height="16">
      <feColorMatrix values="1 0 0 0 0 0 1 0 0 0 0 0 1 0 0 0 0 0 1 0"/>
    </filter>
  </defs>
  <mask maskUnits="userSpaceOnUse" x="275" y="11" width="16" height="16" id="mask4_1_">
    <path style="fill:#fff;filter:url(#Adobe_OpacityMaskFilter_6_)" d="M275 11h16v16h-16z"/>
  </mask>
  <g style="mask:url(#mask4_1_)">
    <path d="m278.6 20.6-.6 2.1h-2c-.6-1.1-1-2.4-1-3.8 0-1.3.3-2.6.9-3.7l1.8.3.8 1.8q-.3.75-.3 1.5c.1.7.2 1.3.4 1.8" style="fill:#f9bb16"/>
    <path d="M290.9 17.5c.1.5.1 1 .1 1.5 0 .6-.1 1.1-.2 1.7-.4 1.8-1.4 3.4-2.8 4.6l-2.3-.1-.3-2c.9-.5 1.7-1.4 2.1-2.4h-4.3v-3.2h7.7z" style="fill:#6287c5"/>
    <path d="M288 25.3c-1.4 1.1-3.1 1.7-5 1.7-3.1 0-5.7-1.7-7.1-4.2l2.6-2.1c.7 1.8 2.4 3.1 4.5 3.1q1.35 0 2.4-.6z" style="fill:#2fb44a"/>
    <path d="m288.2 12.8-2.6 2.1c-.7-.5-1.6-.7-2.5-.7-2.1 0-3.9 1.3-4.5 3.2l-2.6-2.1c1.3-2.5 4-4.3 7.1-4.3 1.9 0 3.7.7 5.1 1.8" style="fill:#ef4438"/>
  </g>
  <path class="st73" d="M265 2h1v33h-1z"/>
  <path class="st57" d="M41 2h224v33H41z"/>
  <path class="st67" d="m249.1 19 3.9 3.9s.1.1.1.2 0 .1-.1.2l-.7.7s-.1.1-.2.1-.1 0-.2-.1l-3.9-3.9-3.9 3.9s-.1.1-.2.1-.1 0-.2-.1l-.7-.7s-.1-.1-.1-.2 0-.1.1-.2l3.9-3.9-3.9-3.9s-.1-.1-.1-.2 0-.1.1-.2l.7-.7s.1-.1.2-.1.1 0 .2.1l3.9 3.9 3.9-3.9s.1-.1.2-.1.1 0 .2.1l.7.7s.1.1.1.2 0 .1-.1.2z"/>
  <path d="m75.3 19.1 2-3.9h1.2l-2.7 4.9V23h-1v-2.9l-2.7-4.9h1.2zm3.4.9q0-.9.3-1.5c.2-.5.5-.8.9-1.1.4-.2.9-.4 1.4-.4.8 0 1.4.3 1.9.8s.7 1.3.7 2.2v.1q0 .9-.3 1.5c-.2.4-.5.8-.9 1-.4.3-.9.4-1.4.4-.8 0-1.4-.3-1.9-.8-.4-.5-.7-1.2-.7-2.2m1 .2c0 .6.1 1.2.4 1.6q.45.6 1.2.6t1.2-.6c.3-.4.4-1 .4-1.7 0-.6-.2-1.2-.5-1.5q-.45-.6-1.2-.6t-1.2.6c-.1.3-.3.8-.3 1.6m9.2 2.2c-.4.5-1 .7-1.7.7-.6 0-1.1-.2-1.4-.5-.3-.4-.5-.9-.5-1.6v-3.8h1V21c0 .9.4 1.3 1.1 1.3.8 0 1.3-.3 1.5-.8v-4.2h1V23H89zm5.3-4.3h-.5c-.7 0-1.1.3-1.3.8V23h-1v-5.8h1v.7c.3-.5.8-.8 1.4-.8.2 0 .3 0 .4.1zm6.1 1.4c-.9-.3-1.5-.6-1.9-.9-.4-.4-.6-.8-.6-1.4s.2-1.1.7-1.5 1.1-.6 1.9-.6c.5 0 1 .1 1.4.3s.7.5 1 .9q.3.6.3 1.2h-1c0-.5-.2-.8-.5-1.1s-.7-.4-1.3-.4q-.75 0-1.2.3c-.3.2-.4.5-.4.9 0 .3.1.6.4.8s.7.4 1.4.6q1.05.3 1.5.6c.4.2.6.5.8.8s.3.6.3 1c0 .6-.2 1.1-.7 1.5s-1.2.6-2 .6q-.75 0-1.5-.3c-.5-.2-.8-.5-1.1-.8-.3-.4-.4-.8-.4-1.2h1c0 .5.2.8.5 1.1.4.3.8.4 1.4.4.5 0 1-.1 1.3-.3s.4-.5.4-.9-.1-.7-.4-.9c-.1-.3-.6-.5-1.3-.7m5.1 3.5h-1v-5.8h1zm-1.1-7.4c0-.2 0-.3.1-.4s.2-.2.4-.2.3.1.4.2.2.2.2.4-.1.3-.2.4-.2.2-.4.2-.3-.1-.4-.2c0-.1-.1-.2-.1-.4m4.1.2v1.4h1.1v.8h-1.1v3.6c0 .2 0 .4.1.5s.3.2.5.2c.1 0 .3 0 .5-.1v.8c-.3.1-.5.1-.8.1-.4 0-.8-.1-1-.4s-.3-.6-.3-1.1V18h-1.1v-.8h1.1v-1.4zm4.6 7.3c-.8 0-1.4-.3-1.9-.8s-.7-1.2-.7-2.1V20q0-.9.3-1.5c.2-.5.5-.8.9-1.1s.8-.4 1.3-.4c.8 0 1.3.2 1.8.7q.6.75.6 2.1v.4h-3.9c0 .6.2 1 .5 1.4s.7.5 1.2.5c.4 0 .6-.1.9-.2.2-.1.5-.3.6-.6l.6.5c-.5.9-1.2 1.3-2.2 1.3m-.1-5.2c-.4 0-.7.1-1 .4s-.4.7-.5 1.2h2.9v-.1c0-.5-.2-.9-.4-1.2-.3-.2-.6-.3-1-.3m11.6-1.9H122v7h-1v-7h-2.5v-.8h6zm2.1 7h-1v-5.8h1zm-1.1-7.4c0-.2 0-.3.1-.4s.2-.2.4-.2.3.1.4.2.1.2.1.4 0 .3-.1.4-.2.2-.4.2-.3-.1-.4-.2c0-.1-.1-.2-.1-.4m4 .2v1.4h1.1v.8h-1.1v3.6c0 .2 0 .4.1.5s.3.2.5.2c.1 0 .3 0 .5-.1v.8c-.3.1-.5.1-.8.1-.4 0-.8-.1-1-.4s-.3-.6-.3-1.1V18h-1.1v-.8h1.1v-1.4zm3.4 7.2h-1v-8.3h1zm4 .1c-.8 0-1.4-.3-1.9-.8s-.7-1.2-.7-2.1V20q0-.9.3-1.5c.2-.5.5-.8.9-1.1s.8-.4 1.3-.4c.8 0 1.3.2 1.8.7q.6.75.6 2.1v.4h-3.9c0 .6.2 1 .5 1.4s.7.5 1.2.5c.4 0 .6-.1.9-.2.2-.1.5-.3.6-.6l.6.5c-.5.9-1.2 1.3-2.2 1.3m-.1-5.2c-.4 0-.7.1-1 .4s-.4.7-.5 1.2h2.9v-.1c0-.5-.2-.9-.4-1.2-.3-.2-.6-.3-1-.3" style="fill:#0e0e0f"/>
  <defs>
    <filter id="Adobe_OpacityMaskFilter_7_" filterUnits="userSpaceOnUse" x="50" y="11" width="15.5" height="16">
      <feColorMatrix values="1 0 0 0 0 0 1 0 0 0 0 0 1 0 0 0 0 0 1 0"/>
    </filter>
  </defs>
  <mask maskUnits="userSpaceOnUse" x="50" y="11" width="15.5" height="16" id="mask5_1_">
    <path style="fill:#fff;filter:url(#Adobe_OpacityMaskFilter_7_)" d="M50 11h16v16H50z"/>
  </mask>
  <g style="mask:url(#mask5_1_)">
    <radialGradient id="SVGID_1_" cx="1" cy="1081" r="1" gradientTransform="matrix(5.5865 .2493 .6857 -15.3681 -682.078 16627.68)" gradientUnits="userSpaceOnUse">
      <stop offset=".045" style="stop-color:#fee900"/>
      <stop offset=".12" style="stop-color:#fede00"/>
      <stop offset=".254" style="stop-color:#febf10"/>
      <stop offset=".429" style="stop-color:#f78e1e"/>
      <stop offset=".769" style="stop-color:#ee3435"/>
      <stop offset=".872" style="stop-color:#e0255b"/>
      <stop offset=".953" style="stop-color:#cd2678"/>
      <stop offset="1" style="stop-color:#c52783"/>
    </radialGradient>
    <path d="M62.5 12.5c-.4.4-.5 1.5-.2 2.5.4 1 1 .8 1.4 1.9.5 1.4.3 3.3.3 3.3s.6 1.7 1-.1c.9-3.5-2.5-6.8-2.5-7.6" style="fill:url(#SVGID_1_)"/>
    <radialGradient id="SVGID_2_" cx="1" cy="1081" r="1" gradientTransform="matrix(15.7603 0 0 -15.8443 45.022 17141.828)" gradientUnits="userSpaceOnUse">
      <stop offset="0" style="stop-color:#39c1d2"/>
      <stop offset=".22" style="stop-color:#457abe"/>
      <stop offset=".261" style="stop-color:#4275ba"/>
      <stop offset=".33" style="stop-color:#3c65af"/>
      <stop offset=".333" style="stop-color:#3b64af"/>
      <stop offset=".438" style="stop-color:#35459c"/>
      <stop offset=".522" style="stop-color:#422d81"/>
      <stop offset=".566" style="stop-color:#4c2873"/>
    </radialGradient>
    <path d="M57.8 26.8c4 0 7.2-3.2 7.2-7.3s-3.2-7.3-7.2-7.3-7.2 3.2-7.2 7.3 3.2 7.3 7.2 7.3" style="fill:url(#SVGID_2_)"/>
    <linearGradient id="SVGID_3_" gradientUnits="userSpaceOnUse" x1="58.88" y1="1059.174" x2="55.416" y2="1069.236" gradientTransform="matrix(1 0 0 -1 0 1082)">
      <stop offset="0" style="stop-color:#121643;stop-opacity:.4"/>
      <stop offset=".485" style="stop-color:#20275e;stop-opacity:.173"/>
      <stop offset="1" style="stop-color:#263171;stop-opacity:1.000000e-02"/>
    </linearGradient>
    <path d="M63.2 24.1c-.2.1-.3.2-.5.3.2-.3.4-.7.6-1 .2-.2.3-.3.4-.5.1-.1.1-.2.2-.3.4-.7.9-1.9.9-3.1v-.1c0-.3 0-.6-.1-.9v.1-.1.1c.1.7 0 1.4-.3 1.9.2-.8.2-1.6 0-2.5 0 0-.1-.4-.6-1.7-.3-.7-.8-1.3-1.3-1.7-.4-.5-.8-.8-1-1-.4-.4-.6-.8-.7-1-.1 0-.9-.8-.9-.8-.3.5-1.4 2.2-.9 3.8.2.7.8 1.5 1.5 1.9 0 0 .4.4.5 1.3.2.9.1 1.6-.3 2.6-.4.9-1.5 1.8-2.5 1.9-2.1.2-2.9-1.1-2.9-1.1.8.3 1.6.2 2.1-.1s.8-.6 1.1-.5c.2.1.4-.2.3-.5-.3-.4-.8-.7-1.3-.6s-1 .5-1.6.1l-.1-.1h.1c-.1-.1-.4-.2-.4-.3h.1c-.6-.5-.5-.9-.5-1.1s.1-.4.3-.5c.1.1.2.1.2.1s0-.1-.1-.1c.1 0 .2.1.3.2l.2.2v-.1s0-.1-.2-.2c.1 0 .1.1.2.1 0-.1.1-.2.1-.5V18c0-.1 0-.1.1 0v-.1c.1-.2 1.1-.7 1.2-.7l.3-.3c.1-.1.1-.2.1-.4 0-.1-.1-.2-1.1-.4-.3 0-.5-.2-.6-.4 0 0 0-.1-.1-.1v-.1q.3-.75.9-1.2h-.1l.2-.1s-.2-.1-.4-.1-.2 0-.3.1c0 0 .2-.1.1-.1-.2 0-.5.2-.7.3v-.1c-.1 0-.4.2-.4.4v-.1c-.1.1-.2.1-.2.2-.6-.2-1.1-.3-1.6-.2-.1-.1-.1 0-.4-.5 0-.1 0 .1 0 0-.4.3-.9.6-1.1.9 0 0 .3-.1 0 0v.6c-.2.2-.3.4-.4.6-.2.4-.5 1.1-.8 2.1.1-.3.3-.6.4-.8-.2.6-.4 1.4-.5 2.8.1-.3.1-.6.2-.8q-.15 1.65.6 3.3c.2.4.4.9.8 1.6 1.3 1.4 3.2 2.3 5.3 2.3 2.3-.2 4.2-1.1 5.6-2.6" style="fill:url(#SVGID_3_)"/>
    <radialGradient id="SVGID_4_" cx="1" cy="1081" r="1" gradientTransform="matrix(5.29 .5338 .4937 -4.8929 -472.842 5310.008)" gradientUnits="userSpaceOnUse">
      <stop offset=".003" style="stop-color:#fee900"/>
      <stop offset=".497" style="stop-color:#ee3435"/>
      <stop offset="1" style="stop-color:#c52783"/>
    </radialGradient>
    <path d="M61.6 25.1c2.6-.3 3.8-3 2.3-3.1-1.4 0-3.6 3.2-2.3 3.1" style="fill:url(#SVGID_4_)"/>
    <radialGradient id="SVGID_5_" cx="1" cy="1081" r="1" gradientTransform="matrix(8.8338 .8914 1.6344 -16.198 -1709.458 17525.305)" gradientUnits="userSpaceOnUse">
      <stop offset=".003" style="stop-color:#fee800"/>
      <stop offset=".157" style="stop-color:#fcaf17"/>
      <stop offset=".316" style="stop-color:#f47925"/>
      <stop offset=".472" style="stop-color:#f0522f"/>
      <stop offset=".621" style="stop-color:#ef3835"/>
      <stop offset=".762" style="stop-color:#ee273c"/>
      <stop offset=".892" style="stop-color:#ee223f"/>
      <stop offset="1" style="stop-color:#ee2040"/>
    </radialGradient>
    <path d="M64.1 21.4c1.8-1.1 1.3-3.4 1.3-3.4s-.7.8-1.2 2.1c-.4 1.4-1.2 2-.1 1.3" style="fill:url(#SVGID_5_)"/>
    <radialGradient id="SVGID_6_" cx="1" cy="1081" r="1" gradientTransform="matrix(8.106 .8179 .4474 -4.4339 -425.135 4816.729)" gradientUnits="userSpaceOnUse">
      <stop offset=".003" style="stop-color:#ee3435"/>
      <stop offset=".497" style="stop-color:#c52783"/>
      <stop offset=".986" style="stop-color:#60120c"/>
    </radialGradient>
    <path d="M58.3 26.4c2.5.8 4.7-1.2 3.4-1.9-1.3-.5-4.6 1.6-3.4 1.9" style="fill:url(#SVGID_6_)"/>
    <radialGradient id="SVGID_7_" cx="1" cy="1081" r="1" gradientTransform="matrix(9.9076 0 0 -10.3261 53.706 11179.922)" gradientUnits="userSpaceOnUse">
      <stop offset="0" style="stop-color:#fee900"/>
      <stop offset=".231" style="stop-color:#fede00"/>
      <stop offset=".365" style="stop-color:#febf10"/>
      <stop offset=".541" style="stop-color:#f78e1e"/>
      <stop offset=".763" style="stop-color:#ee3435"/>
      <stop offset=".796" style="stop-color:#ee2e39"/>
      <stop offset=".841" style="stop-color:#e73f25"/>
      <stop offset=".893" style="stop-color:#cd6028"/>
      <stop offset="1" style="stop-color:#f15f22"/>
    </radialGradient>
    <path d="M64.3 22.4c.1-.1.1-.4.2-.5.4-.7.5-1.3.5-1.3.3-1.4.2-1.9.1-2.9-.1-.8-.7-2-1.2-2.6s-.2-.4-.7-.8c-.4-.5-.9-1-1.1-1.2-1.7-1.4-1.7-1.7-1.6-1.8v-.1s-.9.9-1.1 2.5c-.1 1 .3 2.1.8 2.7.3.3.6.7 1 .9q.6.9.6 2.1c0 2-1.6 3.6-3.6 3.6-.3 0-.5 0-.8-.1-.9-.2-1.5-.6-1.7-1-.2-.2-.2-.3-.2-.3.8.3 1.8.2 2.3-.1.6-.3.9-.5 1.2-.5.3.1.5-.2.3-.4-.2-.3-.7-.7-1.4-.6-.6.1-1.1.5-1.8.1L56 20h.1c-.1-.1-.4-.2-.5-.3h.1c-.7-.5-.6-.9-.6-1.1s.1-.4.4-.5c.1.1.2.1.2.1s0-.1-.1-.1c.1 0 .3.1.4.2l.2.2v-.1s0-.1-.2-.2c.1 0 .1.1.2.1 0-.1.1-.2.1-.5v-.3c0-.1 0-.1.1 0v-.1c.1-.2 1.2-.7 1.3-.7.1-.1.3-.2.3-.3.1-.1.1-.2.1-.4 0-.1 0-.2-.3-.2-.2 0-.5-.1-.9-.1-.3 0-.5-.2-.6-.4 0 0 0-.1-.1-.1v-.1c.2-.5.5-.9 1-1.2h-.1s.2-.1.3-.1c0 0-.2-.1-.4-.1s-.3 0-.4.1l.2-.1c-.2 0-.5.2-.8.3v-.1c-.1 0-.4.2-.5.4v-.1c-.1.1-.2.1-.2.2-.7-.2-1.3-.3-1.8-.1-.1-.1-.3-.2-.5-.7 0 0 0 .1 0 0-.1-.2-.2-.6-.1-.8 0 0-.2.1-.4.5 0 .1-.1.1-.1.1v-.1s-.1.1-.1.2-.1.1-.1.2v-.1c-.1.2-.1.3-.2.5-.1.3-.2.7-.2 1.2v.1c-.2.2-.4.4-.4.6q-.45.6-.9 2.1c.1-.3.3-.6.5-.8-.7.5-1 1.3-1 2.7.1-.3.1-.5.2-.8 0 .9.1 2 .6 3.2.3.7 1.1 2.2 3 3.4 0 0 .6.5 1.7.8.1 0 .2.1.2.1h-.1c.7.2 1.5.3 2.3.3 2.8 0 3.7-1.1 3.7-1.1l.1-.1c-.4.4-1.5.5-1.9.4.7-.2 1.1-.4 1.9-.7.1 0 .2-.1.3-.1h.1c.4-.2.8-.4 1.1-.7.8-.7 1-1.3 1.1-1.8 0 0-.1.1-.1.2-.2.5-.7.7-1.2 1 .2-.3.5-.7.7-1 .4-.2.4-.5.6-.7" style="fill:url(#SVGID_7_)"/>
    <radialGradient id="SVGID_8_" cx="1" cy="1081" r="1" gradientTransform="matrix(15.0181 0 0 -37.8782 45.654 40957.355)" gradientUnits="userSpaceOnUse">
      <stop offset=".279" style="stop-color:#fee900"/>
      <stop offset=".402" style="stop-color:#fedc00"/>
      <stop offset=".63" style="stop-color:#fdba12"/>
      <stop offset=".856" style="stop-color:#f7911e"/>
      <stop offset=".933" style="stop-color:#f26822"/>
      <stop offset=".994" style="stop-color:#f04f29"/>
    </radialGradient>
    <path d="M63.2 24c.3-.4.7-.8.9-1.3.6-1.3 1.5-3.4.8-5.5-.6-1.7-1.4-2.7-2.4-3.6-1.6-1.5-2.1-2.2-2.1-2.6 0 0-1.9 2.1-1.1 4.3s2.5 2.1 3.6 4.4c1.3 2.7-1.1 5.6-3 6.5.1 0 4.3-1 4.6-3.4 0 0-.1.7-1.3 1.2" style="fill:url(#SVGID_8_)"/>
    <linearGradient id="SVGID_9_" gradientUnits="userSpaceOnUse" x1="52.91" y1="1065.246" x2="58.714" y2="1065.918" gradientTransform="matrix(1 0 0 -1 0 1082)">
      <stop offset="0" style="stop-color:#c52783;stop-opacity:.5"/>
      <stop offset=".474" style="stop-color:#ee3435;stop-opacity:.5"/>
      <stop offset=".486" style="stop-color:#ef3733;stop-opacity:.513"/>
      <stop offset=".675" style="stop-color:#f47924;stop-opacity:.72"/>
      <stop offset=".829" style="stop-color:#fcb216;stop-opacity:.871"/>
      <stop offset=".942" style="stop-color:#fed604;stop-opacity:.964"/>
      <stop offset="1" style="stop-color:#ffe300"/>
    </linearGradient>
    <path d="M57.8 16.2c0-.1-.1-.2-1.2-.3-.5 0-.7-.5-.7-.7-.2.4-.2.9-.2 1.5 0 .4.3.8.4 1 .2-.2 1.2-.6 1.3-.6 0-.2.3-.5.4-.9" style="fill:url(#SVGID_9_)"/>
    <linearGradient id="SVGID_10_" gradientUnits="userSpaceOnUse" x1="52.522" y1="1066.889" x2="51.294" y2="1068.888" gradientTransform="matrix(1 0 0 -1 0 1082)">
      <stop offset="0" style="stop-color:#891b53;stop-opacity:.6"/>
      <stop offset="1" style="stop-color:#c52783;stop-opacity:1.000000e-02"/>
    </linearGradient>
    <path d="M52.6 13.5s-.1.1 0 0c-.1-.2-.2-.6-.2-.8 0 0-.2.1-.4.5 0 .1-.1.1-.1.1v-.1s-.1.1-.1.2-.1.1-.1.2v-.1c-.4.7-.5 1.9-.4 1.8.8-.9 1.8-1.1 1.8-1.1-.1 0-.3-.2-.5-.7" style="fill:url(#SVGID_10_)"/>
    <linearGradient id="SVGID_11_" gradientUnits="userSpaceOnUse" x1="53.282" y1="1062.978" x2="55.041" y2="1061.632" gradientTransform="matrix(1 0 0 -1 0 1082)">
      <stop offset=".005" style="stop-color:#891b53;stop-opacity:.5"/>
      <stop offset=".484" style="stop-color:#ee3435;stop-opacity:.5"/>
      <stop offset="1" style="stop-color:#ee3435;stop-opacity:1.000000e-02"/>
    </linearGradient>
    <path d="M55.7 22.7c-1.1-.5-2.4-1.2-2.4-2.7.1-2 1.9-1.6 1.9-1.6-.1 0-.3.1-.3.3-.1.2-.2.6.2 1 .6.7-1.2 1.6 1.6 3.2.1 0-.7 0-1-.2" style="fill:url(#SVGID_11_)"/>
    <linearGradient id="SVGID_12_" gradientUnits="userSpaceOnUse" x1="56.271" y1="1060.078" x2="56.286" y2="1061.289" gradientTransform="matrix(1 0 0 -1 0 1082)">
      <stop offset="0" style="stop-color:#c52783"/>
      <stop offset=".083" style="stop-color:#c52783;stop-opacity:.81"/>
      <stop offset=".206" style="stop-color:#c52783;stop-opacity:.565"/>
      <stop offset=".328" style="stop-color:#c52783;stop-opacity:.362"/>
      <stop offset=".447" style="stop-color:#c52783;stop-opacity:.204"/>
      <stop offset=".562" style="stop-color:#c52783;stop-opacity:9.100000e-02"/>
      <stop offset=".673" style="stop-color:#c52783;stop-opacity:2.300000e-02"/>
      <stop offset=".773" style="stop-color:#c52783;stop-opacity:1.000000e-02"/>
    </linearGradient>
    <path d="M55.3 21.7c.8.3 1.7.2 2.3-.1.4-.2.9-.5 1.2-.5-.3-.1-.5-.1-.7-.1h-.4c-.1 0-.3.1-.5.1l.1-.1h-.5c-1.7.1-3.1-.9-3.1-.9 0 .5.7 1.3 1.6 1.6" style="fill:url(#SVGID_12_)"/>
    <linearGradient id="SVGID_13_" gradientUnits="userSpaceOnUse" x1="58.045" y1="1066.024" x2="66.383" y2="1062.138" gradientTransform="matrix(1 0 0 -1 0 1082)">
      <stop offset="0" style="stop-color:#fef053"/>
      <stop offset=".268" style="stop-color:#feee4d"/>
      <stop offset=".452" style="stop-color:#fee645"/>
      <stop offset=".612" style="stop-color:#ffd837"/>
      <stop offset=".757" style="stop-color:#ffc523"/>
      <stop offset=".892" style="stop-color:#fbaa19"/>
      <stop offset=".902" style="stop-color:#fba919"/>
      <stop offset=".949" style="stop-color:#f9a01b"/>
      <stop offset="1" style="stop-color:#f7911e"/>
    </linearGradient>
    <path d="M63.2 24c1.7-1.7 2.6-3.7 2.2-6 0 0 .1 1.2-.4 2.4.3-1.2.3-2.6-.4-4.1-.9-2-2.5-3-3.1-3.5-.9-.7-1.3-1.3-1.3-1.5-.3.5-1.1 2.4-.1 4 .9 1.5 2.4 2 3.4 3.3 2 2.7-.3 5.4-.3 5.4" style="fill:url(#SVGID_13_)"/>
    <linearGradient id="SVGID_14_" gradientUnits="userSpaceOnUse" x1="61.215" y1="1063.963" x2="58.685" y2="1057.713" gradientTransform="matrix(1 0 0 -1 0 1082)">
      <stop offset="0" style="stop-color:#f78e1e"/>
      <stop offset=".04" style="stop-color:#f78e1e;stop-opacity:.858"/>
      <stop offset=".084" style="stop-color:#f78e1e;stop-opacity:.729"/>
      <stop offset=".13" style="stop-color:#f78e1e;stop-opacity:.628"/>
      <stop offset=".178" style="stop-color:#f78e1e;stop-opacity:.557"/>
      <stop offset=".227" style="stop-color:#f78e1e;stop-opacity:.514"/>
      <stop offset=".282" style="stop-color:#f78e1e;stop-opacity:.5"/>
      <stop offset=".389" style="stop-color:#f78e1e;stop-opacity:.478"/>
      <stop offset=".524" style="stop-color:#f78e1e;stop-opacity:.416"/>
      <stop offset=".676" style="stop-color:#f78e1e;stop-opacity:.314"/>
      <stop offset=".838" style="stop-color:#f78e1e;stop-opacity:.172"/>
      <stop offset="1" style="stop-color:#f78e1e;stop-opacity:1.000000e-02"/>
    </linearGradient>
    <path d="M63 19.7c-.6-1.2-1.3-1.8-2-2.3.1.1.1.2.1.2.6.7 1.5 2.3.9 4.3-1.2 3.8-6.2 2-6.7 1.5.2 2.2 3.9 3.2 6.3 1.8 1.3-1.3 2.4-3.5 1.4-5.5" style="fill:url(#SVGID_14_)"/>
  </g>
  <path style="fill:#457cbf" d="M41 2h224v2H41z"/>
  <path class="st78" d="M40 2h1v33h-1z"/>
</svg>
