<svg xmlns="http://www.w3.org/2000/svg" viewBox="0 0 554.1 455" xml:space="preserve">
  <g/>
  <g/>
  <g/>
  <linearGradient id="a" gradientUnits="userSpaceOnUse" x1="192.935" y1="15.95" x2="368.16" y2="15.95" gradientTransform="matrix(1 0 0 -1 0 456)">
    <stop offset=".006" style="stop-color:#58595b"/>
    <stop offset=".28" style="stop-color:#757679"/>
    <stop offset=".509" style="stop-color:#88898d"/>
    <stop offset="1" style="stop-color:#58595b"/>
  </linearGradient>
  <path d="M194 437v1.4c0 3.2 4.5 4.7 18.1 4.7H347c13.6 0 18.4-2 18.4-5h-.4v-1H194z" style="fill:url(#a)"/>
  <linearGradient id="b" gradientUnits="userSpaceOnUse" x1="278.614" y1="81.499" x2="278.614" y2="4.952" gradientTransform="matrix(1 0 0 -1 0 456)">
    <stop offset=".085" style="stop-color:#6d6f73"/>
    <stop offset=".127" style="stop-color:#97999c"/>
    <stop offset=".184" style="stop-color:#cccdce"/>
    <stop offset=".212" style="stop-color:#e0e1e2"/>
    <stop offset=".315" style="stop-color:#a7a9ac"/>
    <stop offset=".389" style="stop-color:#868789"/>
    <stop offset=".461" style="stop-color:#636363"/>
    <stop offset=".526" style="stop-color:#6e6f6f"/>
    <stop offset=".645" style="stop-color:#8b8d8f"/>
    <stop offset=".739" style="stop-color:#a6aaad"/>
  </linearGradient>
  <path d="M347.9 418.5c-12.2-12.4-12.6-39.5-12.6-39.5H222s-.5 27.1-12.6 39.5c-12.2 12.4-31.2 23.5 1.8 23.5h134.9c32.9 0 13.9-11.1 1.8-23.5" style="fill:url(#b)"/>
  <radialGradient id="c" cx="362.301" cy="-15.291" r="64.188" gradientTransform="matrix(1 0 0 -1 0 456)" gradientUnits="userSpaceOnUse">
    <stop offset="0" style="stop-color:#fff"/>
    <stop offset="1" style="stop-color:#fff;stop-opacity:0"/>
  </radialGradient>
  <path d="M289.5 442c6.7-15 28.3-27 55.1-29.7 1.2 2.1 2.6 4 4.2 5.6 11.9 12.2 30.5 23-.1 24h-59.2z" style="fill:url(#c)"/>
  <radialGradient id="d" cx="404.183" cy="-15.291" r="64.188" gradientTransform="rotate(180 300.463 228)" gradientUnits="userSpaceOnUse">
    <stop offset="0" style="stop-color:#fff"/>
    <stop offset="1" style="stop-color:#fff;stop-opacity:0"/>
  </radialGradient>
  <path d="M269.6 442c-6.7-15-28.3-27-55.1-29.7-1.2 2.1-2.6 4-4.2 5.6-11.9 12.2-30.5 23 .1 24h59.2z" style="fill:url(#d)"/>
  <linearGradient id="e" gradientUnits="userSpaceOnUse" x1="210.4" y1="14" x2="346.9" y2="14" gradientTransform="matrix(1 0 0 -1 0 456)">
    <stop offset=".006" style="stop-color:#fff;stop-opacity:0"/>
    <stop offset=".509" style="stop-color:#fff"/>
    <stop offset="1" style="stop-color:#fff;stop-opacity:0"/>
  </linearGradient>
  <path d="M210.4 442.1c11.4-.2 22.8-.3 34.1-.4l34.1-.1 34.1.1 17.1.1 17.1.2-17.1.2-17.1.1-34.1.1-34.1-.1c-11.3.1-22.7 0-34.1-.2" style="fill:url(#e)"/>
  <linearGradient id="f" gradientUnits="userSpaceOnUse" x1="-9.675" y1="81.732" x2="592.571" y2="121.209" gradientTransform="matrix(1 0 0 -1 0 456)">
    <stop offset="0" style="stop-color:#78797d"/>
    <stop offset=".317" style="stop-color:#737478"/>
    <stop offset=".491" style="stop-color:#6d6f73"/>
    <stop offset="1" style="stop-color:#6d6f73"/>
  </linearGradient>
  <path d="M0 363.2c0 9.1 7.9 16.8 17 16.8h520.5c9.1 0 16.5-7.6 16.5-16.8V332H0z" style="fill:url(#f)"/>
  <path d="M537.5 0H17C7.9 0 0 6.5 0 15.6V331h554V15.6C554 6.5 546.6 0 537.5 0M531 308H23V22h508z" style="fill:#231f20"/>
  <linearGradient id="g" gradientUnits="userSpaceOnUse" x1="-9.62" y1="82.737" x2="592.567" y2="122.21" gradientTransform="matrix(1 0 0 -1 0 456)">
    <stop offset="0" style="stop-color:#898a8f"/>
    <stop offset=".05" style="stop-color:#909196"/>
    <stop offset=".314" style="stop-color:#b1b2b6"/>
    <stop offset=".566" style="stop-color:#c8cacd"/>
    <stop offset=".801" style="stop-color:#d6d8db"/>
    <stop offset="1" style="stop-color:#dbdde0"/>
  </linearGradient>
  <path d="M0 361.4c0 9.1 7.9 17.6 17 17.6h520.5c9.1 0 16.5-8.5 16.5-17.6V331H0z" style="fill:url(#g)"/>
  <g/>
</svg>
