<svg xmlns="http://www.w3.org/2000/svg" viewBox="0 0 617.17 512.16">
  <defs>
    <linearGradient id="linear-gradient" x1="308.58" y1="512.16" x2="308.58" y2="506.58" gradientUnits="userSpaceOnUse">
      <stop offset="0" stop-color="#fff"/>
      <stop offset=".01" stop-color="#f6f6f6"/>
      <stop offset=".05" stop-color="#c8c8c8"/>
      <stop offset=".09" stop-color="#9d9d9d"/>
      <stop offset=".14" stop-color="#777"/>
      <stop offset=".2" stop-color="#575757"/>
      <stop offset=".25" stop-color="#3b3b3b"/>
      <stop offset=".32" stop-color="#252525"/>
      <stop offset=".4" stop-color="#141414"/>
      <stop offset=".49" stop-color="#090909"/>
      <stop offset=".63" stop-color="#020202"/>
      <stop offset="1"/>
    </linearGradient>
    <linearGradient id="linear-gradient-2" x1="308.58" y1="425.94" x2="308.58" y2="420.91" gradientUnits="userSpaceOnUse">
      <stop offset="0" stop-color="#1a1a1a"/>
      <stop offset=".55" stop-color="#0e0e0e"/>
      <stop offset="1"/>
    </linearGradient>
    <linearGradient id="linear-gradient-3" x1="369.83" y1="369" x2="369.83" gradientUnits="userSpaceOnUse">
      <stop offset="0"/>
      <stop offset=".16" stop-color="#030303"/>
      <stop offset=".29" stop-color="#0d0d0d"/>
      <stop offset=".41" stop-color="#1e1e1e"/>
      <stop offset=".53" stop-color="#363636"/>
      <stop offset=".63" stop-color="#555"/>
      <stop offset=".74" stop-color="#7b7b7b"/>
      <stop offset=".84" stop-color="#a7a7a7"/>
      <stop offset=".94" stop-color="#dadada"/>
      <stop offset="1" stop-color="#fff"/>
    </linearGradient>
    <linearGradient id="linear-gradient-4" x1="215.57" y1="509.37" x2="401.6" y2="509.37" gradientUnits="userSpaceOnUse">
      <stop offset="0" stop-color="#343434"/>
      <stop offset=".08" stop-color="#3e3e3e"/>
      <stop offset=".16" stop-color="#4f4f4f"/>
      <stop offset=".27" stop-color="#696969"/>
      <stop offset=".39" stop-color="gray"/>
      <stop offset=".65" stop-color="#7c7e7f"/>
      <stop offset=".75" stop-color="#6b6c6d"/>
      <stop offset=".96" stop-color="#3e3e3e"/>
      <stop offset="1" stop-color="#343434"/>
    </linearGradient>
    <linearGradient id="linear-gradient-5" x1="308.58" y1="509.84" x2="308.58" y2="420.84" gradientUnits="userSpaceOnUse">
      <stop offset="0" stop-color="#535353"/>
      <stop offset=".16" stop-color="#585858"/>
      <stop offset=".18" stop-color="#4e4e4e"/>
      <stop offset=".24" stop-color="#373737"/>
      <stop offset=".28" stop-color="#414141"/>
      <stop offset=".34" stop-color="#5c5c5c"/>
      <stop offset=".39" stop-color="#777"/>
      <stop offset=".65" stop-color="#696a6c"/>
      <stop offset=".76" stop-color="#58595a"/>
      <stop offset=".99" stop-color="#2b2b2b"/>
      <stop offset="1" stop-color="#2a2a2a"/>
    </linearGradient>
    <linearGradient id="linear-gradient-6" x1="308.58" y1="512.16" x2="308.58" y2="506.58" gradientUnits="userSpaceOnUse">
      <stop offset="0" stop-color="#343434"/>
      <stop offset=".04" stop-color="#393939"/>
      <stop offset=".19" stop-color="#444"/>
      <stop offset=".41" stop-color="#4b4b4b"/>
      <stop offset="1" stop-color="#4d4d4d"/>
    </linearGradient>
    <linearGradient id="linear-gradient-7" y1="397.47" x2="617.16" y2="397.47" gradientUnits="userSpaceOnUse">
      <stop offset="0" stop-color="#4b4b4d"/>
      <stop offset="1" stop-color="#707070"/>
    </linearGradient>
    <linearGradient id="linear-gradient-8" x1="308.58" y1="425.94" x2="308.58" y2="420.91" gradientUnits="userSpaceOnUse">
      <stop offset="0"/>
      <stop offset=".09" stop-color="#0c0c0c"/>
      <stop offset=".25" stop-color="#2d2d2d"/>
      <stop offset=".47" stop-color="#636363"/>
      <stop offset=".73" stop-color="#adadad"/>
      <stop offset="1" stop-color="#fff"/>
    </linearGradient>
    <linearGradient id="linear-gradient-9" x1="81.86" y1="-28.38" x2="535.3" y2="425.06" gradientUnits="userSpaceOnUse">
      <stop offset="0" stop-color="#f2f3f4"/>
      <stop offset=".36" stop-color="#edeeef"/>
      <stop offset=".78" stop-color="#dfe0e0"/>
      <stop offset="1" stop-color="#d5d6d6"/>
    </linearGradient>
    <linearGradient id="linear-gradient-10" x1="369.83" y1="369" x2="369.83" gradientUnits="userSpaceOnUse">
      <stop offset="0" stop-color="#ededed"/>
      <stop offset=".49" stop-color="#f0f0f0"/>
      <stop offset=".88" stop-color="#fafafa"/>
      <stop offset="1" stop-color="#fff"/>
    </linearGradient>
    <filter id="luminosity-noclip" x="215.57" y="-8626.87" width="186.03" height="32766" filterUnits="userSpaceOnUse" color-interpolation-filters="sRGB">
      <feFlood flood-color="#fff" result="bg"/>
      <feBlend in="SourceGraphic" in2="bg"/>
    </filter>
    <filter id="luminosity-noclip-2" x="3.75" y="-8626.87" width="609.66" height="32766" filterUnits="userSpaceOnUse" color-interpolation-filters="sRGB">
      <feFlood flood-color="#fff" result="bg"/>
      <feBlend in="SourceGraphic" in2="bg"/>
    </filter>
    <filter id="luminosity-noclip-3" x="122.49" y="-8626.87" width="494.68" height="32766" filterUnits="userSpaceOnUse" color-interpolation-filters="sRGB">
      <feFlood flood-color="#fff" result="bg"/>
      <feBlend in="SourceGraphic" in2="bg"/>
    </filter>
    <filter id="luminosity-noclip-4" x="215.57" y="506.58" width="186.03" height="5.59" filterUnits="userSpaceOnUse" color-interpolation-filters="sRGB">
      <feFlood flood-color="#fff" result="bg"/>
      <feBlend in="SourceGraphic" in2="bg"/>
    </filter>
    <filter id="luminosity-noclip-5" x="3.75" y="420.91" width="609.66" height="5.03" filterUnits="userSpaceOnUse" color-interpolation-filters="sRGB">
      <feFlood flood-color="#fff" result="bg"/>
      <feBlend in="SourceGraphic" in2="bg"/>
    </filter>
    <filter id="luminosity-noclip-6" x="122.49" y="0" width="494.68" height="369" filterUnits="userSpaceOnUse" color-interpolation-filters="sRGB">
      <feFlood flood-color="#fff" result="bg"/>
      <feBlend in="SourceGraphic" in2="bg"/>
    </filter>
    <mask id="mask" x="215.57" y="-8626.87" width="186.03" height="32766" maskUnits="userSpaceOnUse">
      <g style="filter:url(#luminosity-noclip)"/>
    </mask>
    <mask id="mask-2" x="3.75" y="-8626.87" width="609.66" height="32766" maskUnits="userSpaceOnUse">
      <g style="filter:url(#luminosity-noclip-2)"/>
    </mask>
    <mask id="mask-3" x="122.49" y="-8626.87" width="494.68" height="32766" maskUnits="userSpaceOnUse">
      <g style="filter:url(#luminosity-noclip-3)"/>
    </mask>
    <mask id="mask-4" x="215.57" y="506.58" width="186.03" height="5.59" maskUnits="userSpaceOnUse">
      <g style="mask:url(#mask);filter:url(#luminosity-noclip-4)">
        <path d="M216.66 506.58h-1.09V509a3.21 3.21 0 0 0 3.24 3.14h179.54a3.21 3.21 0 0 0 3.25-3.14v-2.44Z" style="mix-blend-mode:multiply;fill:url(#linear-gradient)"/>
      </g>
    </mask>
    <mask id="mask-5" x="3.75" y="420.91" width="609.66" height="5.03" maskUnits="userSpaceOnUse">
      <g style="mask:url(#mask-2);filter:url(#luminosity-noclip-5)">
        <path d="M613.41 420.91a14.88 14.88 0 0 1-11.16 5H14.92a14.9 14.9 0 0 1-11.17-5Z" style="mix-blend-mode:multiply;fill:url(#linear-gradient-2)"/>
      </g>
    </mask>
    <mask id="mask-6" x="122.49" y="0" width="494.68" height="369" maskUnits="userSpaceOnUse">
      <g style="mask:url(#mask-3);filter:url(#luminosity-noclip-6)">
        <path d="M617.16 14.92V369H122.49l369-369h110.76a14.91 14.91 0 0 1 14.91 14.92" style="mix-blend-mode:multiply;fill:url(#linear-gradient-3)"/>
      </g>
    </mask>
    <style>
      .cls-12{fill:#333}
    </style>
  </defs>
  <g style="isolation:isolate">
    <g id="Layer_2" data-name="Layer 2">
      <g id="object">
        <path d="M216.66 506.58h-1.09V509a3.21 3.21 0 0 0 3.24 3.14h179.54a3.21 3.21 0 0 0 3.25-3.14v-2.44Z" style="fill:url(#linear-gradient-4)"/>
        <path d="M398.35 509.84H218.81a3.19 3.19 0 0 1-1.87-5.81l18-12.63a14.07 14.07 0 0 0 6-10.16l5.88-60.4h123.55l5.88 60.4a14.07 14.07 0 0 0 6 10.16l18 12.63a3.19 3.19 0 0 1-1.9 5.81" style="fill:url(#linear-gradient-5)"/>
        <g style="mask:url(#mask-4)">
          <path d="M216.66 506.58h-1.09V509a3.21 3.21 0 0 0 3.24 3.14h179.54a3.21 3.21 0 0 0 3.25-3.14v-2.44Z" style="opacity:.7;fill:url(#linear-gradient-6)"/>
        </g>
        <rect class="cls-12" width="617.16" height="425.4" rx="14.92"/>
        <path d="M617.17 15.45V411a14.91 14.91 0 0 1-14.92 14.91H14.92A14.91 14.91 0 0 1 0 411V15.45A14.92 14.92 0 0 1 14.92.53h587.33a14.92 14.92 0 0 1 14.92 14.92"/>
        <path d="M617.16 369v42a14.92 14.92 0 0 1-14.91 14.92H14.92A14.92 14.92 0 0 1 0 411v-42Z" style="fill:url(#linear-gradient-7)"/>
        <g style="mask:url(#mask-5)">
          <path d="M613.41 420.91a14.88 14.88 0 0 1-11.16 5H14.92a14.9 14.9 0 0 1-11.17-5Z" style="mix-blend-mode:multiply;fill:url(#linear-gradient-8)"/>
        </g>
        <path class="cls-12" d="M591.94 26H25.22a1.11 1.11 0 0 0-1.1 1.11V369h1.68V27.68h565.57V369H593V27.1a1.11 1.11 0 0 0-1.06-1.1"/>
        <path style="fill:#777" d="M0 369h617.17v1.85H0z"/>
        <path style="fill:url(#linear-gradient-9)" d="M25.8 27.68h565.57V369H25.8z"/>
        <g style="mask:url(#mask-6)">
          <path d="M617.16 14.92V369H122.49l369-369h110.76a14.91 14.91 0 0 1 14.91 14.92" style="opacity:.2;fill:url(#linear-gradient-10)"/>
        </g>
      </g>
    </g>
  </g>
</svg>
