<svg xmlns="http://www.w3.org/2000/svg" viewBox="0 0 493.37 283.16">
  <defs>
    <linearGradient id="d" x1="284.7" y1="271.64" x2="284.7" gradientUnits="userSpaceOnUse">
      <stop offset="0"/>
      <stop offset=".28" stop-color="#020202"/>
      <stop offset=".42" stop-color="#0a0a0a"/>
      <stop offset=".52" stop-color="#171717"/>
      <stop offset=".61" stop-color="#2a2a2a"/>
      <stop offset=".7" stop-color="#424242"/>
      <stop offset=".77" stop-color="#606060"/>
      <stop offset=".84" stop-color="#838383"/>
      <stop offset=".9" stop-color="#adadad"/>
      <stop offset=".96" stop-color="#dadada"/>
      <stop offset="1" stop-color="#fff"/>
    </linearGradient>
    <linearGradient id="e" x1="246.69" y1="283.16" x2="246.69" y2="274.99" gradientUnits="userSpaceOnUse">
      <stop offset="0" stop-color="#575554"/>
      <stop offset=".46" stop-color="#575554"/>
      <stop offset="1" stop-color="#131313"/>
    </linearGradient>
    <linearGradient id="f" x1="-5819.87" y1="273.97" x2="-5614.5" y2="273.97" gradientTransform="matrix(-1 0 0 1 -5614.5 0)" gradientUnits="userSpaceOnUse">
      <stop offset="0" stop-color="#767676"/>
      <stop offset="0" stop-color="#6e6e6e"/>
      <stop offset="0" stop-color="#585858"/>
      <stop offset=".01" stop-color="#4a4a4a"/>
      <stop offset=".01" stop-color="#454545"/>
      <stop offset=".01" stop-color="#484848"/>
      <stop offset=".02" stop-color="#525252"/>
      <stop offset=".02" stop-color="#5d5d5d"/>
      <stop offset=".03" stop-color="#7c7c7c"/>
      <stop offset=".4" stop-color="#838383"/>
      <stop offset=".41" stop-color="#838383"/>
      <stop offset=".94" stop-color="#6a6a6a"/>
      <stop offset=".96" stop-color="#484848"/>
      <stop offset=".97" stop-color="#383838"/>
      <stop offset=".98" stop-color="#3d3d3d"/>
      <stop offset=".99" stop-color="#4b4b4b"/>
      <stop offset=".99" stop-color="#636363"/>
      <stop offset="1" stop-color="#7c7c7c"/>
    </linearGradient>
    <linearGradient id="g" x1="287.98" y1="273.97" x2="493.35" y2="273.97" gradientUnits="userSpaceOnUse">
      <stop offset="0" stop-color="#505050"/>
      <stop offset="0" stop-color="#484848"/>
      <stop offset="0" stop-color="#323232"/>
      <stop offset=".01" stop-color="#242424"/>
      <stop offset=".01" stop-color="#1f1f1f"/>
      <stop offset=".01" stop-color="#222"/>
      <stop offset=".02" stop-color="#2c2c2c"/>
      <stop offset=".02" stop-color="#373737"/>
      <stop offset=".03" stop-color="#565656"/>
      <stop offset=".4" stop-color="#5e5e5e"/>
      <stop offset=".41" stop-color="#5e5e5e"/>
      <stop offset=".94" stop-color="#444"/>
      <stop offset=".96" stop-color="#222"/>
      <stop offset=".97" stop-color="#121212"/>
      <stop offset=".98" stop-color="#171717"/>
      <stop offset=".99" stop-color="#252525"/>
      <stop offset=".99" stop-color="#3d3d3d"/>
      <stop offset="1" stop-color="#565656"/>
    </linearGradient>
    <linearGradient id="h" x1="205.37" y1="274.09" x2="287.98" y2="274.09" gradientUnits="userSpaceOnUse">
      <stop offset="0" stop-color="#565656"/>
      <stop offset=".06" stop-color="#444"/>
      <stop offset=".51" stop-color="#565656"/>
      <stop offset=".94" stop-color="#444"/>
      <stop offset="1" stop-color="#565656"/>
    </linearGradient>
    <linearGradient id="i" x1="-5819.87" y1="273.54" x2="-5614.5" y2="273.54" gradientTransform="matrix(-1 0 0 1 -5614.5 0)" gradientUnits="userSpaceOnUse">
      <stop offset="0" stop-color="#a7a7a7"/>
      <stop offset="0" stop-color="#8e8e8e"/>
      <stop offset="0" stop-color="#6f6f6f"/>
      <stop offset=".01" stop-color="#585858"/>
      <stop offset=".01" stop-color="#4a4a4a"/>
      <stop offset=".01" stop-color="#454545"/>
      <stop offset=".01" stop-color="#484848"/>
      <stop offset=".01" stop-color="#525252"/>
      <stop offset=".02" stop-color="#636363"/>
      <stop offset=".02" stop-color="#757575"/>
      <stop offset=".03" stop-color="#6b6968"/>
      <stop offset=".4" stop-color="#6b6968"/>
      <stop offset=".41" stop-color="#6b6968"/>
      <stop offset=".94" stop-color="#8d8d8d"/>
      <stop offset=".95" stop-color="#636363"/>
      <stop offset=".97" stop-color="#3b3b3b"/>
      <stop offset=".97" stop-color="#2b2b2b"/>
      <stop offset=".98" stop-color="#303030"/>
      <stop offset=".99" stop-color="#3e3e3e"/>
      <stop offset=".99" stop-color="#565554"/>
      <stop offset="1" stop-color="#6b6968"/>
    </linearGradient>
    <linearGradient id="j" x1="246.7" y1="270.98" x2="246.7" y2="1.76" gradientUnits="userSpaceOnUse">
      <stop offset="0" stop-color="#504e4e"/>
      <stop offset=".09" stop-color="#585656"/>
      <stop offset=".24" stop-color="#6e6b6b"/>
      <stop offset=".42" stop-color="#918e8e"/>
      <stop offset=".45" stop-color="#979494"/>
      <stop offset="1" stop-color="#7b7878"/>
    </linearGradient>
    <linearGradient id="k" x1="246.69" y1="14.05" x2="246.69" gradientUnits="userSpaceOnUse">
      <stop offset="0" stop-color="#1a1a1a"/>
      <stop offset=".28" stop-color="#1d1d1d"/>
      <stop offset=".45" stop-color="#252525"/>
      <stop offset=".59" stop-color="#333"/>
      <stop offset=".71" stop-color="#474747"/>
      <stop offset=".82" stop-color="#626262"/>
      <stop offset=".92" stop-color="#818181"/>
      <stop offset="1" stop-color="#9f9f9f"/>
    </linearGradient>
    <linearGradient id="l" x1="287.98" y1="273.54" x2="493.35" y2="273.54" gradientUnits="userSpaceOnUse">
      <stop offset="0" stop-color="#818181"/>
      <stop offset="0" stop-color="#696969"/>
      <stop offset="0" stop-color="#4a4a4a"/>
      <stop offset=".01" stop-color="#333"/>
      <stop offset=".01" stop-color="#252525"/>
      <stop offset=".01" stop-color="#202020"/>
      <stop offset=".01" stop-color="#232323"/>
      <stop offset=".01" stop-color="#2d2d2d"/>
      <stop offset=".02" stop-color="#3e3e3e"/>
      <stop offset=".02" stop-color="#4f4f4f"/>
      <stop offset=".03" stop-color="#6b6968"/>
      <stop offset=".4" stop-color="#6b6968"/>
      <stop offset=".41" stop-color="#6b6968"/>
      <stop offset=".94" stop-color="#686868"/>
      <stop offset=".95" stop-color="#4b4b4b"/>
      <stop offset=".96" stop-color="#232323"/>
      <stop offset=".97" stop-color="#131313"/>
      <stop offset=".98" stop-color="#181818"/>
      <stop offset=".98" stop-color="#262626"/>
      <stop offset=".99" stop-color="#3e3d3d"/>
      <stop offset="1" stop-color="#605e5d"/>
      <stop offset="1" stop-color="#6b6968"/>
    </linearGradient>
    <linearGradient id="m" x1="205.37" y1="273.66" x2="287.98" y2="273.66" gradientUnits="userSpaceOnUse">
      <stop offset="0" stop-color="#838180"/>
      <stop offset=".06" stop-color="#6b6968"/>
      <stop offset=".51" stop-color="#838180"/>
      <stop offset=".94" stop-color="#6b6968"/>
      <stop offset="1" stop-color="#838180"/>
    </linearGradient>
    <linearGradient id="n" x1="90.74" y1="-18.62" x2="402.63" y2="293.28" gradientUnits="userSpaceOnUse">
      <stop offset="0" stop-color="#f2f3f4"/>
      <stop offset=".36" stop-color="#edeeef"/>
      <stop offset=".78" stop-color="#dfe0e0"/>
      <stop offset="1" stop-color="#d5d6d6"/>
    </linearGradient>
    <linearGradient id="p" x1="284.7" y1="271.64" x2="284.7" gradientUnits="userSpaceOnUse">
      <stop offset="0" stop-color="#fff"/>
      <stop offset=".85" stop-color="#fff"/>
      <stop offset="1" stop-color="#fff"/>
    </linearGradient>
    <filter id="a" x="120.99" y="-8037.65" width="327.41" height="32766" filterUnits="userSpaceOnUse" color-interpolation-filters="sRGB">
      <feFlood flood-color="#fff" result="bg"/>
      <feBlend in="SourceGraphic" in2="bg"/>
    </filter>
    <filter id="c" x="120.99" y="0" width="327.41" height="271.64" filterUnits="userSpaceOnUse" color-interpolation-filters="sRGB">
      <feFlood flood-color="#fff" result="bg"/>
      <feBlend in="SourceGraphic" in2="bg"/>
    </filter>
    <mask id="b" x="120.99" y="-8037.65" width="327.41" height="32766" maskUnits="userSpaceOnUse">
      <g style="filter:url(#a)"/>
    </mask>
    <mask id="o" x="120.99" y="0" width="327.41" height="271.64" maskUnits="userSpaceOnUse">
      <g style="mask:url(#b);filter:url(#c)">
        <path d="M436.11 0h-43.48L121 271.63h327.4V12.29A12.29 12.29 0 0 0 436.11 0m7.4 4.84" style="mix-blend-mode:multiply;fill:url(#d)"/>
      </g>
    </mask>
  </defs>
  <g data-name="Layer 2" style="isolation:isolate">
    <path d="M0 275a179.7 179.7 0 0 0 53.58 8.17h386.21a179.6 179.6 0 0 0 53.58-8.17z" style="fill:url(#e)"/>
    <path d="M0 272.06V275h198.87a25 25 0 0 1 5.82.74l.68.14v-3.81Z" style="fill:url(#f)"/>
    <path d="M493.35 272.06V275H294.47a24.8 24.8 0 0 0-5.81.74l-.68.14v-3.81Z" style="fill:url(#g)"/>
    <path d="M288 272.06v3.81a14 14 0 0 1-2.57.24h-77.49a13.7 13.7 0 0 1-2.57-.24v-3.81Z" style="fill:url(#h)"/>
    <path d="M0 271.64v2.93h198.87a25.4 25.4 0 0 1 5.82.73c.22.06.45.1.68.15v-3.81Z" style="fill:url(#i)"/>
    <path d="M436.14 1.76H57.29A12.3 12.3 0 0 0 45 14.05V271h1.76V12.29a11 11 0 0 1 .12-1.6c0-.17.06-.34.1-.51s.07-.34.11-.51.09-.34.14-.5a10.5 10.5 0 0 1 2.1-3.75l.33-.42.17-.18a11 11 0 0 1 1.77-1.38 7 7 0 0 1 .66-.39c.22-.12.45-.23.68-.34l.47-.2a10.5 10.5 0 0 1 3.85-.73h378.85a10.5 10.5 0 0 1 5 1.27c.22.12.44.25.65.39s.56.38.83.58l.39.32c.19.16.37.34.55.51l.18.18.34.38a10.44 10.44 0 0 1 2.56 6.87V271h1.78V13.28a12.28 12.28 0 0 0-12.25-11.52" style="fill:url(#j)"/>
    <path d="M45 12.29A12.29 12.29 0 0 1 57.26 0h378.85a12.29 12.29 0 0 1 12.29 12.29v1a12.28 12.28 0 0 0-12.26-11.53H57.29A12.3 12.3 0 0 0 45 14.05Z" style="fill:url(#k)"/>
    <path style="fill:#212121" d="M46.75 262.35h399.87v8.63H46.75z"/>
    <path d="M446.62 12.29v250.06H46.75V12.29A10.53 10.53 0 0 1 57.26 1.78h378.85a10.52 10.52 0 0 1 10.51 10.51"/>
    <path d="M493.35 271.64v2.93H294.47a25.3 25.3 0 0 0-5.81.73c-.22.06-.45.1-.68.15v-3.81Z" style="fill:url(#l)"/>
    <path d="M288 271.64v3.81a15 15 0 0 1-2.57.23h-77.49a14.6 14.6 0 0 1-2.57-.23v-3.81Z" style="fill:url(#m)"/>
    <path style="fill:#131313" d="M448.4 270.98v.66h-1.78v-.01H46.75v.01h-1.76v-.66z"/>
    <path style="fill:url(#n)" d="M55.02 17.1h383.33v240.47H55.02z"/>
    <g style="mask:url(#o)">
      <path d="M436.11 0h-43.48L121 271.63h327.4V12.29A12.29 12.29 0 0 0 436.11 0m7.4 4.84" style="opacity:.2;mix-blend-mode:lighten;fill:url(#p)"/>
    </g>
  </g>
</svg>
