<svg xmlns="http://www.w3.org/2000/svg" viewBox="0 0 1064 2147">
  <g data-name="Layer 2">
    <g data-name="Слой 2">
      <path d="M1047.37 339.5h-2V127.36A127.36 127.36 0 0 0 918 0H146A127.36 127.36 0 0 0 18.65 127.36V339.5h-2A16.62 16.62 0 0 0 0 356.13v146.74a16.62 16.62 0 0 0 16.63 16.63h2v35h-2A16.62 16.62 0 0 0 0 571.13v146.74a16.62 16.62 0 0 0 16.63 16.63h2v1285.14A127.36 127.36 0 0 0 146 2147h772a127.36 127.36 0 0 0 127.36-127.36V609.5h2a16.63 16.63 0 0 0 16.64-16.63V356.13a16.63 16.63 0 0 0-16.63-16.63" style="fill:#333343"/>
      <rect x="55.71" y="31.5" width="952.58" height="2084" rx="103.44" style="fill:#fff"/>
    </g>
  </g>
</svg>
