<svg version="1.1" id="Layer_1" xmlns="http://www.w3.org/2000/svg" x="0" y="0" viewBox="0 0 1920 1080" xml:space="preserve">
  <style>
    .st5{fill:#989898}
  </style>
  <path d="M0 0v1080h1920V0zm1918 1078H2V82h1916z" style="fill:#e6e6e5"/>
  <linearGradient id="SVGID_1_" gradientUnits="userSpaceOnUse" x1="2" y1="42" x2="1918" y2="42">
    <stop offset=".006" style="stop-color:#edebec"/>
    <stop offset="1" style="stop-color:#edebec;stop-opacity:.8"/>
  </linearGradient>
  <path style="fill:url(#SVGID_1_)" d="M2 2h1916v80H2z"/>
  <g id="MacOS">
    <circle cx="47" cy="41.5" r="8" style="fill:#f16059"/>
    <circle cx="75" cy="41.5" r="8" style="fill:#febf2d"/>
    <circle cx="103" cy="41.5" r="8" style="fill:#4eb748"/>
  </g>
  <path class="st5" d="M1881.9 35.9c0-.5.2-1 .5-1.3.4-.4.8-.5 1.3-.5s1 .2 1.3.5c.4.4.5.8.5 1.3s-.2 1-.5 1.3c-.4.4-.8.5-1.3.5s-1-.2-1.3-.5-.5-.8-.5-1.3m1.9 4.1c-.5 0-1 .2-1.3.5-.4.4-.5.8-.5 1.3s.2 1 .5 1.3c.4.4.8.5 1.3.5s1-.2 1.3-.5c.4-.4.5-.8.5-1.3s-.2-1-.5-1.3-.8-.5-1.3-.5m-1.9 7.8c0-.5.2-1 .5-1.3.4-.4.8-.5 1.3-.5s1 .2 1.3.5c.4.4.5.8.5 1.3s-.2 1-.5 1.3c-.4.4-.8.5-1.3.5s-1-.2-1.3-.5-.5-.8-.5-1.3" id="Menu_Icon"/>
  <path d="M1832 62H312c-11 0-20-9-20-20s9-20 20-20h1520c11 0 20 9 20 20s-9 20-20 20" style="fill:#fff"/>
  <path d="M1826.7 36.6c.1-.2.2-.3.4-.4s.4-.1.5 0 .3.2.4.4l1.5 3.1 3.4.5c.2 0 .4.1.5.3s.2.3.2.5-.1.4-.2.5l-2.5 2.4.6 3.4c0 .2 0 .4-.1.5s-.2.3-.4.3-.4 0-.5-.1l-3.1-1.6-3.1 1.6c-.2.1-.4.1-.5.1s-.3-.2-.4-.3-.1-.3-.1-.5l.6-3.4-2.5-2.4c-.1-.1-.2-.3-.2-.5s0-.4.2-.5.3-.3.5-.3l3.4-.5z" style="fill:#fbb03b"/>
  <path class="st5" d="M323 41.5c.3 0 .6.1.8.3s.3.5.3.8v4.5c0 .3-.1.6-.3.8s-.5.3-.8.3h-8.3c-.3 0-.6-.1-.8-.3s-.3-.5-.3-.8v-4.5c0-.3.1-.6.3-.8s.5-.3.8-.3h.6v-1.7c0-.6.2-1.2.5-1.8s.8-1 1.3-1.3 1.1-.5 1.8-.5 1.2.2 1.8.5 1 .8 1.3 1.3.5 1.1.5 1.8v1.7zm-2.4 0v-1.7c0-.5-.2-.9-.5-1.2s-.7-.5-1.2-.5-.9.2-1.2.5-.5.7-.5 1.2v1.7z"/>
  <path d="M246.9 33.7c1 .4 1.8 1 2.6 1.7l1.2-1.2c.2-.2.3-.2.6-.2s.4.1.6.2.2.3.2.6v4.4c0 .2-.1.4-.2.6s-.3.2-.6.2h-4.4c-.2 0-.4-.1-.6-.2s-.2-.3-.2-.6.1-.4.2-.6l1.4-1.4c-.5-.5-1.1-.8-1.7-1.1s-1.3-.4-2-.4c-1 0-1.9.2-2.8.7s-1.5 1.2-2.1 2-.8 1.8-.8 2.8.2 1.9.7 2.8 1.2 1.5 2 2 1.8.7 2.8.7c.7 0 1.3-.1 2-.3s1.2-.6 1.7-1c.1-.1.2-.1.3-.1s.2 0 .3.1l1.3 1.3c.1.1.1.2.1.3s0 .2-.1.3c-.7.7-1.6 1.2-2.5 1.6s-1.9.6-3 .6c-1.5 0-2.9-.4-4.1-1.1s-2.3-1.7-3-3-1.1-2.6-1.1-4.1.4-2.9 1.1-4.1 1.7-2.3 3-3 2.6-1.1 4.1-1.1q1.5 0 3 .6m-86.4 16.1c-.2.2-.4.3-.7.3s-.5-.1-.7-.3l-7.6-7.6c-.2-.2-.3-.4-.3-.7s.1-.5.3-.7l7.6-7.6c.2-.2.4-.3.7-.3s.5.1.7.3l.9.9c.2.2.3.4.3.7s-.1.5-.3.7l-4.7 4.5h11.2c.3 0 .5.1.7.3s.3.4.3.7v1.3c0 .3-.1.5-.3.7s-.4.3-.7.3h-11.2l4.7 4.5c.2.2.3.4.3.7s-.1.5-.3.7zm36.1-16.5c.2-.2.4-.3.7-.3s.5.1.7.3l7.6 7.6c.2.2.3.4.3.7s-.1.5-.3.7l-7.6 7.6c-.2.2-.4.3-.7.3s-.5-.1-.7-.3l-.9-.9c-.2-.2-.3-.4-.3-.7s.1-.5.3-.7l4.7-4.5h-11.2c-.3 0-.5-.1-.7-.3s-.3-.4-.3-.7v-1.3c0-.3.1-.5.3-.7s.4-.3.7-.3h11.2l-4.7-4.5c-.2-.2-.3-.4-.3-.7s.1-.5.3-.7z" style="fill:#b4b4b4" id="Page_Navigation"/>
</svg>
