<svg xmlns="http://www.w3.org/2000/svg" id="Layer_1_1_" height="512" viewBox="0 0 256 256" width="512"><path d="m39.757 232.913c2.721 1.319 5.806 2.814 9.235 4.815 4.282 2.497 13.572 3.064 25.432 2.534-2.657 1.421-4.096 4.437-3.417 7.488.705 3.172 3.539 5.345 6.667 5.345.474 0 .956-.05 1.438-.154l32.063-6.933c3.94.153 52.166 1.992 79.825 1.992 30.058 0 38-17.007 38-26 0-3.57-2.509-7.349-7.457-11.229-4.9-3.843-10.642-6.606-17.007-8.197l-47.536-13.37v-8.204h40.474c2.811 0 5.215-1.913 5.846-4.651l1.042-4.514c.309-1.341.145-2.759-.462-3.994l-30.565-62.221c-.662-1.497-2.01-2.574-3.62-2.887l-27.715-5.382v-9.598c8.465-7.916 14.151-22.024 14.151-34.411 0-10.351-4.167-19.588-10.65-25.583.21-.876.417-1.838.417-2.841 0-9.88-8.038-17.918-17.918-17.918s-17.918 8.038-17.918 17.918c0 1.088.232 1.994.46 2.802-6.507 5.995-10.692 15.248-10.692 25.622 0 12.387 5.686 26.495 14.151 34.411v9.598l-27.715 5.382c-1.609.313-2.958 1.391-3.62 2.887l-30.566 62.221c-.606 1.235-.77 2.653-.461 3.995l1.041 4.512c.631 2.739 3.035 4.652 5.846 4.652h40.474v8.202l-53.535 14.871c-.124.035-.244.081-.359.138-1.752.875-17.106 8.784-17.106 16.789 0 6.214 4.931 8.604 11.757 11.913zm29.178 3.522c-1.394-1.692-4.935-6.478-4.935-11.435 0-4.938 2.241-9.415 3.211-11.122l16.716-1.857 51.64 9.563c1.94.362 3.938-.259 5.335-1.657l5.129-5.129c.434-.433 1.058-.641 1.663-.57l14.059 1.757c.054.007.107.011.161.014l19.67.855c.794.035 1.417.685 1.417 1.48 0 .67-.45 1.258-1.093 1.43-6.589 1.754-29.174 7.607-43.141 9.25-2.846.335-6.935.898-11.668 1.551-14.753 2.034-40.365 5.564-58.164 5.87zm42.144 5.566c-.167-.007-.336.008-.501.044l-32.31 6.986c-1.508.331-3.02-.636-3.355-2.148-.32-1.441.5-2.863 1.907-3.307l14.503-4.58c11.534-1.131 24.136-2.788 36.322-4.468 4.712-.649 8.782-1.211 11.589-1.541 12.018-1.414 29.677-5.714 39.706-8.309 1.567 1.259 5.31 4.686 5.31 8.698 0 4.286-2.54 8.755-3.686 10.555-29.015-.353-69.034-1.912-69.485-1.93zm58.601-134.753c.014.032.028.064.044.095l30.585 62.262c.203.412.257.885.154 1.332l-1.041 4.513c-.21.913-1.012 1.55-1.949 1.55h-60.613c-.188 0-.371-.053-.53-.152l-6.33-3.956v-34.871c1.367.107 2.495 1.112 2.724 2.486l3.988 23.928c.326 1.956 2.004 3.343 3.936 3.343.167 0 .336-.01.506-.032l29.773-3.721 9.682 1.936.784-3.922-8.968-1.794-11.5-26.832-5.601-29.4 13.628 2.647c.325.064.598.283.728.588zm-9.251 35.163 7.686 17.934-8.99 1.124zm-46.347-117.493c0-7.674 6.244-13.918 13.918-13.918s13.918 6.244 13.918 13.918c0 .006-.001.013-.001.019-4.108-2.726-8.856-4.293-13.917-4.293s-9.809 1.567-13.917 4.293c0-.006-.001-.013-.001-.019zm13.918-.274c11.923 0 21.848 10.322 23.797 23.839-5.06-8.693-13.853-14.195-23.797-14.195-10.01 0-18.891 5.881-23.92 15.133 1.615-13.975 11.723-24.777 23.92-24.777zm-23.546 35.425c2.596-12.64 12.441-21.781 23.546-21.781 11.446 0 21.13 8.637 23.67 21.039-2.282 14.815-12.429 30.673-23.67 30.673-11.053 0-21.046-15.333-23.546-29.931zm23.546 33.931c3.526 0 6.894-1.146 10-3.119v17.119c0 5.514-4.486 10-10 10s-10-4.486-10-10v-17.119c3.106 1.973 6.474 3.119 10 3.119zm0 28c7.72 0 14-6.28 14-14v-6.574l9.094 1.766 5.893 30.928-1.906 27.854-14.424 1.803-3.988-23.928c-.565-3.39-3.469-5.85-6.905-5.85h-1.764-1.764c-3.436 0-6.34 2.46-6.905 5.85l-3.988 23.928-14.424-1.803-1.906-27.859 5.721-30.89 9.267-1.8v6.575c-.001 7.72 6.279 14 13.999 14zm-32.429 20.411 1.304 19.058-8.99-1.124zm-38.993 33.038-1.041-4.512c-.104-.448-.049-.921.153-1.333l30.585-62.262c.016-.031.03-.063.044-.095.13-.305.403-.524.729-.588l13.465-2.615-5.439 29.373-11.497 26.828-8.968 1.794.784 3.922 9.682-1.936 29.772 3.721c2.138.271 4.088-1.187 4.442-3.312l3.988-23.928c.229-1.375 1.355-2.392 2.724-2.498v34.882l-6.331 3.957c-.159.099-.342.152-.53.152h-60.614c-.937.001-1.738-.637-1.948-1.55zm62.562 5.551c.938 0 1.854-.263 2.65-.76l6.21-3.881 6.21 3.881c.795.498 1.712.76 2.65.76h16.14v8h-50v-8zm-72.416 26.875 53.548-14.875h55.452l47.785 13.439c5.874 1.468 11.11 3.985 15.565 7.479 3.821 2.997 5.925 5.867 5.925 8.082 0 7.609-7.106 22-34 22-1.856 0-3.807-.008-5.83-.024 1.413-2.631 3.08-6.579 3.08-10.601 0-4.241-2.557-7.736-4.738-9.953 1.446-.566 2.563-1.707 3.109-3.122 1.866-.745 5.34-1.904 7.796-1.802l.166-3.996c-2.715-.111-5.939.818-8.081 1.576-.826-1.827-2.611-3.128-4.745-3.221l-19.589-.852-13.978-1.747c-1.849-.232-3.668.392-4.987 1.711l-5.129 5.129c-.466.465-1.13.674-1.778.552l-51.931-9.617c-.193-.035-.39-.043-.585-.021l-27 3 .441 3.976 5.237-.582c-.097.222-.196.447-.299.692-.984 2.336-2.158 5.95-2.158 9.902 0 4.482 2.132 8.658 3.97 11.43-5.953-.136-10.591-.775-12.962-2.158-3.563-2.078-6.72-3.609-9.506-4.959-6.759-3.276-9.502-4.748-9.502-8.313 0-3.932 8.551-10.002 14.724-13.125z"></path></svg>